<?xml version="1.0" standalone="no"?>
<!DOCTYPE svg PUBLIC "-//W3C//DTD SVG 20010904//EN"
 "http://www.w3.org/TR/2001/REC-SVG-20010904/DTD/svg10.dtd">
<svg version="1.0" xmlns="http://www.w3.org/2000/svg"
 width="432.000000pt" height="432.000000pt" viewBox="0 0 432.000000 432.000000"
 preserveAspectRatio="xMidYMid meet">
<metadata>
Created by potrace 1.11, written by Peter Selinger 2001-2013
</metadata>
<g transform="translate(0.000000,432.000000) scale(0.100000,-0.100000)"
fill="#000000" stroke="none">
<path d="M3949 4011 c-117 -46 -243 -166 -419 -401 -35 -47 -104 -135 -153
-196 l-88 -111 -117 -6 c-163 -7 -236 -35 -370 -140 -69 -54 -223 -218 -321
-342 -35 -44 -73 -86 -85 -94 -41 -28 -122 -104 -164 -155 -24 -28 -53 -62
-65 -76 -12 -14 -31 -41 -42 -61 -69 -124 -100 -168 -119 -171 -17 -2 -21 -10
-21 -37 0 -31 -7 -40 -89 -103 -97 -75 -215 -137 -276 -145 -38 -5 -148 16
-220 43 -82 30 -274 85 -385 110 -150 33 -326 36 -445 7 -46 -12 -88 -16 -107
-12 -18 3 -63 9 -100 13 l-68 7 2 -83 c2 -110 2 -106 16 -79 6 14 17 26 23 28
6 2 35 -28 64 -67 49 -67 51 -72 36 -89 -15 -17 -21 -17 -54 -5 -20 7 -45 13
-54 14 -12 0 -18 8 -19 23 -1 21 -1 21 -8 -3 -4 -14 -5 -58 -1 -98 3 -40 2
-80 -3 -88 -16 -28 5 -36 23 -7 9 15 37 50 61 76 l44 48 52 -35 c44 -30 122
-122 111 -130 -1 -2 -34 -15 -72 -30 -67 -26 -129 -58 -181 -92 l-25 -16 -2
53 -1 54 -7 -65 c-7 -72 -1 -124 10 -81 4 18 28 36 91 70 117 62 197 90 209
71 7 -11 -7 -22 -58 -46 -37 -17 -104 -57 -150 -88 -45 -31 -86 -56 -91 -56
-15 0 -16 -20 -11 -130 l5 -105 5 105 5 104 80 54 c84 56 200 119 194 105 -2
-4 -65 -99 -139 -210 -96 -144 -137 -197 -141 -185 -4 10 -8 -1 -11 -28 -6
-52 2 -74 13 -42 11 28 293 454 311 469 11 10 29 -14 98 -129 155 -256 274
-397 380 -450 25 -13 47 -24 49 -25 8 -5 -82 -121 -104 -133 -13 -7 -22 -16
-20 -20 7 -11 -105 -96 -162 -124 -66 -33 -113 -44 -165 -40 -44 3 -128 29
-138 42 -3 4 -25 20 -50 36 -25 16 -80 64 -122 108 l-78 80 0 81 c0 105 -8 96
-11 -13 l-2 -85 64 -64 c35 -35 87 -83 116 -107 40 -33 49 -45 40 -55 -10 -10
-8 -10 6 0 14 11 25 10 70 -10 79 -35 172 -33 257 7 36 17 88 49 115 70 28 22
56 44 64 49 19 11 12 1 -70 -111 -130 -177 -231 -274 -338 -326 -58 -28 -76
-32 -146 -31 -60 0 -93 6 -129 22 -55 24 -60 25 -51 11 9 -15 133 -50 179 -50
62 0 141 27 212 71 95 60 188 163 348 387 21 28 42 52 47 52 5 0 9 6 9 13 1 6
27 40 58 74 43 47 66 63 94 68 21 4 59 21 84 39 66 44 67 44 87 50 9 3 17 15
17 26 0 11 5 20 11 20 21 0 101 62 171 133 79 81 170 197 308 397 78 114 209
295 402 557 21 29 89 98 151 154 l112 101 225 -6 c228 -5 343 -17 369 -39 8
-7 80 -111 159 -232 241 -365 354 -506 470 -586 37 -27 53 -52 127 -200 l85
-169 0 -277 c0 -252 -1 -275 -16 -257 -15 19 -15 19 -5 -1 6 -11 15 -27 20
-35 7 -10 10 195 8 625 -1 352 -3 553 -4 446 l-3 -194 -35 6 c-18 3 -53 14
-77 25 -43 19 -44 21 -137 223 -52 112 -123 263 -157 334 -34 72 -61 131 -59
133 2 2 38 -18 82 -45 43 -26 134 -75 202 -110 121 -60 125 -63 158 -120 l33
-58 -1 262 c0 145 -3 262 -7 260 -25 -7 -80 34 -132 102 -33 41 -57 77 -55 79
5 6 173 -137 185 -157 8 -13 9 -12 10 9 0 16 -9 31 -24 40 -56 35 -251 210
-289 260 -63 82 -63 82 -2 55 64 -28 267 -95 289 -95 8 0 17 -6 19 -12 3 -7 6
3 6 22 0 22 -2 30 -8 22 -11 -18 -99 5 -261 69 -118 46 -129 53 -207 127 -114
110 -187 145 -313 152 -58 3 -93 9 -91 15 2 6 34 45 70 88 l66 77 100 -5 c113
-5 202 6 284 36 31 12 79 24 106 29 40 6 43 7 17 9 -31 1 -25 6 85 81 138 93
158 108 152 114 -2 3 -36 -18 -74 -47 -122 -90 -225 -147 -264 -147 -23 0 -31
-3 -23 -9 29 -18 -105 -42 -230 -42 -67 1 -123 2 -125 4 -3 4 17 32 210 286
212 280 335 395 462 434 28 8 41 15 30 15 -11 1 -41 -7 -66 -17z m-704 -763
c-15 -18 -50 -57 -78 -87 l-51 -54 -49 12 c-26 6 -72 11 -102 11 -39 0 -54 4
-59 16 -9 25 -69 15 -76 -13 -3 -14 -23 -32 -54 -47 l-49 -25 34 35 c40 41
151 117 203 139 71 30 142 44 224 44 l84 1 -27 -32z m-194 -149 c64 -14 58
-22 -66 -77 -49 -22 -179 -83 -288 -136 -109 -52 -195 -90 -191 -83 27 44 127
156 173 194 65 53 141 93 175 93 19 0 25 -6 28 -27 3 -24 8 -28 33 -28 25 0
30 4 33 28 3 21 -2 29 -20 36 -35 14 57 14 123 0z m341 -67 c35 -17 88 -54
118 -82 l55 -51 -165 82 c-91 45 -167 84 -170 86 -3 3 19 3 47 1 30 -3 80 -18
115 -36z m11 -77 c198 -100 227 -120 274 -185 7 -10 -23 6 -67 35 -172 116
-281 151 -434 141 -146 -10 -165 -10 -173 -3 -10 10 66 87 102 103 56 25 83
17 298 -91z m-398 35 c-22 -23 -37 -30 -64 -29 -36 1 -36 1 24 30 33 16 62 29
64 29 3 0 -8 -13 -24 -30z m-65 -59 c0 -5 -13 -19 -30 -31 -25 -18 -30 -19
-30 -5 0 8 -8 19 -17 23 -14 5 -10 8 17 13 54 10 60 10 60 0z m57 -9 c8 -5 -7
-17 -45 -35 l-57 -28 40 35 c44 39 45 39 62 28z m338 -7 c159 -41 372 -182
464 -306 30 -41 66 -89 79 -107 l25 -32 -84 36 c-46 19 -145 61 -219 91 -332
136 -340 140 -406 212 -34 36 -73 72 -88 80 -14 8 -26 18 -26 22 0 21 178 24
255 4z m-535 -66 c-8 -3 -43 -15 -77 -26 -76 -24 -70 -10 22 49 l60 39 5 -28
c4 -20 1 -30 -10 -34z m294 24 c32 -23 36 -29 20 -32 -10 -2 -24 -7 -30 -12
-10 -8 -151 18 -142 26 13 11 86 45 97 45 8 0 33 -12 55 -27z m-502 -104 c-67
-66 -85 -79 -97 -69 -23 19 -60 8 -63 -18 -2 -13 1 -28 6 -35 7 -8 -6 -30 -44
-72 -30 -33 -86 -99 -126 -147 -39 -49 -75 -88 -80 -88 -18 0 248 383 281 405
20 13 195 105 201 105 2 0 -33 -36 -78 -81z m183 1 c-32 -32 -71 -62 -86 -65
-65 -14 -182 -110 -270 -221 -29 -36 -62 -67 -79 -73 -36 -12 -35 -9 19 59 93
117 185 222 219 250 59 50 177 103 242 109 8 0 -12 -26 -45 -59z m225 44 c38
-8 74 -22 81 -30 6 -8 23 -14 38 -14 41 0 124 -44 140 -73 8 -15 12 -29 10
-31 -2 -2 -24 0 -49 4 -62 12 -145 12 -212 0 -51 -10 -60 -9 -103 15 -26 13
-70 28 -97 31 l-49 7 37 31 c64 53 98 75 117 76 10 0 49 -7 87 -16z m196 -42
c-9 -8 -46 20 -46 35 0 13 5 12 25 -7 14 -13 23 -25 21 -28z m115 -80 c-7 -2
-18 1 -23 6 -8 8 -4 9 13 5 13 -4 18 -8 10 -11z m-445 -13 c31 -12 52 -24 47
-29 -4 -4 -28 -15 -53 -24 -55 -21 -146 -75 -221 -131 -30 -23 -70 -44 -87
-47 -37 -5 -37 -6 41 90 46 55 63 70 73 61 7 -6 23 -9 36 -7 29 4 38 46 13 64
-15 11 -14 14 7 28 31 22 76 20 144 -5z m764 -116 c254 -103 307 -132 353
-189 l37 -47 0 -148 c0 -142 -1 -149 -20 -149 -14 0 -38 28 -81 93 -91 136
-153 213 -234 294 -79 78 -212 170 -290 201 -36 14 -51 26 -56 45 l-7 25 57
-25 c31 -14 139 -59 241 -100z m-1271 85 c-12 -18 -49 -70 -82 -115 -53 -72
-62 -80 -73 -65 -10 14 -7 23 19 57 34 43 144 155 153 155 3 0 -5 -15 -17 -32z
m249 -51 c-40 -45 -86 -99 -103 -119 -29 -36 -95 -63 -95 -39 0 19 184 198
225 219 22 12 41 21 43 22 2 0 -29 -37 -70 -83z m666 33 c39 -17 53 -32 96
-106 53 -90 123 -224 117 -224 -3 0 -42 18 -88 39 -46 22 -113 48 -147 58 -58
16 -69 24 -112 78 -26 33 -73 84 -104 113 -31 29 -56 55 -56 57 0 8 87 13 167
9 55 -2 96 -10 127 -24z m-210 -102 c53 -56 95 -102 94 -104 -2 -1 -28 2 -58
7 -30 6 -152 13 -270 17 l-214 7 54 40 c74 54 237 135 271 135 22 0 47 -21
123 -102z m386 41 c144 -77 287 -216 415 -403 41 -60 73 -111 71 -114 -7 -6
-141 64 -278 145 l-128 76 -56 106 c-31 58 -74 135 -95 170 -22 34 -39 65 -39
67 0 6 52 -16 110 -47z m-1140 -133 c0 -2 -8 -10 -17 -17 -16 -13 -17 -12 -4
4 13 16 21 21 21 13z m240 -9 c0 -2 -30 -30 -67 -62 -68 -61 -70 -59 -18 13
18 24 40 43 55 45 14 2 26 5 28 6 1 0 2 0 2 -2z m-388 -42 c-10 -12 -40 -47
-67 -76 l-49 -54 29 50 c55 96 68 112 87 107 17 -4 17 -5 0 -27z m208 -83
c-68 -93 -102 -128 -179 -186 -8 -6 30 55 85 136 97 145 107 155 151 157 19 1
11 -14 -57 -107z m1650 78 c0 -15 -5 -12 -26 11 -19 22 -19 22 4 10 12 -6 22
-16 22 -21z m-1791 -159 l-111 -161 -85 -41 c-46 -22 -89 -39 -94 -37 -5 2 34
48 87 103 52 55 130 140 172 189 64 74 127 124 140 112 1 -2 -48 -76 -109
-165z m1111 123 c25 -10 72 -32 105 -49 l60 -32 65 -129 c36 -71 87 -174 112
-229 26 -55 70 -149 97 -209 28 -59 51 -110 51 -113 0 -10 -60 40 -115 94 -81
82 -149 174 -331 448 -88 132 -163 245 -167 252 -9 14 43 0 123 -33z m-1189
-11 c-5 -10 -24 -31 -42 -48 -30 -28 -29 -26 6 18 41 50 52 58 36 30z m59 -17
c0 -2 -8 -10 -17 -17 -16 -13 -17 -12 -4 4 13 16 21 21 21 13z m-50 -60 c0 -2
-8 -10 -17 -17 -16 -13 -17 -12 -4 4 13 16 21 21 21 13z m-110 -75 c-61 -87
-110 -129 -79 -68 10 20 109 127 117 127 2 0 -15 -26 -38 -59z m-1125 -59 c34
-7 37 -9 17 -14 -19 -5 -23 -12 -20 -35 3 -24 8 -28 33 -28 27 0 30 3 30 33 0
31 1 32 35 26 37 -7 179 -47 394 -112 118 -36 126 -40 90 -44 -151 -18 -383
17 -824 123 l-135 32 45 13 c50 13 272 17 335 6z m-505 -19 l35 -5 -55 -28
c-50 -26 -57 -27 -72 -13 -10 9 -18 26 -18 39 0 24 1 24 110 7z m1795 -17
c-10 -15 -22 -23 -32 -19 -12 5 -9 11 14 29 34 27 40 24 18 -10z m-331 -29
c-21 -24 -51 -57 -67 -75 -25 -30 -31 -32 -94 -32 -36 0 -64 2 -62 4 2 3 45
25 94 50 50 25 106 58 125 74 49 42 51 31 4 -21z m-1294 12 c519 -126 763
-163 931 -140 52 7 113 8 159 3 l75 -8 -66 -21 c-99 -32 -185 -37 -337 -19
-74 9 -161 16 -193 16 -45 0 -76 7 -126 30 -228 103 -385 95 -536 -27 l-29
-23 -53 72 -54 73 67 33 c37 17 69 32 72 32 3 0 43 -9 90 -21z m1331 -17 c-10
-19 -37 -44 -61 -57 -8 -4 3 11 25 34 43 45 51 50 36 23z m-1591 -16 c0 -3 -4
-8 -10 -11 -5 -3 -10 -1 -10 4 0 6 5 11 10 11 6 0 10 -2 10 -4z m1749 -38
c-54 -79 -131 -177 -176 -225 -43 -46 -51 -51 -80 -46 -32 5 -32 6 -18 33 10
19 24 30 42 32 33 4 45 44 19 64 -14 10 -13 15 12 50 23 31 44 45 103 68 41
16 83 35 94 42 28 20 29 18 4 -18z m63 -13 c-26 -46 -112 -166 -162 -229 -64
-78 -330 -349 -337 -342 -2 2 16 44 41 92 39 78 52 94 100 125 63 41 193 186
281 311 51 74 61 84 71 70 7 -9 10 -21 6 -27z m1874 10 c11 -27 -2 -37 -14
-11 -7 16 -8 26 -1 26 5 0 12 -7 15 -15z m-3135 -31 c86 -26 159 -55 159 -64
0 -4 -17 -11 -37 -15 -65 -12 -169 -74 -251 -151 -44 -41 -86 -74 -94 -74 -20
1 -99 80 -140 143 -21 31 -38 58 -38 60 0 10 101 74 149 94 68 28 172 31 252
7z m964 -61 c-39 -61 -245 -310 -274 -331 -32 -23 -81 -27 -171 -14 l-44 7 75
37 c80 39 199 135 265 212 36 42 153 128 163 120 2 -2 -4 -16 -14 -31z m-125
-23 c-14 -10 -60 -30 -102 -44 -126 -42 -297 -32 -422 25 -53 24 -35 24 139 3
153 -19 268 -14 345 14 69 26 70 26 40 2z m-565 -25 c164 -73 329 -88 463 -43
l73 25 -28 -30 c-99 -105 -244 -203 -329 -221 -22 -5 -81 5 -195 34 -135 34
-187 43 -294 47 l-130 6 67 61 c73 67 155 113 233 132 71 17 76 17 140 -11z
m-664 -48 c10 -17 9 -17 -21 -2 -26 14 -29 19 -19 31 13 16 15 14 40 -29z
m-104 14 c8 -4 -3 -23 -32 -56 l-44 -50 -1 63 0 64 33 -7 c17 -4 37 -10 44
-14z m1377 -98 c-20 -43 -40 -87 -46 -98 -5 -12 -28 -29 -50 -38 -42 -19 -58
-17 -41 5 33 44 167 208 170 208 1 0 -14 -35 -33 -77z m10 -72 c-20 -21 -27
-8 -12 24 11 24 13 25 19 8 4 -10 1 -24 -7 -32z m-824 -11 c74 -12 272 -60
280 -68 8 -8 -113 8 -222 29 -67 14 -142 21 -215 21 -102 0 -143 9 -95 21 33
9 188 7 252 -3z m914 -67 c-151 -215 -281 -366 -362 -422 l-33 -23 44 69 c24
37 54 87 67 111 13 23 27 42 31 42 4 0 71 65 150 145 78 80 144 145 147 145 2
0 -18 -30 -44 -67z m-1214 53 c0 -3 -4 -8 -10 -11 -5 -3 -10 -1 -10 4 0 6 5
11 10 11 6 0 10 -2 10 -4z m342 -47 c57 -12 154 -23 216 -25 62 -2 138 -8 169
-14 31 -5 83 -10 115 -10 l59 0 -59 -77 c-32 -43 -102 -142 -156 -220 -54 -79
-102 -143 -108 -143 -29 0 -135 70 -200 133 -69 68 -318 358 -318 371 0 14
186 5 282 -15z m-190 -132 c109 -132 240 -270 298 -315 14 -11 45 -29 70 -42
25 -12 46 -24 48 -25 8 -7 -50 -85 -64 -85 -55 0 -192 119 -275 240 -79 116
-219 344 -219 357 0 33 33 2 142 -130z m888 118 c0 -3 -16 -37 -35 -75 -25
-51 -40 -69 -57 -72 -19 -2 -23 -9 -23 -38 0 -32 -13 -47 -136 -168 -104 -102
-142 -133 -158 -130 -20 3 -15 14 60 123 45 66 114 163 153 215 63 84 74 95
98 92 22 -3 30 2 37 21 9 22 22 31 54 36 4 0 7 -1 7 -4z m2330 -192 c0 -62 -2
-113 -4 -113 -4 0 -126 247 -126 254 0 1 29 -5 65 -14 l65 -15 0 -112z m-2501
-130 c-62 -102 -90 -133 -119 -133 -17 0 -33 -7 -39 -17 -5 -10 -13 -15 -16
-11 -6 5 182 198 193 198 2 0 -7 -17 -19 -37z m-279 -228 c-49 -50 -60 -56
-38 -22 8 12 21 32 29 45 8 12 23 22 33 22 16 0 12 -9 -24 -45z m123 39 c7 -8
-25 -35 -70 -58 -53 -27 -59 -18 -18 24 35 36 72 50 88 34z"/>
<path d="M3074 2746 c-12 -31 0 -51 31 -51 27 0 30 3 30 30 0 25 -4 30 -28 33
-17 2 -29 -2 -33 -12z"/>
<path d="M2883 3493 c9 -2 25 -2 35 0 9 3 1 5 -18 5 -19 0 -27 -2 -17 -5z"/>
<path d="M2993 3493 c9 -2 23 -2 30 0 6 3 -1 5 -18 5 -16 0 -22 -2 -12 -5z"/>
<path d="M3068 3483 c7 -3 16 -2 19 1 4 3 -2 6 -13 5 -11 0 -14 -3 -6 -6z"/>
<path d="M2659 3403 c-13 -16 -12 -17 4 -4 9 7 17 15 17 17 0 8 -8 3 -21 -13z"/>
<path d="M3438 3373 c7 -3 16 -2 19 1 4 3 -2 6 -13 5 -11 0 -14 -3 -6 -6z"/>
<path d="M3528 3353 c7 -3 16 -2 19 1 4 3 -2 6 -13 5 -11 0 -14 -3 -6 -6z"/>
<path d="M3978 3353 c6 -2 18 -2 25 0 6 3 1 5 -13 5 -14 0 -19 -2 -12 -5z"/>
<path d="M4024 3060 c0 -168 2 -236 3 -152 2 83 2 221 0 305 -1 83 -3 15 -3
-153z"/>
<path d="M2525 3288 l-60 -63 63 60 c58 55 67 65 59 65 -1 0 -29 -28 -62 -62z"/>
<path d="M3583 3343 c9 -2 23 -2 30 0 6 3 -1 5 -18 5 -16 0 -22 -2 -12 -5z"/>
<path d="M3888 3343 c7 -3 16 -2 19 1 4 3 -2 6 -13 5 -11 0 -14 -3 -6 -6z"/>
<path d="M300 3191 c0 -5 7 -12 16 -15 14 -5 15 -4 4 9 -14 17 -20 19 -20 6z"/>
<path d="M2594 3146 c-12 -31 0 -51 31 -51 27 0 30 3 30 30 0 25 -4 30 -28 33
-17 2 -29 -2 -33 -12z"/>
<path d="M2384 3128 l-19 -23 23 19 c21 18 27 26 19 26 -2 0 -12 -10 -23 -22z"/>
<path d="M305 2645 c0 -275 1 -386 2 -247 2 139 2 364 0 500 -1 136 -2 22 -2
-253z"/>
<path d="M2349 3083 c-13 -16 -12 -17 4 -4 16 13 21 21 13 21 -2 0 -10 -8 -17
-17z"/>
<path d="M440 3055 c19 -19 36 -35 39 -35 3 0 -10 16 -29 35 -19 19 -36 35
-39 35 -3 0 10 -16 29 -35z"/>
<path d="M2319 3043 c-13 -16 -12 -17 4 -4 9 7 17 15 17 17 0 8 -8 3 -21 -13z"/>
<path d="M2289 3003 c-13 -16 -12 -17 4 -4 9 7 17 15 17 17 0 8 -8 3 -21 -13z"/>
<path d="M520 2965 c13 -14 26 -25 28 -25 3 0 -5 11 -18 25 -13 14 -26 25 -28
25 -3 0 5 -11 18 -25z"/>
<path d="M575 2900 c10 -11 20 -20 23 -20 3 0 -3 9 -13 20 -10 11 -20 20 -23
20 -3 0 3 -9 13 -20z"/>
<path d="M635 2830 c10 -11 20 -20 23 -20 3 0 -3 9 -13 20 -10 11 -20 20 -23
20 -3 0 3 -9 13 -20z"/>
<path d="M680 2775 c13 -14 26 -25 28 -25 3 0 -5 11 -18 25 -13 14 -26 25 -28
25 -3 0 5 -11 18 -25z"/>
<path d="M2099 2733 c-13 -16 -12 -17 4 -4 16 13 21 21 13 21 -2 0 -10 -8 -17
-17z"/>
<path d="M735 2710 c10 -11 20 -20 23 -20 3 0 -3 9 -13 20 -10 11 -20 20 -23
20 -3 0 3 -9 13 -20z"/>
<path d="M790 2645 c13 -14 26 -25 28 -25 3 0 -5 11 -18 25 -13 14 -26 25 -28
25 -3 0 5 -11 18 -25z"/>
<path d="M4023 2605 c0 -33 2 -45 4 -27 2 18 2 45 0 60 -2 15 -4 0 -4 -33z"/>
<path d="M1984 2578 l-19 -23 23 19 c21 18 27 26 19 26 -2 0 -12 -10 -23 -22z"/>
<path d="M940 2488 c57 -60 106 -108 107 -108 8 0 -5 13 -104 110 l-108 105
105 -107z"/>
<path d="M1949 2533 c-13 -16 -12 -17 4 -4 9 7 17 15 17 17 0 8 -8 3 -21 -13z"/>
<path d="M1899 2473 l-24 -28 28 24 c25 23 32 31 24 31 -2 0 -14 -12 -28 -27z"/>
<path d="M1080 2356 c0 -2 8 -10 18 -17 15 -13 16 -12 3 4 -13 16 -21 21 -21
13z"/>
<path d="M1749 2323 c-13 -16 -12 -17 4 -4 9 7 17 15 17 17 0 8 -8 3 -21 -13z"/>
<path d="M1120 2326 c0 -2 8 -10 18 -17 15 -13 16 -12 3 4 -13 16 -21 21 -21
13z"/>
<path d="M1230 2250 c8 -5 20 -10 25 -10 6 0 3 5 -5 10 -8 5 -19 10 -25 10 -5
0 -3 -5 5 -10z"/>
<path d="M1630 2245 c-14 -8 -20 -14 -14 -15 5 0 19 7 30 15 24 18 16 19 -16
0z"/>
<path d="M2958 2243 c7 -3 16 -2 19 1 4 3 -2 6 -13 5 -11 0 -14 -3 -6 -6z"/>
<path d="M1423 2193 c15 -2 37 -2 50 0 12 2 0 4 -28 4 -27 0 -38 -2 -22 -4z"/>
<path d="M2639 2143 c-13 -16 -12 -17 4 -4 16 13 21 21 13 21 -2 0 -10 -8 -17
-17z"/>
<path d="M3190 2108 c41 -45 50 -53 50 -45 0 2 -21 23 -47 47 l-48 45 45 -47z"/>
<path d="M2545 2058 l-50 -53 53 50 c28 27 52 51 52 52 0 8 -9 -1 -55 -49z"/>
<path d="M3250 2036 c0 -2 8 -10 18 -17 15 -13 16 -12 3 4 -13 16 -21 21 -21
13z"/>
<path d="M2284 1996 c-12 -31 0 -51 31 -51 27 0 30 3 30 30 0 25 -4 30 -28 33
-17 2 -29 -2 -33 -12z"/>
<path d="M2459 1963 l-24 -28 28 24 c25 23 32 31 24 31 -2 0 -14 -12 -28 -27z"/>
<path d="M302 1930 c0 -14 2 -19 5 -12 2 6 2 18 0 25 -3 6 -5 1 -5 -13z"/>
<path d="M2409 1903 c-13 -16 -12 -17 4 -4 9 7 17 15 17 17 0 8 -8 3 -21 -13z"/>
<path d="M2379 1863 c-13 -16 -12 -17 4 -4 9 7 17 15 17 17 0 8 -8 3 -21 -13z"/>
<path d="M2239 1673 c-13 -16 -12 -17 4 -4 16 13 21 21 13 21 -2 0 -10 -8 -17
-17z"/>
<path d="M2099 1473 c-13 -16 -12 -17 4 -4 9 7 17 15 17 17 0 8 -8 3 -21 -13z"/>
<path d="M2019 1363 c-13 -16 -12 -17 4 -4 9 7 17 15 17 17 0 8 -8 3 -21 -13z"/>
<path d="M1989 1323 c-13 -16 -12 -17 4 -4 9 7 17 15 17 17 0 8 -8 3 -21 -13z"/>
<path d="M1959 1283 c-13 -16 -12 -17 4 -4 9 7 17 15 17 17 0 8 -8 3 -21 -13z"/>
<path d="M1919 1233 c-13 -16 -12 -17 4 -4 16 13 21 21 13 21 -2 0 -10 -8 -17
-17z"/>
<path d="M3721 1215 c0 -5 6 -21 14 -35 8 -14 14 -20 14 -15 0 6 -6 21 -14 35
-8 14 -14 21 -14 15z"/>
<path d="M1869 1173 l-24 -28 28 24 c25 23 32 31 24 31 -2 0 -14 -12 -28 -27z"/>
<path d="M1770 1065 c-24 -25 -42 -45 -39 -45 3 0 25 20 49 45 24 25 42 45 39
45 -3 0 -25 -20 -49 -45z"/>
<path d="M1679 983 c-13 -16 -12 -17 4 -4 16 13 21 21 13 21 -2 0 -10 -8 -17
-17z"/>
<path d="M304 655 c0 -88 2 -123 3 -77 2 46 2 118 0 160 -1 42 -3 5 -3 -83z"/>
<path d="M958 803 c12 -2 30 -2 40 0 9 3 -1 5 -23 4 -22 0 -30 -2 -17 -4z"/>
<path d="M1133 803 c9 -2 25 -2 35 0 9 3 1 5 -18 5 -19 0 -27 -2 -17 -5z"/>
<path d="M1203 803 c9 -2 25 -2 35 0 9 3 1 5 -18 5 -19 0 -27 -2 -17 -5z"/>
<path d="M863 793 c9 -2 23 -2 30 0 6 3 -1 5 -18 5 -16 0 -22 -2 -12 -5z"/>
<path d="M808 783 c7 -3 16 -2 19 1 4 3 -2 6 -13 5 -11 0 -14 -3 -6 -6z"/>
<path d="M3936 777 c3 -10 9 -15 12 -12 3 3 0 11 -7 18 -10 9 -11 8 -5 -6z"/>
<path d="M419 593 c-13 -16 -12 -17 4 -4 16 13 21 21 13 21 -2 0 -10 -8 -17
-17z"/>
<path d="M379 563 c-13 -16 -12 -17 4 -4 16 13 21 21 13 21 -2 0 -10 -8 -17
-17z"/>
</g>
</svg>
