<?xml version="1.0" encoding="utf-8" standalone="no"?>
<!DOCTYPE svg PUBLIC "-//W3C//DTD SVG 1.1//EN"
  "http://www.w3.org/Graphics/SVG/1.1/DTD/svg11.dtd">
<svg xmlns:xlink="http://www.w3.org/1999/xlink" width="413.307102pt" height="324pt" viewBox="0 0 413.307102 324" xmlns="http://www.w3.org/2000/svg" version="1.1">
 <metadata>
  <rdf:RDF xmlns:dc="http://purl.org/dc/elements/1.1/" xmlns:cc="http://creativecommons.org/ns#" xmlns:rdf="http://www.w3.org/1999/02/22-rdf-syntax-ns#">
   <cc:Work>
    <dc:type rdf:resource="http://purl.org/dc/dcmitype/StillImage"/>
    <dc:date>2023-01-09T15:37:53.282295</dc:date>
    <dc:format>image/svg+xml</dc:format>
    <dc:creator>
     <cc:Agent>
      <dc:title>Matplotlib v3.6.2, https://matplotlib.org/</dc:title>
     </cc:Agent>
    </dc:creator>
   </cc:Work>
  </rdf:RDF>
 </metadata>
 <defs>
  <style type="text/css">*{stroke-linejoin: round; stroke-linecap: butt}</style>
 </defs>
 <g id="figure_1">
  <g id="patch_1">
   <path d="M 0 324 
L 413.307102 324 
L 413.307102 0 
L 0 0 
L 0 324 
z
" style="fill: none"/>
  </g>
  <g id="axes_1">
   <g id="patch_2">
    <path d="M 104.034375 309.272727 
L 300.398011 309.272727 
L 300.398011 112.909091 
L 104.034375 112.909091 
z
" clip-path="url(#pd2c0bc9a02)" style="fill: #5e97f6; fill-opacity: 0.12549; stroke: #5e97f6; stroke-opacity: 0.6; stroke-width: 3; stroke-linejoin: miter"/>
   </g>
   <g id="patch_3">
    <path d="M 123.670739 289.636364 
L 320.034375 289.636364 
L 320.034375 93.272727 
L 123.670739 93.272727 
z
" clip-path="url(#pd2c0bc9a02)" style="fill: #30a89c; fill-opacity: 0.094118; stroke: #30a89c; stroke-opacity: 0.34902; stroke-width: 3; stroke-linejoin: miter"/>
   </g>
   <g id="patch_4">
    <path d="M 143.307102 270 
L 339.670739 270 
L 339.670739 73.636364 
L 143.307102 73.636364 
z
" clip-path="url(#pd2c0bc9a02)" style="fill: #9c26b0; fill-opacity: 0.086275; stroke: #9c26b0; stroke-opacity: 0.207843; stroke-width: 3; stroke-linejoin: miter"/>
   </g>
   <g id="patch_5">
    <path d="M 162.943466 250.363636 
L 359.307102 250.363636 
L 359.307102 54 
L 162.943466 54 
z
" clip-path="url(#pd2c0bc9a02)" style="fill: #5e97f6; fill-opacity: 0.078431; stroke: #5e97f6; stroke-opacity: 0.129412; stroke-width: 3; stroke-linejoin: miter"/>
   </g>
   <g id="patch_6">
    <path d="M 182.57983 230.727273 
L 378.943466 230.727273 
L 378.943466 34.363636 
L 182.57983 34.363636 
z
" clip-path="url(#pd2c0bc9a02)" style="fill: #30a89c; fill-opacity: 0.07451; stroke: #30a89c; stroke-opacity: 0.070588; stroke-width: 3; stroke-linejoin: miter"/>
   </g>
   <g id="patch_7">
    <path d="M 202.216193 211.090909 
L 398.57983 211.090909 
L 398.57983 14.727273 
L 202.216193 14.727273 
z
" clip-path="url(#pd2c0bc9a02)" style="fill: #9c26b0; fill-opacity: 0.066667; stroke: #9c26b0; stroke-opacity: 0.027451; stroke-width: 3; stroke-linejoin: miter"/>
   </g>
   <g id="text_1">
    <path d="M 24.3675 252.883636 
Q 24.3675 257.203636 23.31 260.623636 
Q 22.2525 264.043636 20.1825 266.406136 
Q 18.1125 268.757386 15.08625 270.017386 
Q 12.06 271.277386 8.13375 271.277386 
Q 4.5675 271.277386 0.86625 270.276136 
Q 0.93375 269.229886 1.035 268.206136 
Q 1.1475 267.171136 1.22625 266.169886 
Q 1.29375 265.551136 1.665 265.179886 
Q 2.0475 264.797386 2.84625 264.797386 
Q 3.4875 264.797386 4.545 265.123636 
Q 5.61375 265.449886 7.41375 265.449886 
Q 9.7875 265.449886 11.655 264.729886 
Q 13.53375 264.009886 14.79375 262.502386 
Q 16.05375 260.983636 16.7175 258.632386 
Q 17.3925 256.269886 17.3925 253.029886 
L 17.3925 219.111136 
L 24.3675 219.111136 
L 24.3675 252.883636 
z
M 55.26 254.289886 
Q 50.8275 254.436136 47.71125 254.998636 
Q 44.60625 255.549886 42.6375 256.449886 
Q 40.68 257.349886 39.79125 258.576136 
Q 38.91375 259.791136 38.91375 261.309886 
Q 38.91375 262.749886 39.375 263.796136 
Q 39.8475 264.831136 40.6575 265.506136 
Q 41.4675 266.169886 42.57 266.473636 
Q 43.6725 266.777386 44.9325 266.777386 
Q 46.62 266.777386 48.02625 266.439886 
Q 49.4325 266.091136 50.67 265.449886 
Q 51.9075 264.797386 53.04375 263.897386 
Q 54.18 262.997386 55.26 261.849886 
L 55.26 254.289886 
z
M 34.56 239.383636 
Q 37.58625 236.469886 41.07375 235.029886 
Q 44.5725 233.589886 48.81375 233.589886 
Q 51.87375 233.589886 54.2475 234.602386 
Q 56.6325 235.603636 58.2525 237.403636 
Q 59.8725 239.203636 60.69375 241.757386 
Q 61.52625 244.311136 61.52625 247.371136 
L 61.52625 270.703636 
L 58.68 270.703636 
Q 57.74625 270.703636 57.24 270.399886 
Q 56.73375 270.096136 56.4525 269.196136 
L 55.7325 265.731136 
Q 54.2925 267.069886 52.92 268.093636 
Q 51.5475 269.117386 50.04 269.826136 
Q 48.5325 270.523636 46.8225 270.894886 
Q 45.1125 271.277386 43.02 271.277386 
Q 40.89375 271.277386 39.015 270.692386 
Q 37.1475 270.096136 35.76375 268.903636 
Q 34.38 267.711136 33.57 265.899886 
Q 32.76 264.077386 32.76 261.591136 
Q 32.76 259.431136 33.94125 257.439886 
Q 35.13375 255.437386 37.8 253.896136 
Q 40.46625 252.343636 44.74125 251.353636 
Q 49.0275 250.363636 55.26 250.217386 
L 55.26 247.371136 
Q 55.26 243.129886 53.42625 240.958636 
Q 51.5925 238.776136 48.06 238.776136 
Q 45.68625 238.776136 44.0775 239.372386 
Q 42.48 239.957386 41.31 240.699886 
Q 40.14 241.431136 39.29625 242.027386 
Q 38.4525 242.623636 37.62 242.623636 
Q 36.9675 242.623636 36.495 242.286136 
Q 36.03375 241.937386 35.7075 241.431136 
L 34.56 239.383636 
z
M 101.236509 270.703636 
L 95.071509 270.703636 
Q 94.284009 270.703636 93.834009 270.287386 
Q 93.384009 269.871136 93.091509 269.376136 
L 83.911509 255.077386 
Q 83.776509 255.583636 83.607759 256.067386 
Q 83.450259 256.551136 83.157759 256.956136 
L 74.664009 269.376136 
Q 74.304009 269.871136 73.887759 270.287386 
Q 73.471509 270.703636 72.751509 270.703636 
L 67.036509 270.703636 
L 79.816509 251.983636 
L 67.531509 234.231136 
L 73.696509 234.231136 
Q 74.484009 234.231136 74.844009 234.489886 
Q 75.204009 234.737386 75.496509 235.209886 
L 84.451509 248.889886 
Q 84.744009 247.843636 85.351509 246.876136 
L 93.204009 235.356136 
Q 93.530259 234.849886 93.901509 234.546136 
Q 94.284009 234.231136 94.824009 234.231136 
L 100.730259 234.231136 
L 88.456509 251.657386 
L 101.236509 270.703636 
z
M 137.913761 264.831136 
L 137.913761 270.703636 
L 108.652511 270.703636 
L 108.652511 219.111136 
L 115.593761 219.111136 
L 115.593761 264.831136 
L 137.913761 264.831136 
z
M 150.878265 234.231136 
L 150.878265 270.703636 
L 144.465765 270.703636 
L 144.465765 234.231136 
L 150.878265 234.231136 
z
M 152.239515 222.789886 
Q 152.239515 223.723636 151.857015 224.533636 
Q 151.485765 225.343636 150.855765 225.973636 
Q 150.225765 226.603636 149.382015 226.963636 
Q 148.538265 227.323636 147.604515 227.323636 
Q 146.659515 227.323636 145.849515 226.963636 
Q 145.039515 226.603636 144.432015 225.973636 
Q 143.824515 225.343636 143.464515 224.533636 
Q 143.104515 223.723636 143.104515 222.789886 
Q 143.104515 221.856136 143.464515 221.012386 
Q 143.824515 220.157386 144.432015 219.527386 
Q 145.039515 218.897386 145.849515 218.537386 
Q 146.659515 218.177386 147.604515 218.177386 
Q 148.538265 218.177386 149.382015 218.537386 
Q 150.225765 218.897386 150.855765 219.527386 
Q 151.485765 220.157386 151.857015 221.012386 
Q 152.239515 221.856136 152.239515 222.789886 
z
M 167.438265 239.529886 
Q 168.619515 238.191136 169.947015 237.111136 
Q 171.285765 236.031136 172.782015 235.266136 
Q 174.278265 234.489886 175.943265 234.073636 
Q 177.619515 233.657386 179.565765 233.657386 
Q 182.558265 233.657386 184.842015 234.647386 
Q 187.125765 235.637386 188.655765 237.459886 
Q 190.185765 239.271136 190.973265 241.836136 
Q 191.772015 244.389886 191.772015 247.483636 
L 191.772015 270.703636 
L 185.325765 270.703636 
L 185.325765 247.483636 
Q 185.325765 243.343636 183.435765 241.059886 
Q 181.545765 238.776136 177.698265 238.776136 
Q 174.852015 238.776136 172.388265 240.148636 
Q 169.924515 241.509886 167.832015 243.849886 
L 167.832015 270.703636 
L 161.385765 270.703636 
L 161.385765 234.231136 
L 165.244515 234.231136 
Q 166.605765 234.231136 166.932015 235.569886 
L 167.438265 239.529886 
z
M 250.735518 244.929886 
Q 250.735518 250.723636 248.901768 255.572386 
Q 247.068018 260.409886 243.715518 263.908636 
Q 240.374268 267.396136 235.671768 269.319886 
Q 230.980518 271.243636 225.288018 271.243636 
Q 219.595518 271.243636 214.915518 269.319886 
Q 210.235518 267.396136 206.883018 263.908636 
Q 203.541768 260.409886 201.708018 255.572386 
Q 199.874268 250.723636 199.874268 244.929886 
Q 199.874268 239.136136 201.708018 234.298636 
Q 203.541768 229.449886 206.883018 225.939886 
Q 210.235518 222.429886 214.915518 220.483636 
Q 219.595518 218.537386 225.288018 218.537386 
Q 230.980518 218.537386 235.671768 220.483636 
Q 240.374268 222.429886 243.715518 225.939886 
Q 247.068018 229.449886 248.901768 234.298636 
Q 250.735518 239.136136 250.735518 244.929886 
z
M 243.580518 244.929886 
Q 243.580518 240.171136 242.275518 236.391136 
Q 240.981768 232.611136 238.608018 230.001136 
Q 236.234268 227.391136 232.848018 225.996136 
Q 229.461768 224.589886 225.288018 224.589886 
Q 221.148018 224.589886 217.761768 225.996136 
Q 214.375518 227.391136 211.979268 230.001136 
Q 209.594268 232.611136 208.289268 236.391136 
Q 206.995518 240.171136 206.995518 244.929886 
Q 206.995518 249.677386 208.289268 253.446136 
Q 209.594268 257.203636 211.979268 259.813636 
Q 214.375518 262.423636 217.761768 263.807386 
Q 221.148018 265.191136 225.288018 265.191136 
Q 229.461768 265.191136 232.848018 263.807386 
Q 236.234268 262.423636 238.608018 259.813636 
Q 240.981768 257.203636 242.275518 253.446136 
Q 243.580518 249.677386 243.580518 244.929886 
z
M 265.644031 261.917386 
Q 267.410281 264.291136 269.491531 265.269886 
Q 271.584031 266.237386 274.171531 266.237386 
Q 279.290281 266.237386 282.024031 262.603636 
Q 284.757781 258.969886 284.757781 252.231136 
Q 284.757781 248.676136 284.127781 246.122386 
Q 283.497781 243.557386 282.305281 241.926136 
Q 281.124031 240.283636 279.391531 239.529886 
Q 277.670281 238.776136 275.476531 238.776136 
Q 272.337781 238.776136 269.975281 240.216136 
Q 267.624031 241.656136 265.644031 244.277386 
L 265.644031 261.917386 
z
M 265.317781 239.889886 
Q 267.624031 237.043636 270.650281 235.322386 
Q 273.676531 233.589886 277.557781 233.589886 
Q 280.730281 233.589886 283.284031 234.793636 
Q 285.837781 235.997386 287.637781 238.359886 
Q 289.437781 240.711136 290.405281 244.209886 
Q 291.384031 247.697386 291.384031 252.231136 
Q 291.384031 256.269886 290.304031 259.746136 
Q 289.224031 263.211136 287.187781 265.753636 
Q 285.151531 268.296136 282.215281 269.758636 
Q 279.290281 271.209886 275.611531 271.209886 
Q 272.270281 271.209886 269.874031 270.073636 
Q 267.477781 268.937386 265.644031 266.923636 
L 265.644031 283.056136 
L 259.197781 283.056136 
L 259.197781 234.231136 
L 263.056531 234.231136 
Q 264.417781 234.231136 264.744031 235.569886 
L 265.317781 239.889886 
z
" style="stroke: #ffffff; stroke-width: 3"/>
    <path d="M 24.3675 252.883636 
Q 24.3675 257.203636 23.31 260.623636 
Q 22.2525 264.043636 20.1825 266.406136 
Q 18.1125 268.757386 15.08625 270.017386 
Q 12.06 271.277386 8.13375 271.277386 
Q 4.5675 271.277386 0.86625 270.276136 
Q 0.93375 269.229886 1.035 268.206136 
Q 1.1475 267.171136 1.22625 266.169886 
Q 1.29375 265.551136 1.665 265.179886 
Q 2.0475 264.797386 2.84625 264.797386 
Q 3.4875 264.797386 4.545 265.123636 
Q 5.61375 265.449886 7.41375 265.449886 
Q 9.7875 265.449886 11.655 264.729886 
Q 13.53375 264.009886 14.79375 262.502386 
Q 16.05375 260.983636 16.7175 258.632386 
Q 17.3925 256.269886 17.3925 253.029886 
L 17.3925 219.111136 
L 24.3675 219.111136 
L 24.3675 252.883636 
z
M 55.26 254.289886 
Q 50.8275 254.436136 47.71125 254.998636 
Q 44.60625 255.549886 42.6375 256.449886 
Q 40.68 257.349886 39.79125 258.576136 
Q 38.91375 259.791136 38.91375 261.309886 
Q 38.91375 262.749886 39.375 263.796136 
Q 39.8475 264.831136 40.6575 265.506136 
Q 41.4675 266.169886 42.57 266.473636 
Q 43.6725 266.777386 44.9325 266.777386 
Q 46.62 266.777386 48.02625 266.439886 
Q 49.4325 266.091136 50.67 265.449886 
Q 51.9075 264.797386 53.04375 263.897386 
Q 54.18 262.997386 55.26 261.849886 
L 55.26 254.289886 
z
M 34.56 239.383636 
Q 37.58625 236.469886 41.07375 235.029886 
Q 44.5725 233.589886 48.81375 233.589886 
Q 51.87375 233.589886 54.2475 234.602386 
Q 56.6325 235.603636 58.2525 237.403636 
Q 59.8725 239.203636 60.69375 241.757386 
Q 61.52625 244.311136 61.52625 247.371136 
L 61.52625 270.703636 
L 58.68 270.703636 
Q 57.74625 270.703636 57.24 270.399886 
Q 56.73375 270.096136 56.4525 269.196136 
L 55.7325 265.731136 
Q 54.2925 267.069886 52.92 268.093636 
Q 51.5475 269.117386 50.04 269.826136 
Q 48.5325 270.523636 46.8225 270.894886 
Q 45.1125 271.277386 43.02 271.277386 
Q 40.89375 271.277386 39.015 270.692386 
Q 37.1475 270.096136 35.76375 268.903636 
Q 34.38 267.711136 33.57 265.899886 
Q 32.76 264.077386 32.76 261.591136 
Q 32.76 259.431136 33.94125 257.439886 
Q 35.13375 255.437386 37.8 253.896136 
Q 40.46625 252.343636 44.74125 251.353636 
Q 49.0275 250.363636 55.26 250.217386 
L 55.26 247.371136 
Q 55.26 243.129886 53.42625 240.958636 
Q 51.5925 238.776136 48.06 238.776136 
Q 45.68625 238.776136 44.0775 239.372386 
Q 42.48 239.957386 41.31 240.699886 
Q 40.14 241.431136 39.29625 242.027386 
Q 38.4525 242.623636 37.62 242.623636 
Q 36.9675 242.623636 36.495 242.286136 
Q 36.03375 241.937386 35.7075 241.431136 
L 34.56 239.383636 
z
M 101.236509 270.703636 
L 95.071509 270.703636 
Q 94.284009 270.703636 93.834009 270.287386 
Q 93.384009 269.871136 93.091509 269.376136 
L 83.911509 255.077386 
Q 83.776509 255.583636 83.607759 256.067386 
Q 83.450259 256.551136 83.157759 256.956136 
L 74.664009 269.376136 
Q 74.304009 269.871136 73.887759 270.287386 
Q 73.471509 270.703636 72.751509 270.703636 
L 67.036509 270.703636 
L 79.816509 251.983636 
L 67.531509 234.231136 
L 73.696509 234.231136 
Q 74.484009 234.231136 74.844009 234.489886 
Q 75.204009 234.737386 75.496509 235.209886 
L 84.451509 248.889886 
Q 84.744009 247.843636 85.351509 246.876136 
L 93.204009 235.356136 
Q 93.530259 234.849886 93.901509 234.546136 
Q 94.284009 234.231136 94.824009 234.231136 
L 100.730259 234.231136 
L 88.456509 251.657386 
L 101.236509 270.703636 
z
M 137.913761 264.831136 
L 137.913761 270.703636 
L 108.652511 270.703636 
L 108.652511 219.111136 
L 115.593761 219.111136 
L 115.593761 264.831136 
L 137.913761 264.831136 
z
M 150.878265 234.231136 
L 150.878265 270.703636 
L 144.465765 270.703636 
L 144.465765 234.231136 
L 150.878265 234.231136 
z
M 152.239515 222.789886 
Q 152.239515 223.723636 151.857015 224.533636 
Q 151.485765 225.343636 150.855765 225.973636 
Q 150.225765 226.603636 149.382015 226.963636 
Q 148.538265 227.323636 147.604515 227.323636 
Q 146.659515 227.323636 145.849515 226.963636 
Q 145.039515 226.603636 144.432015 225.973636 
Q 143.824515 225.343636 143.464515 224.533636 
Q 143.104515 223.723636 143.104515 222.789886 
Q 143.104515 221.856136 143.464515 221.012386 
Q 143.824515 220.157386 144.432015 219.527386 
Q 145.039515 218.897386 145.849515 218.537386 
Q 146.659515 218.177386 147.604515 218.177386 
Q 148.538265 218.177386 149.382015 218.537386 
Q 150.225765 218.897386 150.855765 219.527386 
Q 151.485765 220.157386 151.857015 221.012386 
Q 152.239515 221.856136 152.239515 222.789886 
z
M 167.438265 239.529886 
Q 168.619515 238.191136 169.947015 237.111136 
Q 171.285765 236.031136 172.782015 235.266136 
Q 174.278265 234.489886 175.943265 234.073636 
Q 177.619515 233.657386 179.565765 233.657386 
Q 182.558265 233.657386 184.842015 234.647386 
Q 187.125765 235.637386 188.655765 237.459886 
Q 190.185765 239.271136 190.973265 241.836136 
Q 191.772015 244.389886 191.772015 247.483636 
L 191.772015 270.703636 
L 185.325765 270.703636 
L 185.325765 247.483636 
Q 185.325765 243.343636 183.435765 241.059886 
Q 181.545765 238.776136 177.698265 238.776136 
Q 174.852015 238.776136 172.388265 240.148636 
Q 169.924515 241.509886 167.832015 243.849886 
L 167.832015 270.703636 
L 161.385765 270.703636 
L 161.385765 234.231136 
L 165.244515 234.231136 
Q 166.605765 234.231136 166.932015 235.569886 
L 167.438265 239.529886 
z
M 250.735518 244.929886 
Q 250.735518 250.723636 248.901768 255.572386 
Q 247.068018 260.409886 243.715518 263.908636 
Q 240.374268 267.396136 235.671768 269.319886 
Q 230.980518 271.243636 225.288018 271.243636 
Q 219.595518 271.243636 214.915518 269.319886 
Q 210.235518 267.396136 206.883018 263.908636 
Q 203.541768 260.409886 201.708018 255.572386 
Q 199.874268 250.723636 199.874268 244.929886 
Q 199.874268 239.136136 201.708018 234.298636 
Q 203.541768 229.449886 206.883018 225.939886 
Q 210.235518 222.429886 214.915518 220.483636 
Q 219.595518 218.537386 225.288018 218.537386 
Q 230.980518 218.537386 235.671768 220.483636 
Q 240.374268 222.429886 243.715518 225.939886 
Q 247.068018 229.449886 248.901768 234.298636 
Q 250.735518 239.136136 250.735518 244.929886 
z
M 243.580518 244.929886 
Q 243.580518 240.171136 242.275518 236.391136 
Q 240.981768 232.611136 238.608018 230.001136 
Q 236.234268 227.391136 232.848018 225.996136 
Q 229.461768 224.589886 225.288018 224.589886 
Q 221.148018 224.589886 217.761768 225.996136 
Q 214.375518 227.391136 211.979268 230.001136 
Q 209.594268 232.611136 208.289268 236.391136 
Q 206.995518 240.171136 206.995518 244.929886 
Q 206.995518 249.677386 208.289268 253.446136 
Q 209.594268 257.203636 211.979268 259.813636 
Q 214.375518 262.423636 217.761768 263.807386 
Q 221.148018 265.191136 225.288018 265.191136 
Q 229.461768 265.191136 232.848018 263.807386 
Q 236.234268 262.423636 238.608018 259.813636 
Q 240.981768 257.203636 242.275518 253.446136 
Q 243.580518 249.677386 243.580518 244.929886 
z
M 265.644031 261.917386 
Q 267.410281 264.291136 269.491531 265.269886 
Q 271.584031 266.237386 274.171531 266.237386 
Q 279.290281 266.237386 282.024031 262.603636 
Q 284.757781 258.969886 284.757781 252.231136 
Q 284.757781 248.676136 284.127781 246.122386 
Q 283.497781 243.557386 282.305281 241.926136 
Q 281.124031 240.283636 279.391531 239.529886 
Q 277.670281 238.776136 275.476531 238.776136 
Q 272.337781 238.776136 269.975281 240.216136 
Q 267.624031 241.656136 265.644031 244.277386 
L 265.644031 261.917386 
z
M 265.317781 239.889886 
Q 267.624031 237.043636 270.650281 235.322386 
Q 273.676531 233.589886 277.557781 233.589886 
Q 280.730281 233.589886 283.284031 234.793636 
Q 285.837781 235.997386 287.637781 238.359886 
Q 289.437781 240.711136 290.405281 244.209886 
Q 291.384031 247.697386 291.384031 252.231136 
Q 291.384031 256.269886 290.304031 259.746136 
Q 289.224031 263.211136 287.187781 265.753636 
Q 285.151531 268.296136 282.215281 269.758636 
Q 279.290281 271.209886 275.611531 271.209886 
Q 272.270281 271.209886 269.874031 270.073636 
Q 267.477781 268.937386 265.644031 266.923636 
L 265.644031 283.056136 
L 259.197781 283.056136 
L 259.197781 234.231136 
L 263.056531 234.231136 
Q 264.417781 234.231136 264.744031 235.569886 
L 265.317781 239.889886 
z
"/>
   </g>
  </g>
 </g>
 <defs>
  <clipPath id="pd2c0bc9a02">
   <rect x="89.307102" y="0" width="324" height="324"/>
  </clipPath>
 </defs>
</svg>
