<svg height="300pt" version="1.1" viewBox="0 0 864 360" width="864pt" xmlns="http://www.w3.org/2000/svg" xmlns:xlink="http://www.w3.org/1999/xlink">
 <g id="figure_1">
  <g id="patch_1">
   <path d="M 0 360
L 864 360
L 864 0
L 0 0
z
" style="fill:none;"/>
</g>
<g id="axes_1">
<g id="line2d_1">
<path class="squiggle" clip-path="url(#pe0dedcd5ed)" d="M 138.436364 226.927956
L 144.535835 229.471253
L 148.195518 230.91946
L 149.415413 231.322164
L 151.855201 232.349245
L 153.075096 232.608157
L 157.954673 234.289215
L 159.174567 234.467879
L 161.614356 235.341852
L 162.83425 235.41421
L 167.713828 236.648211
L 168.933722 236.755975
L 171.373511 237.253485
L 172.593405 237.299868
L 175.033194 237.715191
L 183.572454 238.086273
L 187.232137 238.145283
L 193.331609 237.582492
L 194.551503 237.313287
L 195.771397 237.263747
L 204.310658 235.447456
L 212.849918 232.747356
L 215.289707 231.62991
L 216.509601 231.268214
L 220.169284 229.498527
L 223.828967 227.795558
L 225.048861 227.168139
L 226.268756 226.356503
L 227.48865 225.88183
L 232.368227 222.86409
L 233.588122 222.339658
L 238.467699 219.04212
L 242.127382 216.666787
L 251.886537 209.430203
L 254.326325 207.484383
L 256.766114 205.623174
L 259.205903 203.662973
L 260.425797 202.758156
L 261.645691 201.605804
L 262.865586 200.752102
L 265.305374 198.657403
L 266.525269 197.73795
L 270.184952 194.61968
L 272.62474 192.58942
L 273.844635 191.434466
L 277.504318 188.442105
L 278.724212 187.267281
L 279.944106 186.389854
L 281.164001 185.20656
L 282.383895 184.335501
L 284.823684 182.167922
L 286.043578 181.254879
L 288.483367 179.154935
L 298.242521 171.161286
L 299.462416 170.383125
L 301.902204 168.381109
L 305.561887 165.583878
L 309.22157 162.8722
L 310.441465 161.891745
L 311.661359 161.164459
L 316.540936 157.582663
L 318.980725 156.190409
L 320.200619 155.303601
L 322.640408 153.837001
L 325.080197 152.19032
L 328.73988 150.104022
L 329.959774 149.214326
L 334.839351 146.654327
L 336.059246 146.111761
L 337.27914 145.298858
L 338.499034 144.843203
L 345.8184 141.311868
L 350.697978 139.255049
L 353.137766 138.241142
L 355.577555 137.414999
L 358.017344 136.530399
L 360.457132 135.632475
L 362.896921 134.937016
L 364.116815 134.452022
L 366.556604 133.850922
L 367.776498 133.381441
L 368.996393 133.2223
L 370.216287 132.634137
L 372.656076 132.145942
L 375.095864 131.450175
L 376.315759 131.119475
L 379.975442 130.585831
L 381.195336 130.105725
L 383.635125 129.747163
L 384.855019 129.35305
L 386.074913 129.307495
L 387.294808 129.001151
L 388.514702 128.898445
L 392.174385 128.161398
L 395.834068 127.769544
L 397.053962 127.375153
L 400.713645 127.11734
L 404.373328 126.571663
L 405.593223 126.603679
L 406.813117 126.34948
L 408.033011 126.385899
L 409.252906 126.043102
L 410.4728 126.123666
L 416.572272 125.63934
L 417.792166 125.72495
L 427.551321 125.257428
L 431.211004 125.505353
L 432.430898 125.373466
L 434.870687 125.658411
L 436.090581 125.547299
L 442.190053 125.931324
L 443.409947 126.245619
L 444.629842 126.15979
L 445.849736 126.215377
L 448.289525 126.582501
L 451.949208 127.051804
L 458.048679 128.099204
L 459.268574 128.414744
L 461.708362 128.813077
L 470.247623 131.087033
L 471.467517 131.571935
L 475.1272 132.663171
L 478.786883 133.876892
L 481.226672 134.908283
L 482.446566 135.34875
L 483.66646 135.925449
L 486.106249 136.813305
L 489.765932 138.617559
L 490.985826 139.281231
L 492.205721 139.69798
L 503.18477 145.561191
L 504.404664 146.476344
L 505.624558 146.996029
L 509.284241 149.354288
L 510.504136 149.940371
L 525.142868 159.697969
L 527.582656 161.470184
L 530.022445 163.136861
L 531.242339 163.974804
L 532.462234 165.046335
L 533.682128 165.695495
L 538.561705 169.26649
L 544.661177 173.400772
L 545.881071 174.403977
L 547.100966 175.103504
L 548.32086 176.058158
L 550.760649 177.677143
L 551.980543 178.576262
L 553.200437 179.281357
L 555.640226 180.981968
L 566.619275 187.925575
L 567.839169 188.407232
L 570.278958 189.857828
L 573.938641 191.756699
L 575.158535 192.300033
L 576.37843 193.04971
L 584.91769 196.823656
L 587.357479 197.775468
L 588.577373 198.114276
L 591.017162 198.999613
L 592.237056 199.31347
L 593.45695 199.812952
L 597.116633 200.713911
L 600.776316 201.455696
L 601.996211 201.833201
L 605.655894 202.194412
L 606.875788 202.459072
L 608.095682 202.546083
L 609.315577 202.478098
L 610.535471 202.733322
L 619.074731 202.620603
L 620.294626 202.355437
L 622.734414 202.142511
L 626.394097 201.455734
L 627.613992 201.453815
L 628.833886 201.004112
L 630.05378 200.794904
L 636.153252 199.11081
L 639.812935 197.835063
L 642.252724 196.842423
L 649.57209 193.752727
L 652.011878 192.406638
L 654.451667 191.032068
L 655.671561 190.356848
L 656.891456 189.846756
L 659.331244 188.31734
L 660.551139 187.636703
L 661.771033 186.758172
L 662.990927 186.160934
L 665.430716 184.511731
L 669.090399 182.256857
L 670.310293 181.246982
L 671.530188 180.635349
L 673.969976 178.782116
L 680.069448 174.336329
L 681.289342 173.426551
L 682.509237 172.687726
L 684.949025 170.796788
L 686.16892 169.954932
L 692.268391 165.197852
L 700.807652 158.910903
L 702.027546 157.848488
L 703.24744 157.095122
L 704.467335 156.061292
L 708.127018 153.630033
L 709.346912 152.751744
L 710.566806 151.682208
L 711.786701 150.87029
L 713.006595 150.25107
L 714.226489 149.191124
L 727.645327 140.92769
L 728.865221 140.401742
L 733.744799 137.783498
L 734.964693 137.179384
L 736.184587 136.787353
L 737.404482 135.990972
L 741.064165 134.680486
L 742.284059 134.100559
L 744.723848 133.317484
L 745.943742 132.774353
L 747.163636 132.382985
L 747.163636 132.382985
" style="fill:none;stroke:#9c27b0;stroke-linecap:round;stroke-width:2;"></path>
</g>
<g id="line2d_2">
<path class="squiggle" clip-path="url(#pe0dedcd5ed)" d="M 138.436364 249.26834
L 143.315941 250.886916
L 146.975624 251.930335
L 148.195518 252.168779
L 150.635307 252.914112
L 156.734779 254.106986
L 157.954673 254.195903
L 159.174567 254.457914
L 160.394462 254.481872
L 162.83425 254.777239
L 165.274039 254.861184
L 166.493933 255.022581
L 175.033194 254.519412
L 178.692877 254.132172
L 179.912771 253.964756
L 181.132665 253.635751
L 183.572454 253.239828
L 184.792348 252.885711
L 186.012243 252.683854
L 189.671926 251.621291
L 192.111714 250.869409
L 193.331609 250.37745
L 195.771397 249.572835
L 196.991292 248.981299
L 198.211186 248.707095
L 199.43108 247.989474
L 200.650975 247.587545
L 201.870869 246.89577
L 206.750446 244.696569
L 210.410129 242.719837
L 212.849918 241.206375
L 215.289707 239.965021
L 216.509601 239.072671
L 217.729495 238.445328
L 225.048861 233.633331
L 232.368227 228.298397
L 233.588122 227.2436
L 237.247805 224.573575
L 239.687593 222.741126
L 240.907488 221.898659
L 253.106431 211.690024
L 255.54622 209.635364
L 256.766114 208.509743
L 257.986008 207.644255
L 260.425797 205.466098
L 261.645691 204.492889
L 262.865586 203.246586
L 266.525269 200.307447
L 268.965057 197.991694
L 270.184952 197.149788
L 272.62474 194.904431
L 282.383895 186.596294
L 288.483367 181.469721
L 289.703261 180.55796
L 292.14305 178.534628
L 303.122099 169.840398
L 304.341993 169.017204
L 308.001676 166.181864
L 309.22157 165.454426
L 310.441465 164.304196
L 312.881253 162.662606
L 314.101148 161.623005
L 315.321042 160.945493
L 322.640408 155.890428
L 325.080197 154.341666
L 326.300091 153.493353
L 327.519985 152.887768
L 329.959774 151.307565
L 337.27914 147.036117
L 338.499034 146.427479
L 339.718929 145.6258
L 342.158717 144.475479
L 343.378612 143.726095
L 344.598506 143.242596
L 347.038295 141.901893
L 356.797449 137.498655
L 364.116815 134.783788
L 365.33671 134.490924
L 368.996393 133.161185
L 373.87597 131.856131
L 375.095864 131.402742
L 377.535653 130.977407
L 379.975442 130.291451
L 381.195336 130.210054
L 382.41523 129.823073
L 384.855019 129.404224
L 386.074913 129.103767
L 387.294808 128.991962
L 388.514702 128.7276
L 390.954491 128.456549
L 394.614174 128.066987
L 395.834068 128.079872
L 398.273857 127.76908
L 399.493751 127.776221
L 400.713645 127.646733
L 401.93354 127.708291
L 403.153434 127.408521
L 404.373328 127.610708
L 410.4728 127.885661
L 411.692694 127.808019
L 417.792166 128.289381
L 419.01206 128.583853
L 420.231955 128.63145
L 422.671743 128.945255
L 425.111532 129.35566
L 428.771215 130.100409
L 438.53037 132.330682
L 440.970158 133.126986
L 445.849736 134.526751
L 453.169102 137.03692
L 454.388996 137.540656
L 456.828785 138.355549
L 459.268574 139.552398
L 460.488468 139.739066
L 461.708362 140.337387
L 462.928257 140.706275
L 464.148151 141.353643
L 472.687411 144.917329
L 473.907306 145.645565
L 475.1272 145.977627
L 481.226672 148.659904
L 482.446566 149.329684
L 503.18477 158.463347
L 506.844453 159.971019
L 514.163819 162.953702
L 516.603607 163.802198
L 517.823502 164.305004
L 521.483185 165.505178
L 522.703079 166.034263
L 523.922973 166.384397
L 525.142868 166.60765
L 526.362762 167.127502
L 533.682128 169.248256
L 538.561705 170.439631
L 543.441283 171.489593
L 545.881071 171.882181
L 547.100966 172.183918
L 548.32086 172.333416
L 549.540754 172.755763
L 550.760649 172.675788
L 551.980543 172.969643
L 553.200437 173.114845
L 554.420332 173.139698
L 555.640226 173.359197
L 565.399381 174.04467
L 569.059064 174.001158
L 570.278958 174.102749
L 577.598324 173.862741
L 578.818218 173.733577
L 580.038113 173.857187
L 587.357479 173.01059
L 589.797267 172.823261
L 591.017162 172.497386
L 593.45695 172.228783
L 594.676845 172.134118
L 597.116633 171.721626
L 598.336528 171.649995
L 601.996211 170.922129
L 603.216105 170.779658
L 604.435999 170.462857
L 609.315577 169.679838
L 615.415048 168.319183
L 619.074731 167.647379
L 621.51452 167.139754
L 623.954309 166.541891
L 627.613992 165.866253
L 628.833886 165.42966
L 630.05378 165.303194
L 631.273675 164.957388
L 632.493569 164.864575
L 634.933358 164.103119
L 636.153252 163.949764
L 639.812935 163.134695
L 641.032829 162.867375
L 643.472618 162.54908
L 645.912407 161.847676
L 650.791984 160.899404
L 653.231773 160.411566
L 658.11135 159.396444
L 659.331244 159.258722
L 660.551139 158.92172
L 661.771033 158.890582
L 666.65061 157.87157
L 673.969976 156.810459
L 676.409765 156.243986
L 681.289342 155.661988
L 682.509237 155.288505
L 683.729131 155.266983
L 684.949025 154.986209
L 688.608708 154.64675
L 689.828603 154.328815
L 692.268391 154.180181
L 693.488286 153.677341
L 694.70818 153.784096
L 695.928074 153.393464
L 698.367863 153.182741
L 700.807652 152.676584
L 703.24744 152.569774
L 704.467335 152.211911
L 719.106067 150.067472
L 720.325961 149.793333
L 721.545855 149.693948
L 727.645327 148.623336
L 728.865221 148.531357
L 730.085116 148.119118
L 732.524904 147.762664
L 733.744799 147.326316
L 734.964693 147.211552
L 736.184587 146.836181
L 737.404482 146.7217
L 744.723848 144.976443
L 745.943742 144.746679
L 747.163636 144.380612
L 747.163636 144.380612
" style="fill:none;stroke:#5e97f6;stroke-linecap:round;stroke-width:2;"></path>
</g>
<g id="line2d_3">
<path class="squiggle" clip-path="url(#pe0dedcd5ed)" d="M 138.436364 302.645455
L 139.656258 302.57154
L 142.096047 302.022398
L 143.315941 301.869047
L 151.855201 299.568815
L 156.734779 297.976008
L 164.054145 295.050628
L 166.493933 293.883113
L 167.713828 293.374707
L 168.933722 292.679434
L 170.153616 292.180871
L 173.813299 290.119526
L 176.253088 288.800708
L 181.132665 285.896855
L 190.89182 279.349929
L 198.211186 273.779417
L 209.190235 264.672636
L 210.410129 263.618957
L 211.630024 262.401976
L 215.289707 259.3096
L 218.94939 255.876848
L 220.169284 254.852405
L 223.828967 251.224774
L 226.268756 248.97566
L 228.708544 246.538396
L 237.247805 238.347149
L 238.467699 236.914574
L 240.907488 234.717381
L 243.347276 232.163537
L 244.567171 230.945
L 245.787065 229.888713
L 248.226854 227.403046
L 250.666642 225.04049
L 253.106431 222.600546
L 256.766114 219.079627
L 261.645691 214.340192
L 271.404846 205.292851
L 273.844635 203.109742
L 275.064529 202.225409
L 277.504318 199.85395
L 278.724212 198.821981
L 281.164001 196.947954
L 282.383895 195.749033
L 284.823684 193.807169
L 286.043578 192.743887
L 289.703261 190.021904
L 293.362944 187.079245
L 300.68231 181.758523
L 301.902204 181.135099
L 304.341993 179.315564
L 308.001676 177.118491
L 309.22157 176.240578
L 310.441465 175.506676
L 311.661359 174.98335
L 312.881253 174.058652
L 320.200619 170.071811
L 322.640408 168.964432
L 325.080197 167.693591
L 328.73988 165.981887
L 336.059246 162.828606
L 338.499034 161.908385
L 339.718929 161.33224
L 342.158717 160.45745
L 344.598506 159.675768
L 347.038295 158.968435
L 348.258189 158.411267
L 349.478083 158.12495
L 351.917872 157.335432
L 355.577555 156.423452
L 358.017344 155.623665
L 359.237238 155.419327
L 360.457132 154.960247
L 362.896921 154.410638
L 365.33671 153.721807
L 366.556604 153.482229
L 368.996393 152.826821
L 371.436181 152.432368
L 372.656076 152.115724
L 373.87597 151.921424
L 376.315759 151.24361
L 377.535653 151.111621
L 387.294808 149.071636
L 388.514702 149.010944
L 389.734596 148.816862
L 390.954491 148.483475
L 393.394279 148.099554
L 394.614174 147.822829
L 395.834068 147.670548
L 397.053962 147.370521
L 398.273857 147.256511
L 399.493751 147.015737
L 400.713645 146.968379
L 403.153434 146.419281
L 411.692694 145.273731
L 412.912589 145.052387
L 415.352377 144.852087
L 417.792166 144.518275
L 421.451849 144.067656
L 434.870687 143.026532
L 436.090581 143.074501
L 437.310475 142.976197
L 438.53037 143.012582
L 439.750264 142.880913
L 442.190053 142.94807
L 450.729313 143.085318
L 454.388996 143.374347
L 455.608891 143.451287
L 459.268574 144.041851
L 460.488468 144.047767
L 471.467517 146.09362
L 472.687411 146.528759
L 473.907306 146.689735
L 481.226672 149.002012
L 482.446566 149.301101
L 483.66646 149.928157
L 484.886355 150.264704
L 488.546038 151.701738
L 489.765932 152.265064
L 492.205721 153.125974
L 494.645509 154.377731
L 504.404664 159.241303
L 514.163819 164.806217
L 515.383713 165.60737
L 517.823502 166.951651
L 520.26329 168.490438
L 525.142868 171.509205
L 526.362762 172.188345
L 527.582656 173.075273
L 528.802551 173.651258
L 531.242339 175.165406
L 532.462234 176.124241
L 534.902022 177.459665
L 536.121917 178.365196
L 537.341811 178.911763
L 538.561705 179.723371
L 541.001494 181.155372
L 547.100966 184.716462
L 548.32086 185.306014
L 550.760649 186.805644
L 551.980543 187.28359
L 553.200437 188.046225
L 555.640226 189.089115
L 558.080015 190.372855
L 560.519803 191.371122
L 561.739698 191.943176
L 564.179486 192.831501
L 565.399381 193.38593
L 566.619275 193.702945
L 567.839169 194.260039
L 571.498852 195.444625
L 577.598324 196.822635
L 581.258007 197.467634
L 587.357479 197.991291
L 588.577373 197.845348
L 591.017162 198.008898
L 599.556422 196.867165
L 603.216105 196.085269
L 604.435999 195.767
L 605.655894 195.295138
L 606.875788 194.97573
L 608.095682 194.342857
L 609.315577 194.052729
L 612.97526 192.526737
L 620.294626 188.83378
L 621.51452 187.934779
L 625.174203 185.819096
L 627.613992 183.861866
L 628.833886 183.084488
L 633.713463 179.461705
L 634.933358 178.285188
L 637.373146 176.326253
L 644.692512 169.855769
L 645.912407 168.513773
L 647.132301 167.389049
L 648.352195 166.097706
L 649.57209 165.025756
L 654.451667 159.944383
L 658.11135 155.971467
L 659.331244 154.837543
L 661.771033 152.030265
L 664.210822 149.366666
L 666.65061 146.481634
L 670.310293 142.466719
L 671.530188 140.892615
L 677.629659 133.927546
L 682.509237 128.076769
L 683.729131 126.83786
L 687.388814 122.347798
L 691.048497 118.225144
L 692.268391 116.720279
L 693.488286 115.425008
L 695.928074 112.567826
L 699.587757 108.388251
L 700.807652 106.975546
L 703.24744 104.374245
L 714.226489 92.680995
L 719.106067 88.005389
L 720.325961 86.697116
L 730.085116 77.774637
L 732.524904 75.971046
L 734.964693 73.857484
L 738.624376 70.933933
L 742.284059 68.474581
L 743.503953 67.446299
L 745.943742 65.71641
L 747.163636 65.056414
L 747.163636 65.056414
" style="fill:none;stroke:#9c27b0;stroke-linecap:round;stroke-width:2;"></path>
</g>
<g id="line2d_4">
<path class="squiggle" clip-path="url(#pe0dedcd5ed)" d="M 138.436364 228.306018
L 142.096047 231.22246
L 145.75573 234.052435
L 149.415413 236.694447
L 150.635307 237.784854
L 151.855201 238.587464
L 153.075096 239.25523
L 155.514884 241.057341
L 161.614356 244.983841
L 162.83425 245.541528
L 167.713828 248.287715
L 170.153616 249.562291
L 177.472982 252.697247
L 182.35256 254.39834
L 186.012243 255.405453
L 189.671926 256.146901
L 193.331609 256.573006
L 195.771397 256.894499
L 196.991292 256.960607
L 198.211186 256.88621
L 200.650975 257.013906
L 201.870869 256.854088
L 203.090763 256.898924
L 204.310658 256.697341
L 205.530552 256.669573
L 210.410129 255.922758
L 211.630024 255.707664
L 214.069812 254.981074
L 216.509601 254.406067
L 217.729495 253.924348
L 218.94939 253.601042
L 220.169284 253.05701
L 221.389178 252.731338
L 222.609073 252.12579
L 226.268756 250.596085
L 233.588122 246.60916
L 236.02791 245.065047
L 237.247805 244.205191
L 238.467699 243.482092
L 239.687593 242.553715
L 242.127382 240.930934
L 248.226854 236.451295
L 249.446748 235.250951
L 253.106431 232.350369
L 254.326325 231.078893
L 255.54622 230.186238
L 261.645691 224.519032
L 264.08548 222.257136
L 265.305374 220.965015
L 268.965057 217.4891
L 282.383895 203.699472
L 287.263472 198.497824
L 292.14305 193.325299
L 295.802733 189.398329
L 301.902204 183.012911
L 306.781782 178.05545
L 312.881253 171.945575
L 317.760831 167.330232
L 320.200619 164.955494
L 323.860302 161.637928
L 325.080197 160.509832
L 327.519985 158.433319
L 328.73988 157.230343
L 329.959774 156.330448
L 333.619457 153.161585
L 342.158717 146.702785
L 344.598506 145.00565
L 345.8184 143.992099
L 347.038295 143.310188
L 349.478083 141.536444
L 350.697978 140.871268
L 351.917872 140.015878
L 354.357661 138.641614
L 355.577555 137.79703
L 356.797449 137.101341
L 358.017344 136.637265
L 359.237238 135.794138
L 368.996393 131.121997
L 371.436181 130.066003
L 373.87597 129.161917
L 376.315759 128.161119
L 377.535653 127.819732
L 378.755547 127.297891
L 381.195336 126.626176
L 382.41523 126.007997
L 383.635125 125.889316
L 387.294808 124.876042
L 388.514702 124.580673
L 389.734596 124.473025
L 390.954491 124.045726
L 403.153434 122.196666
L 410.4728 121.836361
L 411.692694 121.819485
L 412.912589 121.68208
L 414.132483 121.75627
L 415.352377 121.70455
L 416.572272 121.862112
L 419.01206 121.91975
L 421.451849 122.017111
L 427.551321 122.466687
L 429.991109 122.846263
L 431.211004 122.861884
L 432.430898 123.167645
L 437.310475 123.982264
L 438.53037 124.264402
L 439.750264 124.26938
L 440.970158 124.713248
L 445.849736 125.799931
L 447.06963 125.9457
L 448.289525 126.551354
L 449.509419 126.705099
L 451.949208 127.441012
L 453.169102 127.847238
L 454.388996 128.06449
L 460.488468 130.139189
L 461.708362 130.441901
L 466.58794 132.38602
L 467.807834 132.740137
L 478.786883 137.146855
L 480.006777 137.780083
L 482.446566 138.702783
L 486.106249 140.374486
L 488.546038 141.547668
L 490.985826 142.714078
L 493.425615 143.748896
L 494.645509 144.419172
L 495.865404 144.8919
L 500.744981 147.366736
L 503.18477 148.404422
L 510.504136 151.999407
L 515.383713 154.319238
L 519.043396 155.896276
L 522.703079 157.641914
L 533.682128 162.307489
L 534.902022 162.627237
L 538.561705 164.112
L 539.7816 164.423433
L 541.001494 164.932004
L 543.441283 165.690465
L 547.100966 166.76082
L 550.760649 167.884382
L 551.980543 168.049177
L 553.200437 168.425594
L 555.640226 168.829158
L 556.86012 169.277386
L 558.080015 169.50315
L 560.519803 169.792539
L 561.739698 170.076204
L 562.959592 170.16739
L 564.179486 170.493703
L 566.619275 170.674003
L 567.839169 170.931375
L 569.059064 171.065841
L 570.278958 171.035965
L 572.718747 171.236942
L 578.818218 171.328553
L 581.258007 171.282695
L 582.477901 171.367439
L 583.697796 171.172734
L 586.137584 171.196672
L 587.357479 170.876662
L 588.577373 170.919932
L 589.797267 170.716473
L 592.237056 170.551187
L 600.776316 169.293873
L 606.875788 168.105899
L 610.535471 167.206301
L 611.755365 167.088607
L 619.074731 165.506102
L 621.51452 164.888449
L 625.174203 163.976583
L 626.394097 163.772845
L 627.613992 163.361082
L 631.273675 162.581161
L 632.493569 162.282081
L 633.713463 162.147914
L 634.933358 161.891792
L 636.153252 161.429106
L 637.373146 161.321989
L 638.593041 160.961171
L 648.352195 159.272491
L 654.451667 158.505766
L 655.671561 158.207941
L 656.891456 158.391912
L 659.331244 158.137541
L 660.551139 158.167658
L 662.990927 158.009161
L 672.750082 158.120399
L 682.509237 159.280029
L 683.729131 159.546634
L 684.949025 159.596662
L 686.16892 159.954343
L 689.828603 160.574446
L 691.048497 161.107303
L 693.488286 161.573922
L 695.928074 162.176371
L 697.147969 162.434796
L 699.587757 163.208431
L 703.24744 164.483601
L 704.467335 164.757708
L 705.687229 165.27604
L 706.907123 165.621967
L 708.127018 166.160837
L 709.346912 166.502115
L 716.666278 169.42396
L 717.886172 169.746206
L 720.325961 170.83056
L 721.545855 171.199005
L 722.76575 171.813351
L 723.985644 172.269458
L 725.205538 172.599747
L 726.425433 173.366148
L 731.30501 175.228586
L 732.524904 175.747527
L 733.744799 176.02923
L 734.964693 176.757417
L 743.503953 180.045623
L 744.723848 180.474199
L 745.943742 181.081286
L 747.163636 181.450205
L 747.163636 181.450205
" style="fill:none;stroke:#25a69a;stroke-linecap:round;stroke-width:2;"></path>
</g>
<g id="line2d_5">
<path class="squiggle" clip-path="url(#pe0dedcd5ed)" d="M 138.436364 251.288303
L 142.096047 253.293898
L 143.315941 254.101201
L 145.75573 255.366611
L 146.975624 256.009954
L 149.415413 257.099528
L 153.075096 258.705789
L 156.734779 260.02328
L 157.954673 260.38111
L 159.174567 260.898489
L 160.394462 261.149149
L 162.83425 261.821216
L 167.713828 262.889654
L 168.933722 262.902915
L 170.153616 263.203149
L 172.593405 263.440603
L 177.472982 263.712246
L 179.912771 263.622891
L 182.35256 263.628777
L 183.572454 263.313207
L 184.792348 263.329273
L 186.012243 263.209234
L 188.452031 262.639263
L 189.671926 262.551871
L 194.551503 261.48674
L 195.771397 260.96346
L 196.991292 260.694781
L 204.310658 258.006749
L 212.849918 254.011002
L 215.289707 252.358566
L 220.169284 249.602791
L 221.389178 248.729558
L 222.609073 248.019829
L 223.828967 247.172894
L 225.048861 246.187368
L 226.268756 245.479718
L 232.368227 241.038379
L 237.247805 237.120334
L 240.907488 234.136358
L 242.127382 233.273053
L 251.886537 224.570383
L 253.106431 223.60901
L 256.766114 220.049825
L 259.205903 217.853501
L 260.425797 216.666671
L 261.645691 215.681156
L 272.62474 205.058413
L 276.284423 201.572042
L 289.703261 188.841945
L 295.802733 183.109756
L 297.022627 182.159341
L 298.242521 180.954371
L 301.902204 177.736872
L 305.561887 174.487743
L 309.22157 171.268271
L 311.661359 169.39158
L 312.881253 168.284811
L 314.101148 167.388654
L 316.540936 165.384726
L 318.980725 163.44713
L 323.860302 159.933285
L 325.080197 158.840488
L 327.519985 157.182953
L 331.179668 154.668323
L 337.27914 150.825704
L 345.8184 145.900825
L 349.478083 144.128062
L 350.697978 143.590356
L 353.137766 142.228385
L 354.357661 141.83264
L 356.797449 140.811013
L 360.457132 139.354868
L 361.677027 139.030335
L 362.896921 138.352725
L 364.116815 138.0474
L 365.33671 137.569092
L 367.776498 136.849032
L 376.315759 134.539529
L 384.855019 133.110213
L 390.954491 132.500065
L 395.834068 132.299417
L 397.053962 132.33724
L 398.273857 132.044571
L 399.493751 132.143062
L 400.713645 131.992361
L 405.593223 132.239347
L 412.912589 132.717235
L 421.451849 133.782276
L 423.891638 134.361358
L 425.111532 134.47335
L 431.211004 135.723493
L 432.430898 136.108124
L 433.650792 136.359594
L 437.310475 137.434238
L 438.53037 137.574349
L 440.970158 138.283919
L 442.190053 138.776096
L 443.409947 139.036826
L 450.729313 141.32735
L 451.949208 141.888847
L 453.169102 142.250252
L 454.388996 142.743602
L 456.828785 143.590739
L 458.048679 143.965973
L 460.488468 145.019032
L 464.148151 146.339998
L 466.58794 147.505639
L 467.807834 147.926833
L 469.027728 148.503226
L 470.247623 148.890237
L 473.907306 150.496221
L 476.347094 151.692335
L 477.566989 152.128085
L 478.786883 152.781963
L 480.006777 153.213745
L 482.446566 154.481024
L 484.886355 155.496392
L 486.106249 156.19358
L 489.765932 157.764555
L 505.624558 165.282055
L 506.844453 165.845953
L 508.064347 166.595933
L 509.284241 166.934487
L 511.72403 168.2128
L 512.943924 168.617096
L 514.163819 169.206923
L 515.383713 169.561498
L 519.043396 171.380336
L 521.483185 172.292538
L 522.703079 172.922991
L 530.022445 175.693295
L 534.902022 177.420909
L 536.121917 177.867506
L 538.561705 178.436212
L 539.7816 178.998502
L 542.221388 179.601222
L 543.441283 179.849276
L 544.661177 180.376412
L 545.881071 180.429177
L 547.100966 180.850771
L 548.32086 181.054204
L 549.540754 181.385364
L 551.980543 181.749545
L 554.420332 182.23165
L 556.86012 182.489483
L 558.080015 182.775713
L 569.059064 183.252735
L 570.278958 183.103536
L 572.718747 183.12867
L 573.938641 182.819423
L 575.158535 182.805445
L 576.37843 182.662423
L 577.598324 182.680027
L 578.818218 182.388572
L 580.038113 182.293202
L 587.357479 180.827026
L 589.797267 180.169457
L 591.017162 179.973937
L 592.237056 179.490323
L 593.45695 179.218888
L 597.116633 177.855341
L 599.556422 176.99316
L 601.996211 176.052009
L 603.216105 175.46297
L 604.435999 175.192532
L 606.875788 173.890648
L 608.095682 173.468097
L 609.315577 172.706499
L 610.535471 172.287806
L 612.97526 170.965962
L 621.51452 166.362034
L 622.734414 165.508281
L 623.954309 164.867466
L 625.174203 164.078269
L 626.394097 163.446701
L 634.933358 157.842028
L 636.153252 157.233818
L 637.373146 156.416287
L 638.593041 155.394447
L 641.032829 153.936563
L 642.252724 153.000855
L 643.472618 152.378987
L 644.692512 151.320597
L 647.132301 149.743961
L 650.791984 147.208781
L 652.011878 146.450803
L 653.231773 145.481207
L 656.891456 143.051001
L 660.551139 140.58618
L 661.771033 139.686317
L 664.210822 138.237001
L 665.430716 137.384267
L 667.870505 135.950852
L 670.310293 134.27948
L 672.750082 132.820544
L 675.189871 131.279046
L 676.409765 130.65953
L 678.849554 129.124003
L 680.069448 128.544676
L 686.16892 125.064842
L 687.388814 124.56951
L 688.608708 123.771983
L 689.828603 123.245503
L 691.048497 122.504641
L 692.268391 121.907521
L 693.488286 121.494628
L 694.70818 120.818668
L 702.027546 117.638189
L 703.24744 117.313111
L 704.467335 116.736341
L 708.127018 115.524066
L 709.346912 115.20632
L 710.566806 114.66783
L 711.786701 114.315658
L 713.006595 113.819479
L 714.226489 113.702985
L 715.446384 113.220924
L 716.666278 112.886901
L 717.886172 112.694139
L 722.76575 111.539319
L 730.085116 110.340685
L 732.524904 110.189548
L 733.744799 109.930044
L 736.184587 109.772191
L 738.624376 109.639585
L 739.84427 109.75474
L 741.064165 109.448001
L 742.284059 109.566031
L 743.503953 109.47754
L 744.723848 109.584262
L 747.163636 109.516092
L 747.163636 109.516092
" style="fill:none;stroke:#25a69a;stroke-linecap:round;stroke-width:2;"></path>
</g>
<g id="line2d_6">
<path class="squiggle" clip-path="url(#pe0dedcd5ed)" d="M 138.436364 269.12611
L 140.876152 268.688672
L 143.315941 267.922144
L 145.75573 267.413205
L 146.975624 266.834624
L 149.415413 266.140374
L 150.635307 265.584459
L 153.075096 264.803486
L 157.954673 262.714071
L 165.274039 259.354203
L 176.253088 253.397368
L 177.472982 252.576782
L 182.35256 249.784964
L 184.792348 248.046135
L 187.232137 246.763597
L 188.452031 245.881327
L 190.89182 244.37211
L 193.331609 242.655981
L 198.211186 239.522767
L 199.43108 238.577153
L 200.650975 237.873058
L 201.870869 236.911377
L 204.310658 235.341628
L 205.530552 234.620313
L 207.970341 232.826791
L 209.190235 232.171956
L 211.630024 230.345546
L 212.849918 229.593615
L 214.069812 228.641791
L 216.509601 227.024465
L 225.048861 221.114774
L 228.708544 218.668855
L 229.928439 217.738494
L 231.148333 217.079424
L 232.368227 216.15131
L 234.808016 214.664964
L 236.02791 213.688153
L 247.006959 206.379134
L 250.666642 203.970742
L 255.54622 200.726866
L 256.766114 200.047393
L 260.425797 197.510792
L 262.865586 196.04094
L 264.08548 195.127182
L 266.525269 193.597736
L 268.965057 191.993675
L 273.844635 188.800467
L 277.504318 186.406497
L 279.944106 184.775599
L 281.164001 184.093809
L 286.043578 180.814902
L 287.263472 179.819977
L 288.483367 179.149103
L 314.101148 161.448902
L 316.540936 159.593626
L 317.760831 158.823286
L 321.420514 156.091226
L 326.300091 152.645312
L 329.959774 149.994947
L 337.27914 144.834968
L 339.718929 143.17289
L 344.598506 139.732094
L 349.478083 136.43634
L 353.137766 134.126419
L 355.577555 132.548208
L 364.116815 127.376124
L 366.556604 125.994925
L 367.776498 125.269428
L 368.996393 124.720832
L 370.216287 124.006825
L 371.436181 123.45983
L 373.87597 122.153463
L 382.41523 118.380331
L 383.635125 117.975109
L 386.074913 116.966488
L 388.514702 116.247902
L 389.734596 115.953841
L 390.954491 115.377597
L 392.174385 115.239708
L 395.834068 114.252507
L 397.053962 114.057346
L 399.493751 113.41588
L 400.713645 113.451937
L 401.93354 113.01015
L 404.373328 112.70668
L 405.593223 112.802128
L 409.252906 112.353452
L 410.4728 112.45204
L 412.912589 112.234192
L 415.352377 112.470267
L 419.01206 112.631881
L 420.231955 112.831465
L 421.451849 112.762251
L 422.671743 113.037443
L 423.891638 113.1618
L 425.111532 113.447494
L 426.331426 113.520893
L 427.551321 113.853682
L 429.991109 114.224318
L 431.211004 114.736106
L 432.430898 114.861174
L 434.870687 115.653696
L 437.310475 116.263346
L 438.53037 116.651537
L 439.750264 117.213066
L 442.190053 117.981187
L 444.629842 118.819895
L 445.849736 119.408235
L 447.06963 119.834213
L 450.729313 121.476151
L 451.949208 121.937191
L 453.169102 122.680323
L 455.608891 123.731247
L 460.488468 126.269806
L 461.708362 126.811295
L 462.928257 127.683512
L 464.148151 128.238745
L 473.907306 133.907221
L 475.1272 134.821284
L 476.347094 135.439901
L 480.006777 137.894434
L 482.446566 139.301384
L 486.106249 141.738954
L 488.546038 143.370033
L 489.765932 144.288024
L 490.985826 145.037899
L 492.205721 145.924245
L 493.425615 146.655171
L 495.865404 148.43902
L 497.085298 149.149507
L 500.744981 151.773828
L 501.964875 152.44974
L 505.624558 155.194178
L 506.844453 155.919927
L 511.72403 159.509628
L 514.163819 161.054629
L 516.603607 162.757988
L 526.362762 169.594255
L 527.582656 170.539005
L 534.902022 175.435132
L 536.121917 176.347537
L 538.561705 177.82578
L 541.001494 179.64568
L 543.441283 181.04292
L 545.881071 182.68459
L 550.760649 185.723443
L 554.420332 187.90916
L 558.080015 190.244084
L 560.519803 191.449316
L 561.739698 192.247911
L 565.399381 194.176089
L 566.619275 194.902386
L 569.059064 195.979355
L 570.278958 196.765083
L 571.498852 197.182228
L 572.718747 197.929069
L 578.818218 200.612995
L 580.038113 201.101585
L 581.258007 201.745131
L 582.477901 202.079772
L 584.91769 203.056429
L 587.357479 203.923761
L 588.577373 204.428782
L 591.017162 204.987427
L 592.237056 205.444705
L 597.116633 206.654445
L 599.556422 207.106909
L 600.776316 207.544664
L 601.996211 207.55241
L 605.655894 208.108468
L 614.195154 208.421173
L 619.074731 208.28199
L 627.613992 206.965273
L 634.933358 204.959625
L 636.153252 204.609559
L 644.692512 201.126448
L 647.132301 199.884533
L 648.352195 199.122004
L 650.791984 197.994959
L 656.891456 194.509791
L 658.11135 193.525663
L 660.551139 192.040382
L 661.771033 191.098044
L 662.990927 190.516477
L 667.870505 186.818783
L 669.090399 185.977552
L 670.310293 184.938268
L 672.750082 183.306148
L 675.189871 181.400715
L 680.069448 177.510386
L 681.289342 176.440785
L 682.509237 175.549737
L 686.16892 172.547182
L 687.388814 171.520195
L 688.608708 170.654955
L 691.048497 168.500675
L 694.70818 165.503191
L 695.928074 164.693943
L 697.147969 163.350354
L 698.367863 162.629878
L 699.587757 161.476824
L 700.807652 160.58014
L 702.027546 159.508049
L 705.687229 156.75555
L 706.907123 155.62978
L 708.127018 154.868853
L 711.786701 152.06975
L 714.226489 150.420986
L 715.446384 149.503525
L 717.886172 147.92571
L 719.106067 146.962429
L 726.425433 142.488911
L 732.524904 139.088251
L 733.744799 138.681934
L 736.184587 137.501374
L 738.624376 136.387089
L 739.84427 135.899405
L 741.064165 135.602728
L 744.723848 134.16169
L 747.163636 133.517673
L 747.163636 133.517673
" style="fill:none;stroke:#5e97f6;stroke-linecap:round;stroke-width:2;"></path>
</g>
<g id="line2d_7">
<path class="squiggle" clip-path="url(#pe0dedcd5ed)" d="M 138.436364 229.873162
L 139.656258 230.23417
L 142.096047 230.622133
L 144.535835 231.22923
L 145.75573 231.486221
L 146.975624 231.857829
L 148.195518 232.034849
L 149.415413 232.077383
L 150.635307 232.623198
L 151.855201 232.680316
L 153.075096 233.089169
L 154.29499 233.255126
L 159.174567 234.518497
L 160.394462 234.658044
L 161.614356 235.034582
L 164.054145 235.457478
L 165.274039 235.922125
L 166.493933 236.119505
L 171.373511 237.457482
L 173.813299 237.887308
L 177.472982 238.839832
L 184.792348 240.544756
L 186.012243 240.852033
L 188.452031 241.21131
L 189.671926 241.526901
L 190.89182 241.608931
L 193.331609 242.202201
L 196.991292 242.677919
L 199.43108 243.08936
L 201.870869 243.305036
L 203.090763 243.638432
L 216.509601 244.317821
L 218.94939 244.06973
L 220.169284 244.066778
L 223.828967 243.747381
L 225.048861 243.68373
L 229.928439 242.855343
L 231.148333 242.807089
L 233.588122 242.036785
L 236.02791 241.450326
L 237.247805 241.262309
L 245.787065 238.270915
L 249.446748 236.715236
L 250.666642 236.092131
L 251.886537 235.675088
L 255.54622 233.665366
L 256.766114 232.958054
L 257.986008 232.499042
L 270.184952 224.523181
L 271.404846 223.515989
L 273.844635 221.790231
L 276.284423 219.824669
L 279.944106 216.968879
L 281.164001 215.944947
L 282.383895 214.757579
L 284.823684 212.704986
L 287.263472 210.668763
L 288.483367 209.424878
L 292.14305 206.188149
L 294.582838 203.955453
L 295.802733 202.974182
L 297.022627 201.608053
L 298.242521 200.618435
L 299.462416 199.296
L 309.22157 190.006007
L 320.200619 179.346906
L 322.640408 177.08695
L 325.080197 174.6366
L 336.059246 164.654299
L 339.718929 161.62454
L 342.158717 159.505437
L 350.697978 152.70946
L 354.357661 150.142894
L 356.797449 148.492963
L 359.237238 146.894091
L 361.677027 145.373831
L 364.116815 143.884004
L 366.556604 142.372261
L 368.996393 141.120098
L 370.216287 140.325615
L 371.436181 139.87713
L 376.315759 137.452856
L 384.855019 134.106497
L 386.074913 133.82433
L 389.734596 132.632536
L 398.273857 130.665831
L 399.493751 130.585185
L 401.93354 130.172973
L 406.813117 129.549233
L 408.033011 129.639632
L 409.252906 129.373943
L 411.692694 129.448699
L 414.132483 129.326676
L 415.352377 129.410903
L 416.572272 129.325672
L 419.01206 129.476222
L 420.231955 129.606855
L 422.671743 129.723371
L 429.991109 130.68087
L 434.870687 131.528657
L 436.090581 131.860881
L 437.310475 131.961426
L 438.53037 132.215924
L 443.409947 133.648127
L 445.849736 134.268083
L 455.608891 137.35538
L 456.828785 138.016345
L 459.268574 138.710492
L 464.148151 140.859297
L 465.368045 141.234527
L 467.807834 142.346426
L 469.027728 142.799622
L 471.467517 143.908725
L 473.907306 145.007507
L 475.1272 145.531707
L 477.566989 146.755204
L 488.546038 152.221872
L 498.305192 157.288085
L 500.744981 158.601031
L 503.18477 160.050012
L 506.844453 161.779061
L 509.284241 163.173585
L 522.703079 170.165513
L 523.922973 170.605817
L 526.362762 171.993801
L 528.802551 173.028337
L 531.242339 174.149022
L 532.462234 174.707342
L 533.682128 175.123493
L 537.341811 176.767843
L 538.561705 177.220606
L 541.001494 178.397428
L 542.221388 178.718017
L 544.661177 179.689484
L 549.540754 181.094898
L 550.760649 181.644565
L 551.980543 181.832661
L 555.640226 182.853119
L 558.080015 183.354111
L 559.299909 183.652682
L 562.959592 184.295238
L 564.179486 184.547009
L 565.399381 184.645614
L 566.619275 184.922188
L 567.839169 184.859079
L 569.059064 185.008923
L 570.278958 185.032209
L 571.498852 185.285316
L 572.718747 185.210295
L 575.158535 185.2581
L 581.258007 185.063506
L 582.477901 184.773184
L 584.91769 184.687759
L 586.137584 184.332001
L 587.357479 184.243473
L 591.017162 183.489531
L 592.237056 183.082808
L 593.45695 182.892689
L 597.116633 181.793083
L 598.336528 181.258918
L 599.556422 181.005292
L 601.996211 180.174714
L 610.535471 176.492995
L 611.755365 175.788469
L 612.97526 175.314664
L 614.195154 174.572226
L 615.415048 174.011314
L 616.634943 173.185259
L 617.854837 172.661129
L 619.074731 171.839933
L 621.51452 170.475401
L 622.734414 169.619527
L 623.954309 168.960693
L 628.833886 165.677277
L 631.273675 164.137694
L 634.933358 161.35552
L 637.373146 159.742284
L 642.252724 155.959852
L 643.472618 155.135352
L 645.912407 153.215238
L 652.011878 148.5162
L 653.231773 147.253514
L 654.451667 146.498357
L 656.891456 144.46722
L 661.771033 140.550001
L 664.210822 138.67855
L 676.409765 129.077101
L 680.069448 126.378526
L 683.729131 123.698283
L 684.949025 122.799878
L 686.16892 122.125138
L 687.388814 121.168728
L 694.70818 116.395545
L 705.687229 110.073727
L 714.226489 106.084478
L 715.446384 105.658277
L 716.666278 105.03818
L 722.76575 102.847214
L 723.985644 102.546719
L 726.425433 101.741469
L 728.865221 101.274424
L 731.30501 100.533065
L 733.744799 100.03399
L 738.624376 99.167303
L 741.064165 98.895472
L 745.943742 98.402146
L 747.163636 98.520832
L 747.163636 98.520832
" style="fill:none;stroke:#25a69a;stroke-linecap:round;stroke-width:2;"></path>
</g>
<g id="line2d_8">
<path class="squiggle" clip-path="url(#pe0dedcd5ed)" d="M 138.436364 202.746628
L 140.876152 204.490394
L 142.096047 205.474027
L 143.315941 206.285723
L 144.535835 207.333276
L 145.75573 208.096702
L 151.855201 212.618167
L 153.075096 213.416078
L 154.29499 214.393708
L 155.514884 215.160966
L 157.954673 217.036883
L 159.174567 217.82094
L 160.394462 218.77021
L 164.054145 221.253915
L 166.493933 222.973421
L 170.153616 225.329148
L 173.813299 227.791078
L 182.35256 232.934023
L 183.572454 233.548012
L 184.792348 234.290981
L 187.232137 235.446197
L 188.452031 236.279766
L 189.671926 236.669482
L 193.331609 238.32728
L 196.991292 239.955663
L 201.870869 241.752226
L 203.090763 242.023685
L 204.310658 242.519676
L 205.530552 242.693419
L 207.970341 243.445748
L 209.190235 243.580909
L 212.849918 244.371025
L 217.729495 244.961499
L 220.169284 245.058178
L 221.389178 245.12867
L 222.609073 245.062
L 223.828967 245.116653
L 229.928439 244.545197
L 232.368227 244.11575
L 233.588122 243.928826
L 234.808016 243.57422
L 236.02791 243.341965
L 238.467699 242.669989
L 239.687593 242.458542
L 240.907488 242.008561
L 242.127382 241.433059
L 243.347276 241.130941
L 244.567171 240.485488
L 247.006959 239.637969
L 248.226854 239.176392
L 256.766114 234.497163
L 261.645691 231.469015
L 267.745163 227.05846
L 268.965057 226.177607
L 270.184952 225.111986
L 271.404846 224.203038
L 275.064529 221.159076
L 277.504318 219.112313
L 281.164001 215.8024
L 282.383895 214.755859
L 286.043578 211.302184
L 287.263472 210.204943
L 288.483367 208.931451
L 290.923155 206.560995
L 293.362944 204.290804
L 294.582838 202.970637
L 295.802733 201.839752
L 298.242521 199.183701
L 299.462416 198.10141
L 301.902204 195.544739
L 305.561887 191.81714
L 310.441465 186.67798
L 311.661359 185.34079
L 312.881253 184.300744
L 315.321042 181.70393
L 317.760831 179.247379
L 318.980725 177.915654
L 320.200619 176.756725
L 323.860302 172.837822
L 325.080197 171.799297
L 327.519985 169.234999
L 328.73988 168.114958
L 329.959774 166.771953
L 332.399563 164.542909
L 336.059246 160.975499
L 342.158717 155.411284
L 343.378612 154.179145
L 344.598506 153.214786
L 347.038295 150.958816
L 349.478083 148.995793
L 350.697978 147.783179
L 353.137766 145.878174
L 355.577555 143.961
L 356.797449 143.101549
L 359.237238 141.038134
L 360.457132 140.326714
L 361.677027 139.173005
L 370.216287 133.355837
L 377.535653 128.6534
L 378.755547 128.084318
L 381.195336 126.475368
L 382.41523 126.087701
L 384.855019 124.634161
L 395.834068 119.641599
L 401.93354 117.269948
L 403.153434 116.946672
L 404.373328 116.443385
L 416.572272 113.259355
L 417.792166 113.088735
L 419.01206 112.646651
L 420.231955 112.656807
L 421.451849 112.275054
L 423.891638 112.012134
L 427.551321 111.484831
L 429.991109 111.388743
L 431.211004 111.329607
L 432.430898 111.079166
L 434.870687 111.164946
L 436.090581 110.910706
L 437.310475 111.008557
L 438.53037 110.889632
L 439.750264 111.029314
L 442.190053 110.974835
L 453.169102 111.834319
L 454.388996 112.262214
L 460.488468 113.183508
L 461.708362 113.510594
L 462.928257 113.96542
L 464.148151 114.149588
L 472.687411 116.572652
L 473.907306 117.103181
L 477.566989 118.178769
L 480.006777 119.290024
L 483.66646 120.72195
L 486.106249 121.750589
L 487.326143 122.546729
L 489.765932 123.537801
L 490.985826 124.073853
L 493.425615 125.326529
L 494.645509 125.877708
L 508.064347 133.405834
L 509.284241 134.424232
L 510.504136 134.967515
L 511.72403 135.825014
L 514.163819 137.286557
L 519.043396 140.416297
L 523.922973 143.65365
L 525.142868 144.255428
L 528.802551 146.769654
L 532.462234 149.243225
L 533.682128 149.922921
L 537.341811 152.438272
L 541.001494 154.879191
L 542.221388 155.743101
L 544.661177 157.155333
L 545.881071 157.868105
L 548.32086 159.552115
L 550.760649 160.999852
L 551.980543 161.789815
L 553.200437 162.394724
L 554.420332 163.191945
L 556.86012 164.50306
L 558.080015 165.308966
L 559.299909 165.732761
L 560.519803 166.538696
L 562.959592 167.819751
L 564.179486 168.571621
L 565.399381 169.002455
L 567.839169 170.275348
L 570.278958 171.255035
L 576.37843 173.83967
L 577.598324 174.138349
L 578.818218 174.685316
L 580.038113 174.945653
L 581.258007 175.51591
L 583.697796 176.076803
L 586.137584 176.759476
L 587.357479 176.944261
L 588.577373 177.250266
L 589.797267 177.440314
L 591.017162 177.80535
L 593.45695 178.06543
L 594.676845 178.093818
L 597.116633 178.43838
L 598.336528 178.365031
L 600.776316 178.546081
L 601.996211 178.589403
L 603.216105 178.510059
L 604.435999 178.315409
L 608.095682 178.12843
L 609.315577 177.752676
L 610.535471 177.690378
L 615.415048 176.605172
L 616.634943 176.209177
L 617.854837 176.069199
L 622.734414 174.372407
L 625.174203 173.308485
L 626.394097 172.801643
L 627.613992 172.430186
L 630.05378 171.114754
L 632.493569 169.852444
L 636.153252 167.817388
L 637.373146 166.91788
L 638.593041 166.360836
L 641.032829 164.573043
L 643.472618 162.922333
L 644.692512 162.123304
L 647.132301 160.084266
L 648.352195 159.240727
L 650.791984 157.142792
L 653.231773 155.176526
L 662.990927 146.17218
L 666.65061 142.46647
L 670.310293 138.752951
L 672.750082 136.096208
L 686.16892 121.137897
L 689.828603 116.678595
L 691.048497 115.405164
L 693.488286 112.396346
L 700.807652 103.919339
L 702.027546 102.3469
L 703.24744 101.052014
L 708.127018 95.272799
L 709.346912 93.959512
L 710.566806 92.420026
L 713.006595 89.644171
L 714.226489 88.183503
L 717.886172 84.238012
L 719.106067 82.745398
L 721.545855 80.232546
L 722.76575 78.799914
L 725.205538 76.261259
L 726.425433 74.797958
L 736.184587 65.140911
L 737.404482 64.096859
L 738.624376 62.872741
L 739.84427 61.892919
L 742.284059 59.645369
L 747.163636 55.554545
L 747.163636 55.554545
" style="fill:none;stroke:#5e97f6;stroke-linecap:round;stroke-width:2;"></path>
</g>
<g id="line2d_9">
<path class="squiggle" clip-path="url(#pe0dedcd5ed)" d="M 138.436364 241.362963
L 140.876152 242.87356
L 142.096047 243.440824
L 143.315941 244.198322
L 144.535835 244.820468
L 145.75573 245.229428
L 146.975624 245.955639
L 148.195518 246.333891
L 150.635307 247.367792
L 154.29499 248.545946
L 156.734779 249.346157
L 161.614356 250.349436
L 166.493933 250.958445
L 170.153616 251.371014
L 173.813299 251.253249
L 175.033194 251.383668
L 177.472982 251.098901
L 178.692877 251.119179
L 179.912771 250.953871
L 181.132665 250.646013
L 182.35256 250.608639
L 183.572454 250.397843
L 184.792348 249.955357
L 186.012243 249.858601
L 192.111714 248.372338
L 193.331609 247.719669
L 194.551503 247.561917
L 198.211186 246.077567
L 199.43108 245.70657
L 200.650975 245.060158
L 201.870869 244.628496
L 204.310658 243.369699
L 206.750446 242.315208
L 210.410129 240.558474
L 211.630024 239.628133
L 216.509601 236.766715
L 222.609073 232.788531
L 223.828967 232.086512
L 226.268756 230.139199
L 227.48865 229.40725
L 228.708544 228.33124
L 234.808016 223.730574
L 236.02791 222.61092
L 238.467699 220.705028
L 239.687593 219.566936
L 240.907488 218.846342
L 242.127382 217.565006
L 244.567171 215.502911
L 250.666642 210.157133
L 253.106431 207.874851
L 257.986008 203.44416
L 273.844635 188.084717
L 278.724212 183.051658
L 281.164001 180.891183
L 283.603789 178.385295
L 288.483367 173.553058
L 290.923155 170.932459
L 293.362944 168.749204
L 294.582838 167.329227
L 295.802733 166.239075
L 299.462416 162.582293
L 300.68231 161.508632
L 303.122099 158.923549
L 304.341993 157.947049
L 306.781782 155.443015
L 308.001676 154.4296
L 311.661359 150.660685
L 312.881253 149.603734
L 315.321042 147.253148
L 320.200619 142.896153
L 321.420514 141.599572
L 325.080197 138.237641
L 326.300091 137.33053
L 331.179668 132.854986
L 332.399563 131.856216
L 333.619457 130.67052
L 334.839351 129.741079
L 336.059246 128.631931
L 337.27914 127.821036
L 338.499034 126.596229
L 339.718929 125.757701
L 348.258189 118.847041
L 349.478083 117.997828
L 351.917872 116.004562
L 354.357661 114.290572
L 355.577555 113.380712
L 356.797449 112.664375
L 358.017344 111.59369
L 361.677027 109.212569
L 362.896921 108.479633
L 364.116815 107.598177
L 365.33671 106.914698
L 366.556604 105.91265
L 367.776498 105.41233
L 370.216287 103.900164
L 371.436181 103.279992
L 372.656076 102.451427
L 373.87597 101.89433
L 375.095864 101.139624
L 382.41523 97.496492
L 384.855019 96.385643
L 386.074913 95.799851
L 387.294808 95.467715
L 388.514702 94.807837
L 390.954491 94.014455
L 395.834068 92.384767
L 397.053962 91.96424
L 398.273857 91.759718
L 399.493751 91.315926
L 401.93354 90.904925
L 404.373328 90.313733
L 405.593223 90.215282
L 408.033011 89.678258
L 416.572272 89.206616
L 417.792166 89.319568
L 420.231955 89.248661
L 421.451849 89.421917
L 422.671743 89.458169
L 423.891638 89.683334
L 425.111532 89.629275
L 426.331426 90.018775
L 429.991109 90.526507
L 433.650792 91.432056
L 437.310475 92.448122
L 438.53037 92.970311
L 439.750264 93.258982
L 440.970158 93.806708
L 443.409947 94.711853
L 444.629842 95.38906
L 447.06963 96.32311
L 458.048679 102.31053
L 459.268574 103.209517
L 461.708362 104.686136
L 462.928257 105.770187
L 465.368045 107.446924
L 466.58794 108.255862
L 471.467517 112.069999
L 472.687411 113.210431
L 476.347094 116.063881
L 480.006777 119.141554
L 495.865404 133.889989
L 498.305192 136.361126
L 512.943924 150.582366
L 514.163819 151.967171
L 515.383713 152.853555
L 516.603607 154.127182
L 520.26329 157.496633
L 523.922973 160.899532
L 525.142868 161.920966
L 526.362762 163.12802
L 528.802551 165.193622
L 532.462234 168.232234
L 534.902022 170.014324
L 537.341811 172.216196
L 542.221388 175.664757
L 543.441283 176.452381
L 545.881071 178.175779
L 548.32086 179.709297
L 553.200437 182.645502
L 554.420332 183.167986
L 556.86012 184.445152
L 559.299909 185.518422
L 560.519803 186.023332
L 562.959592 187.264466
L 564.179486 187.513671
L 565.399381 188.050686
L 566.619275 188.333738
L 569.059064 189.215192
L 570.278958 189.617127
L 571.498852 189.857198
L 572.718747 190.246368
L 575.158535 190.590027
L 576.37843 190.92403
L 577.598324 190.967556
L 578.818218 191.233084
L 587.357479 191.810876
L 589.797267 191.669624
L 592.237056 191.581956
L 593.45695 191.300092
L 594.676845 191.262087
L 597.116633 190.884839
L 599.556422 190.499062
L 600.776316 190.396602
L 601.996211 189.921434
L 603.216105 189.738357
L 604.435999 189.325039
L 608.095682 188.488259
L 609.315577 187.979919
L 611.755365 187.276432
L 612.97526 186.890173
L 615.415048 185.907921
L 616.634943 185.581522
L 619.074731 184.499049
L 620.294626 183.951741
L 621.51452 183.558981
L 623.954309 182.275097
L 625.174203 181.866137
L 628.833886 180.046301
L 630.05378 179.465367
L 631.273675 178.753944
L 633.713463 177.649911
L 634.933358 177.056978
L 637.373146 175.609568
L 639.812935 174.333344
L 649.57209 168.609749
L 650.791984 167.746634
L 655.671561 165.095916
L 660.551139 161.94586
L 661.771033 161.339537
L 665.430716 159.034614
L 666.65061 158.336927
L 667.870505 157.44323
L 669.090399 156.796144
L 671.530188 155.262634
L 673.969976 153.712433
L 676.409765 152.16449
L 677.629659 151.49819
L 680.069448 149.904303
L 681.289342 149.251028
L 683.729131 147.625084
L 684.949025 147.029783
L 686.16892 146.167147
L 687.388814 145.570251
L 688.608708 144.739315
L 691.048497 143.294563
L 693.488286 141.635095
L 694.70818 140.833219
L 695.928074 140.288023
L 698.367863 138.756894
L 700.807652 137.432868
L 702.027546 136.7729
L 703.24744 135.891069
L 710.566806 131.790228
L 711.786701 131.248623
L 713.006595 130.326909
L 715.446384 129.074038
L 716.666278 128.489891
L 720.325961 126.295583
L 723.985644 124.472292
L 728.865221 121.882398
L 730.085116 121.47697
L 731.30501 120.627249
L 741.064165 116.115121
L 747.163636 113.389841
L 747.163636 113.389841
" style="fill:none;stroke:#9c27b0;stroke-linecap:round;stroke-width:2;"></path>
</g>
<g id="line2d_10">
<path class="squiggle" clip-path="url(#pe0dedcd5ed)" d="M 138.436364 298.466115
L 144.535835 295.981328
L 145.75573 295.23486
L 146.975624 294.795226
L 154.29499 291.245115
L 168.933722 283.07865
L 173.813299 280.078539
L 176.253088 278.572231
L 183.572454 273.779909
L 184.792348 273.013911
L 186.012243 272.081152
L 187.232137 271.407822
L 189.671926 269.633981
L 193.331609 267.006285
L 194.551503 266.077842
L 196.991292 264.446636
L 203.090763 259.890982
L 205.530552 258.000303
L 206.750446 256.995047
L 207.970341 256.136678
L 210.410129 254.133921
L 212.849918 252.253733
L 220.169284 246.363336
L 222.609073 244.197211
L 223.828967 243.270692
L 226.268756 241.158873
L 227.48865 240.228387
L 229.928439 237.940594
L 231.148333 236.985066
L 233.588122 234.781559
L 239.687593 229.302169
L 242.127382 226.960481
L 250.666642 218.960845
L 257.986008 211.875242
L 260.425797 209.403377
L 267.745163 202.080627
L 268.965057 200.924401
L 271.404846 198.330775
L 272.62474 197.232086
L 277.504318 192.170289
L 281.164001 188.42598
L 293.362944 175.928688
L 294.582838 174.828219
L 295.802733 173.457229
L 297.022627 172.309492
L 299.462416 169.619445
L 301.902204 167.299312
L 303.122099 166.129672
L 304.341993 164.79551
L 305.561887 163.736175
L 306.781782 162.445368
L 310.441465 158.930252
L 320.200619 149.646273
L 321.420514 148.714148
L 323.860302 146.366503
L 327.519985 143.426686
L 328.73988 142.163261
L 329.959774 141.289533
L 331.179668 140.189284
L 333.619457 138.273903
L 334.839351 137.201521
L 344.598506 129.902772
L 348.258189 127.589948
L 349.478083 126.66294
L 359.237238 120.895676
L 361.677027 119.744174
L 365.33671 118.021062
L 371.436181 115.386529
L 372.656076 115.062859
L 375.095864 114.12959
L 377.535653 113.425114
L 379.975442 112.627776
L 381.195336 112.312066
L 382.41523 112.123189
L 383.635125 111.79262
L 386.074913 111.427877
L 389.734596 110.666255
L 390.954491 110.457439
L 392.174385 110.520003
L 393.394279 110.304758
L 395.834068 110.144414
L 397.053962 110.180841
L 398.273857 110.095463
L 399.493751 110.167415
L 400.713645 109.916035
L 403.153434 110.091216
L 404.373328 110.090564
L 408.033011 110.513366
L 409.252906 110.490557
L 416.572272 111.594466
L 417.792166 112.085495
L 419.01206 112.10913
L 420.231955 112.53142
L 422.671743 113.052845
L 426.331426 114.260132
L 427.551321 114.497861
L 431.211004 115.806594
L 433.650792 116.77062
L 436.090581 117.6549
L 438.53037 118.78126
L 439.750264 119.200361
L 442.190053 120.413251
L 443.409947 120.848055
L 456.828785 127.986381
L 459.268574 129.545387
L 460.488468 130.123165
L 462.928257 131.701168
L 464.148151 132.420517
L 465.368045 133.297632
L 467.807834 134.835142
L 480.006777 143.099787
L 481.226672 144.088058
L 484.886355 146.513219
L 487.326143 148.338874
L 488.546038 149.114307
L 490.985826 150.970178
L 498.305192 156.281588
L 499.525087 157.27521
L 501.964875 159.047795
L 505.624558 161.561837
L 506.844453 162.615198
L 511.72403 166.048661
L 512.943924 167.086404
L 530.022445 178.333238
L 533.682128 180.549736
L 534.902022 181.182975
L 537.341811 182.665134
L 541.001494 184.557301
L 542.221388 184.971704
L 543.441283 185.838213
L 544.661177 186.328014
L 545.881071 187.026344
L 547.100966 187.52696
L 548.32086 188.153337
L 549.540754 188.555183
L 550.760649 189.144962
L 553.200437 189.963195
L 554.420332 190.553953
L 562.959592 193.240683
L 564.179486 193.36981
L 565.399381 193.712161
L 569.059064 194.336259
L 570.278958 194.444086
L 571.498852 194.664665
L 572.718747 194.751957
L 573.938641 194.985483
L 575.158535 194.868569
L 576.37843 195.033345
L 578.818218 194.866713
L 580.038113 194.94865
L 582.477901 194.730316
L 586.137584 194.472569
L 588.577373 194.146912
L 592.237056 193.080215
L 593.45695 192.916188
L 595.896739 192.199125
L 597.116633 191.88452
L 600.776316 190.444416
L 605.655894 188.358942
L 609.315577 186.400965
L 611.755365 185.188203
L 612.97526 184.185833
L 614.195154 183.514319
L 617.854837 181.027599
L 625.174203 175.668776
L 630.05378 171.665531
L 633.713463 168.548731
L 634.933358 167.191141
L 636.153252 166.25437
L 637.373146 165.018328
L 639.812935 162.813092
L 647.132301 155.49772
L 648.352195 154.253722
L 649.57209 152.834429
L 654.451667 147.804134
L 655.671561 146.422168
L 656.891456 145.256267
L 659.331244 142.570524
L 664.210822 137.270061
L 667.870505 133.192235
L 670.310293 130.497574
L 671.530188 129.36091
L 675.189871 125.337882
L 677.629659 122.807676
L 680.069448 120.230582
L 681.289342 118.791679
L 692.268391 107.879805
L 693.488286 106.832605
L 694.70818 105.522275
L 703.24744 98.08553
L 704.467335 97.235531
L 705.687229 96.234974
L 706.907123 95.410575
L 711.786701 91.665064
L 714.226489 89.973457
L 715.446384 89.378731
L 720.325961 86.358921
L 722.76575 85.145779
L 725.205538 84.107231
L 726.425433 83.584169
L 727.645327 82.93689
L 730.085116 82.05115
L 736.184587 80.211195
L 739.84427 79.570135
L 741.064165 79.210724
L 747.163636 78.929427
L 747.163636 78.929427
" style="fill:none;stroke:#25a69a;stroke-linecap:round;stroke-width:2;"></path>
</g>
</g>
</g>
 <defs>
  <clipPath id="pcd80e11252">
   <rect height="271.8" width="669.6" x="108" y="43.2"/>
  </clipPath>
 </defs>
  <style>
  .squiggle {
    stroke-dasharray: 800;
    stroke-dashoffset: 800;
    animation: draw 5s ease forwards infinite;
  }

  @keyframes draw {
      to {
          stroke-dashoffset: 0;
      }
  }
  </style>
</svg>

