<svg id="eJ6D9dgA1vI1" xmlns="http://www.w3.org/2000/svg" xmlns:xlink="http://www.w3.org/1999/xlink" viewBox="0 0 852.48 348.48" shape-rendering="geometricPrecision" text-rendering="geometricPrecision"><defs><path id="eJ6D9dgA1vI2" d="M-5 5 5-5M-5-5 5 5"/></defs><path d="M0 348.48h852.48V0H0Z" fill="none" stroke-linejoin="round"/><g clip-path="url(#eJ6D9dgA1vI41)"><g stroke="#000" stroke-width="3" stroke-linejoin="round"><use xlink:href="#eJ6D9dgA1vI2" transform="translate(194.924 183.273)"/><use xlink:href="#eJ6D9dgA1vI2" transform="translate(550.677 180.344)"/><use xlink:href="#eJ6D9dgA1vI2" transform="translate(596.482 262.344)"/><use xlink:href="#eJ6D9dgA1vI2" transform="translate(593.428 193.227)"/><use xlink:href="#eJ6D9dgA1vI2" transform="translate(332.34 151.855)"/><use xlink:href="#eJ6D9dgA1vI2" transform="translate(216.3 255.214)"/><use xlink:href="#eJ6D9dgA1vI2" transform="translate(727.79 137.914)"/><use xlink:href="#eJ6D9dgA1vI2" transform="translate(393.413 132.404)"/><use xlink:href="#eJ6D9dgA1vI2" transform="translate(120.109 274.054)"/><use xlink:href="#eJ6D9dgA1vI2" transform="translate(575.106 182.203)"/><use xlink:href="#eJ6D9dgA1vI2" transform="translate(388.833 109.723)"/><use xlink:href="#eJ6D9dgA1vI2" transform="translate(543.043 142.837)"/><use xlink:href="#eJ6D9dgA1vI2" transform="translate(138.432 287.647)"/><use xlink:href="#eJ6D9dgA1vI2" transform="translate(333.866 97.873)"/><use xlink:href="#eJ6D9dgA1vI2" transform="translate(95.68 302.789)"/><use xlink:href="#eJ6D9dgA1vI2" transform="translate(700.307 166.657)"/><use xlink:href="#eJ6D9dgA1vI2" transform="translate(530.828 201.203)"/><use xlink:href="#eJ6D9dgA1vI2" transform="translate(515.56 153.101)"/><use xlink:href="#eJ6D9dgA1vI2" transform="translate(578.16 233.595)"/><use xlink:href="#eJ6D9dgA1vI2" transform="translate(136.905 282.383)"/></g><path id="eJ6D9dgA1vI29" d="m45.295 278.917 6.107 3.643 1.527.77 3.053 1.797 1.527.592 4.58 2.286 1.528.489 1.526.88 3.054 1.077 1.527.652 1.527.48 1.527.68 1.526.326 1.527.677 1.527.162 1.527.533 3.054.768 4.58.587 1.527.408 3.054.054 1.526.214 3.054.105 4.58-.136 7.635-.824 1.527-.267 7.634-1.907 1.527-.636 3.053-.998 4.58-1.985 3.054-1.403 1.527-.78 1.527-.912 1.527-.725 1.527-.94 1.527-.647 3.053-2.167 1.527-.806 3.054-2.202 1.527-.848 3.053-2.355 9.161-7.198 6.108-5.481 1.527-1.097 4.58-4.273 1.527-1.707 3.054-2.65 1.526-1.783 4.58-4.36 6.108-6.378 3.054-3.196 1.527-1.734 1.527-1.497 4.58-4.983 3.054-3.096 4.58-5.18 1.527-1.448 1.527-1.918 18.322-19.698 1.527-1.399 4.58-4.835 7.634-7.75 3.054-3.065 1.527-1.316 1.527-1.59 1.527-1.385 1.527-1.645 1.526-1.422 1.527-1.261 6.108-5.75 1.526-1.139 3.054-2.857 1.527-1.063 1.527-1.392 3.053-2.325 1.527-1.316 1.527-1.085 1.527-1.3 3.054-2.406 1.526-1.38 1.527-.796 3.054-2.373 1.527-.828 4.58-3.162 1.527-.8 1.527-1.173 1.527-.743 4.58-2.837 6.108-3.483 3.053-1.449 1.527-.854 3.054-1.313 3.053-1.468 7.635-2.974 3.053-1.395 3.054-.713 1.527-.673 4.58-1.38 1.527-.66 3.054-.363 1.527-.597 1.526-.394 1.527-.252 3.054-.69 3.054-.596 3.053-.477 4.58-.674 1.528.007 7.634-.702 6.107-.31 1.527.136 1.527-.096 1.527.05 1.527-.067 1.526.166 1.527-.164 1.527.234 1.527.08 1.527-.08 1.527.332 1.526-.02 4.58.724 3.055.353 1.526.298 1.527.136 4.58 1.018 1.528.165 1.526.464 4.58.933 1.528.368 1.527.501 1.526.26 1.527.69 1.527.287 1.527.556 1.527.286 4.58 1.86 1.527.387 9.161 3.54 1.527.604 1.527.813 3.053 1.281 3.054 1.343 1.527.814 1.527.653 1.527 1.002 3.053 1.3 3.054 1.692 1.527.916 1.527.78 1.526.925 1.527.683 1.527 1.14 1.527.749 3.054 1.791 3.053 1.77 3.054 1.88 1.527.919 3.053 2.08 1.527.803 1.527 1.115 4.58 2.978 6.108 4.156 1.527.933 10.688 7.56 3.053 1.892 7.635 5.568 1.526.888 7.635 5.27 4.58 3.088 1.527.985 1.527 1.186 3.053 1.74 1.527 1.208 1.527.925 1.527.727 1.527 1.108 3.053 1.723 3.054 1.928 1.527.8 1.527.964 1.527.585 1.526 1.049 3.054 1.704 3.054 1.286 1.527.883 7.634 3.396 6.107 2.306 1.527.71 1.527.34 3.053 1.027 6.108 1.42 1.527.365 1.526.202 1.527.427 1.527.059 4.58.816 3.054-.077 1.527.305 1.527-.118 1.527.094 3.054-.199 4.58-.354 3.054-.492 1.527-.151 1.526-.452 1.527-.197 3.054-.761 1.527-.547 3.053-.917 1.527-.484 4.58-1.784 1.528-.831 1.526-.544 1.527-.74 3.054-1.707 1.527-.6 1.527-1.061 3.053-1.702 1.527-1.132 1.527-.86 1.527-1.24 1.527-.966 4.58-3.413 3.054-2.356 10.688-9.532 6.107-6.255 1.527-1.3 1.527-1.533 3.053-3.512 4.58-5.098 1.528-1.912 6.107-7.042 16.795-21.263 1.527-2.202 1.527-1.82 1.527-2.44 4.58-5.967 7.634-10.56 1.527-1.81 1.527-2.459 3.054-4.068 6.107-8.33 1.527-2.308 4.58-6.227 3.054-4.13 9.161-12.4 1.527-1.852 1.527-2.07 1.527-1.76 3.053-4.079 3.054-3.808 7.634-9.269 10.688-12.112 1.527-1.55 4.58-5.025 7.634-7.367v0" fill="none" stroke="#9c27b0" stroke-width="2" stroke-linecap="round" stroke-linejoin="round" stroke-dashoffset="941.706" stroke-dasharray="941.706"/><path id="eJ6D9dgA1vI30" d="m45.295 294.83 3.053.812 1.527.794 4.58 1.044 1.527.592 1.527.094 3.054.569 4.58.5 4.58.236 1.528-.095 1.527.035 3.053-.376 1.527-.025 1.527-.386 1.527-.191 1.527-.314 1.526-.167 1.527-.546 1.527-.186 4.58-1.385 1.527-.356 1.527-.784 1.527-.423 1.527-.863 1.527-.545 3.053-1.316 3.054-1.773 3.054-1.664 4.58-2.734 4.58-3.12 6.108-4.411 1.527-1.44 1.527-1.054 1.527-1.201 3.053-2.727 1.527-1.095 1.527-1.475 4.58-3.937 3.054-3.056 1.527-1.373 1.527-1.672 6.107-6.06 3.054-3.318 1.527-1.409 1.527-1.793 1.526-1.546 3.054-3.32 12.215-13.617 1.527-1.81 1.526-1.583 4.58-5.163 16.796-19.01 3.054-3.26 1.527-1.974 3.053-3.258 1.527-1.731 3.054-3.01 3.053-3.322 3.054-3.212 3.054-3.094 1.527-1.348 1.526-1.702 1.527-1.374 3.054-3.051 1.527-1.311 1.527-1.727 4.58-4.059 1.527-1.241 1.527-1.478 4.58-3.751 1.527-1.364 3.054-2.352 1.527-1.211 3.053-2.196 3.054-2.276 3.054-2.192 1.527-.929 1.526-1.152 1.527-1.002 3.054-1.759 1.527-.941 1.527-.775 1.526-1.087 3.054-1.549 1.527-.882 1.527-.736 1.527-.871 4.58-1.983 1.527-.834 1.527-.49 1.527-.682 4.58-1.736 1.527-.33 1.527-.726 4.58-1.542 1.527-.273 1.527-.513 6.107-1.51 4.58-.76 1.528-.365 1.526-.233 1.527-.063 3.054-.654 3.054-.18 1.526-.347 1.527.042 1.527-.154 1.527.013 3.054-.261 1.526-.02 1.527-.18 3.054.259 1.527-.186 7.634.274 1.527-.042 3.053.563 1.527-.144 1.527.226 3.054.2 1.527.438 1.526-.094 1.527.367 1.527.138 12.215 2.18 1.527.035 1.527.5 6.107 1.405 1.527.145 1.527.677 1.526.298 1.527.508 1.527.324 1.527.48 1.527.254 1.527.601 4.58 1.175 3.054.963 1.527.477 1.526.615 1.527.495 1.527.335 1.527.71 4.58 1.514 1.527.684 1.527.344 1.527.747 1.527.399 1.527.795 1.526.397 4.58 1.829 3.055 1.225 6.107 2.726 3.054 1.3 1.526.733 1.527.474 1.527.693 3.054 1.7 3.053 1.215 1.527.795 3.054 1.279 1.527.895 3.053 1.46 3.054 1.545 1.527.647 3.054 1.584 1.526.508 3.054 1.847 1.527.51 3.054 1.71 1.526.707 1.527.924 1.527.714 1.527.916 1.527.63 12.215 6.448 1.526.636 1.527.78 1.527 1.02 12.215 6.034 1.527.96 3.053 1.43 1.527.839 3.054 1.338 1.527.91 1.526.57 4.58 2.231 1.528.592 3.053 1.418 1.527.534 9.161 4.08 1.527.463 4.58 1.941 1.527.387 4.58 1.823 4.581 1.26 1.527.675 3.054.902 3.054.894 1.526.174 6.108 1.421 1.527.59 1.526.163 1.527.5 1.527.116 1.527.314 1.527.108 3.053.533 1.527.04 1.527.28 7.634.262 1.527.116 4.58-.085 1.528-.222 3.053-.039 1.527-.148 1.527-.281 1.527-.127 3.053-.411 4.58-.68 4.581-1.137 3.054-.812 3.054-.852 1.527-.466 1.526-.71 1.527-.478 1.527-.642 3.054-1.132 1.527-.58 1.526-.753 1.527-.528 1.527-.814 1.527-.556 4.58-2.529 4.58-2.636 1.528-.722 1.527-.978 1.526-1.134 1.527-.854 7.634-5.236 1.527-1.151 1.527-.909 1.527-1.417 1.527-.983 4.58-3.696 1.527-1.123 1.527-1.445 1.527-1.106 7.634-6.836 1.527-1.202 9.16-8.688 9.162-8.81 1.527-1.674 3.053-2.966 4.58-4.61 1.528-1.383 3.053-3.376 1.527-1.376 4.58-4.81 1.528-1.427 1.526-1.662 1.527-1.484 3.054-3.302 1.527-1.306 9.16-9.2 4.581-4.292 1.527-1.673 3.054-2.719 4.58-4.275 3.054-2.658 1.527-1.235 3.053-2.847 3.054-2.562 6.107-4.876 1.527-.977 3.054-2.46 6.107-4.3 1.527-.802 1.527-1.053 3.054-1.832 1.526-1.038v0" fill="none" stroke="#25a69a" stroke-width="2" stroke-linecap="round" stroke-linejoin="round" stroke-dashoffset="897.071" stroke-dasharray="897.071"/><path id="eJ6D9dgA1vI31" d="m45.295 271.796 1.526 1.08 1.527 1.262 1.527.99 3.054 2.498 1.527.946 3.053 2.09 7.634 4.749 1.527.799 1.527.951 4.58 2.503 1.527.48 7.635 3.11 1.526.392 1.527.576 1.527.341 1.527.512 3.054.554 1.526.173 1.527.355 1.527.082 3.054.412 1.527.072 1.526-.04 1.527.13 1.527-.131 1.527.051 1.527-.3 1.527.046 3.053-.6 3.054-.371 1.527-.478 1.527-.243 1.526-.845 1.527-.236 4.58-1.614 1.528-.892 1.526-.435 1.527-.903 1.527-.593 1.527-.756 3.054-1.84 1.527-.779 1.526-1.165 3.054-1.84 3.054-2.086 3.053-2.335 1.527-1.038 1.527-1.209 1.527-1.445 1.527-1.18 7.634-6.854 7.634-7.638 6.107-6.327 1.527-1.828 3.054-3.266 3.054-3.556 1.526-1.698 1.527-1.882 1.527-1.592 3.054-3.68 1.527-1.898 1.526-1.668 3.054-3.77 1.527-1.75 1.527-2.015 4.58-5.508 3.054-3.928 4.58-5.429 3.054-3.902 12.215-14.951 10.688-12.604 1.526-1.564 3.054-3.596 4.58-5.024 1.528-1.575 1.526-1.745 1.527-1.39 1.527-1.776 3.054-2.905 1.527-1.602 7.634-7.193 4.58-3.757 3.054-2.765 6.107-4.67 3.054-2.006 1.527-1.278 3.053-1.89 4.58-2.927 1.528-.683 1.527-.914 1.526-.655 3.054-1.687 4.58-2.072 3.054-1.047 1.527-.693 4.58-1.482 1.527-.297 1.527-.645 4.58-1.02 1.528-.477 1.526-.1 3.054-.604 1.527-.15h1.527l1.527-.287 1.526-.136 3.054-.04 6.107-.055 4.581.425 1.527-.049 1.527.174 1.526.402 1.527-.137 6.108 1.004 1.526.574 4.581.639 1.527.61 1.527.225 4.58 1.168 7.634 2.441 1.527.371 1.527.632 1.527.42 4.58 1.7 4.58 1.482 1.528.66 1.527.51 1.526.788 3.054 1 1.527.636 1.527.425 1.527.596 1.526.913 1.527.438 3.054 1.152 3.054 1.356 1.526.376 1.527.747 1.527.509 3.054 1.437 1.527.494 7.634 3.094 9.16 3.542 1.528.805 3.053 1.137 1.527.412 1.527.708 3.054 1.02 1.526.699 1.527.509 3.054 1.32 1.527.462 1.527.616 1.526.404 1.527.736 13.742 4.942 1.527.484 1.526.656 1.527.51 1.527.324 1.527.816 3.054 1.01 1.527.609 6.107 2.026 3.054 1.2 3.053.973 3.054 1.323 1.527.433 3.053 1.22 1.527.418 3.054 1.327 1.527.58 3.053 1.013 3.054 1.238 4.58 1.71 1.527.723 4.58 1.796 3.055 1.343 1.526.476 1.527.64 1.527.847 1.527.416 6.107 2.817 6.108 2.428 1.526.879 1.527.571 1.527.795 1.527.503 4.58 2.161 1.527.729 1.527.52 1.527.76 1.527.631 1.527.838 1.526.476 3.054 1.556 3.054 1.212 1.527.84 3.053 1.144 4.58 1.906 3.054 1.14 3.054 1.37 10.688 3.828 1.527.594 4.58 1.26 4.58 1.391 1.528.269 1.527.508 1.526.261 1.527.385 1.527.232 3.054.673 9.16 1.183 1.528-.168 1.526.127 4.58.006 1.528.092 6.107-.38 3.054-.637 1.527.075 1.526-.421 4.58-.924 4.581-1.33 4.58-1.555 1.528-.54 1.527-.81 3.053-1.251 1.527-.736 1.527-.483 9.161-5.052 3.054-2.069 1.526-.864 3.054-2.137 3.054-2.328 1.527-.973 4.58-3.5 3.054-2.767 1.527-1.13 3.053-2.583 1.527-1.454 1.527-1.282 6.107-5.756 1.527-1.625 1.527-1.277 9.161-9.32 3.054-3.182 6.107-6.424 1.527-1.919 1.527-1.54 3.053-3.343 4.58-4.919 3.055-3.542 3.053-3.412 1.527-1.904 9.161-9.88 1.527-1.903 1.527-1.654 1.527-1.877 3.053-3.156 4.58-5.174 1.528-1.574 1.526-1.735 1.527-1.548 3.054-3.365 9.16-9.68 1.528-1.43 1.527-1.678 1.526-1.51v0" fill="none" stroke="#5e97f6" stroke-width="2" stroke-linecap="round" stroke-linejoin="round" stroke-dashoffset="908.91" stroke-dasharray="908.91"/><path id="eJ6D9dgA1vI32" d="m45.295 293.593 1.526.296 1.527.671 7.634 1.876 3.054.475 1.527.352 1.527.102 1.527.28 1.526-.025 1.527.278 1.527.106 1.527-.078 1.527.155 3.053-.062 1.527.13 1.527-.148 1.527.011 1.527-.166 1.527-.284 1.526.006 1.527-.242 1.527-.365 1.527-.142 1.527-.311 1.527-.185 1.526-.336 1.527-.532 6.108-1.409 6.107-1.968 1.527-.739 7.634-2.993 9.161-4.36 1.527-.894 1.527-.588 1.526-.981 1.527-.742 1.527-.93 3.054-1.507 1.527-.961 3.053-1.745 1.527-1.075 1.527-.933 1.527-.796 1.527-1.05 1.527-.907 4.58-3.289 1.527-.786 9.16-6.146 1.528-1.268 4.58-3.03 3.054-2.092 1.527-1.141 1.527-1.304 3.053-2.117 1.527-1.204 1.527-.945 4.58-3.495 3.054-1.906 1.527-1.369 3.054-1.995 3.053-2.538 4.58-3.151 3.054-2.272 3.054-2.228 1.527-.922 4.58-3.548 6.108-4.216 1.527-1.222 3.053-2.01 1.527-1.106 1.527-1.305 4.58-2.972 3.054-2.172 1.527-.891 9.161-6.207 10.688-7.157 1.527-.838 3.053-2.18 4.58-2.91 1.528-.882 3.053-2.052 1.527-.814 1.527-1.077 1.527-.73 1.527-1.29 3.053-1.762 1.527-.72 1.527-1.138 3.054-1.882 3.053-1.846 1.527-.725 1.527-1.118 4.58-2.676 1.527-1.044 4.58-2.433 1.528-1.102 3.053-1.632 1.527-.954 1.527-.789 1.527-.964 6.107-3.237 1.527-1.043 6.107-3.163 4.58-2.662 7.635-3.831 1.527-.898 7.634-3.639 1.527-.877 3.054-1.307 1.526-.66 1.527-.837 3.054-1.217 1.527-.779 1.527-.555 3.053-1.36 1.527-.522 3.054-1.248 7.634-2.91 1.527-.43 1.527-.635 3.053-.984 3.054-1.033 1.527-.255 1.527-.648 1.527-.185 3.053-.861 4.58-1.053 1.528-.464 3.053-.39 1.527-.284 1.527-.145 1.527-.37 1.527-.131 1.526-.304 1.527-.032 1.527-.216 3.054-.102 1.527-.185 1.526.123 1.527-.044 1.527-.228 10.688.534 3.054.406 1.526.337h1.527l1.527.422 1.527.128 1.527.508 1.527.09 3.053.631 1.527.542 1.527.161 1.527.582 3.053.83 1.527.6 1.527.427 1.527.648 1.527.438 1.527.634 1.526.457 1.527.762 4.58 1.772 3.054 1.486 4.581 2.055 6.107 3.34 3.054 1.707 9.161 5.332 3.054 2.043 1.527.868 3.053 2.084 1.527.876 3.054 2.098 1.527 1.21 3.053 1.982 1.527 1.085 1.527.944 4.58 3.358 9.161 6.465 3.054 2.279 12.215 8.67 3.053 2.237 3.054 1.97 3.054 2.138 3.053 2.05 1.527.91 4.58 3.092 3.054 1.686 1.527.943 3.054 2.121 1.527.772 3.053 1.76 6.108 3.219 1.527.887 1.526.668 1.527.799 1.527.53 3.054 1.598 1.527.698 4.58 1.764 3.054 1.174 6.107 2.245 1.527.223 6.107 1.847 6.108 1.04 4.58.642 1.527.162 1.527.276 6.107.176 1.527-.096 3.054.151 1.527-.284 1.526.102 1.527-.361 3.054-.158 1.527-.29 1.527-.097 3.053-.528 4.58-.995 1.528-.59 1.526-.26 3.054-.857 4.58-1.447 1.527-.773 1.527-.323 1.527-.777 1.527-.584 7.634-3.668 3.054-1.52 1.527-1.028 3.053-1.475 6.108-3.816 1.526-1.143 1.527-.913 7.634-5.633 1.527-.936 1.527-1.37 4.58-3.64 12.215-10.507 1.527-1.592 1.527-1.403 3.054-2.555 4.58-4.694 3.054-2.848 3.054-3.207 3.053-2.992 6.108-6.27 3.053-3.404 1.527-1.225 1.527-1.84 1.527-1.487 4.58-5.148 1.527-1.35 7.634-8.24 1.527-1.45 1.527-1.85 1.527-1.498 1.527-1.722 3.053-3.016 1.527-1.816 3.054-2.938 3.053-3.227 10.688-10.51 1.527-1.388 1.527-1.565 4.58-4.164v0" fill="none" stroke="#5e97f6" stroke-width="2" stroke-linecap="round" stroke-linejoin="round" stroke-dashoffset="883.075" stroke-dasharray="883.075"/><path id="eJ6D9dgA1vI33" d="m45.295 319.743 4.58-1.871 1.527-.536 1.527-.745 1.527-.392 9.16-3.646 1.527-.445 1.527-.77 1.527-.527 1.527-.787 3.054-1.269 1.526-.817 1.527-.413 1.527-.8 1.527-.518 4.58-2.257 3.054-1.235 1.527-.843 1.527-.523 3.053-1.625 3.054-1.209 4.58-2.349 9.162-4.49 6.107-3.133 1.527-1.022 6.107-2.972 6.107-3.584 1.527-.715 1.527-1.061 1.527-.724 1.527-.97 4.58-2.495 3.054-2.046 1.527-.814 3.054-1.977 1.526-.805 6.108-3.822 1.527-1.041 4.58-2.77 1.527-1.077 1.527-.931 1.527-1.105 4.58-2.93 1.527-1.094 3.054-1.916 4.58-3.098 3.054-1.985 1.527-1.332 1.526-.773 1.527-1.36 1.527-.867 7.634-5.358 18.322-13.097 1.527-1.333 1.527-.932 4.58-3.418 3.054-1.928 1.527-1.363 1.527-1.136 1.527-.969 1.526-1.316 4.581-3.16 1.527-1.365 1.527-1.02 1.526-1.208 6.108-4.235 1.527-1.236 3.053-2.002 1.527-1.203 1.527-1.054 1.527-1.248 3.054-1.937 1.526-1.25 4.58-3.178 1.528-.974 1.527-1.19 12.214-8.12 1.527-.943 3.054-2.278 1.527-.644 1.526-1.278 3.054-1.753 1.527-1.041 1.527-.904 1.527-1.042 1.526-.825 1.527-1.089 1.527-.817 1.527-.683 3.054-2.097 1.526-.722 1.527-.948 3.054-1.657 7.634-4.225 1.527-.661 3.054-1.701 6.107-2.748 1.527-.746 3.053-1.265 1.527-.874 1.527-.492 3.054-1.375 1.527-.765 1.526-.436 1.527-.596 1.527-.372 1.527-.946 1.527-.361 1.527-.62 1.526-.253 1.527-.578 3.054-.898 4.58-1.533 1.527-.167 1.527-.432 1.527-.307 1.527-.526 4.58-.731 3.054-.812 4.58-.607 3.054-.513 6.108-.532 1.526.086 1.527-.181 1.527.036 1.527-.176 9.16.15 1.528.162 1.527-.041 1.526.075 7.635.892 1.526.105 1.527.415 1.527.097 1.527.397 3.054.416 1.526.444 1.527.22 3.054.766 4.58 1.199 3.054.933 1.527.251 1.527.512 1.527.229 1.526.754 3.054.963 1.527.646 4.58 1.554 10.688 4.24 1.527.728 1.527.545 1.527.886 1.527.494 1.526.627 3.054 1.52 10.688 4.984 1.527.902 1.527.595 3.053 1.727 3.054 1.282 1.527.902 3.054 1.405 3.053 1.75 3.054 1.31 1.527.972 7.634 3.794 4.58 2.35 1.527.617 4.58 2.248 1.528.676 1.526.976 1.527.626 1.527.87 1.527.607 1.527.836 1.527.454 1.526.834 1.527.675 1.527.553 4.58 2.182 1.527.405 9.161 3.864 1.527.373 1.527.53 3.054 1.313 1.527.3 3.053 1.387 3.054.792 1.527.389 1.527.642 4.58 1.222 4.58 1.318 1.527.193 4.581 1.1 4.58.772 4.581.797 10.688 1.204 1.527-.102 1.527.156 1.526.033 1.527.182 1.527-.056 3.054.092 3.053-.203 1.527.14 3.054-.384 1.527.069 1.527-.19 1.526-.041 3.054-.536 1.527.075 1.527-.37 9.16-1.587 1.528-.564 4.58-1.05 4.58-1.477 1.527-.219 3.054-1.21 4.58-1.646 1.527-.721 4.58-1.85 1.528-.829 1.527-.559 3.053-1.506 3.054-1.48 3.054-1.63 1.526-1.014 4.581-2.528 4.58-3.017 1.527-.815 3.054-2.072 10.688-7.607 1.527-1.455 1.526-1.06 1.527-1.376 1.527-.931 3.054-2.875 1.527-1.094 1.527-1.578 1.526-1.214 1.527-1.414 1.527-1.184 1.527-1.602 6.107-5.253 1.527-1.783 1.527-1.29 1.527-1.629 3.053-2.814 1.527-1.708 4.58-4.463 1.528-1.808 4.58-4.644 6.107-6.284 1.527-1.82 1.527-1.472 6.107-6.709 3.054-3.204 6.107-6.65 1.527-1.454 3.054-3.499 1.527-1.372 1.527-1.79 1.526-1.476 4.58-4.889 4.581-4.51 1.527-1.624 1.527-1.86 1.527-1.305 1.527-1.592 1.527-1.344 1.526-1.504v0" fill="none" stroke="#5e97f6" stroke-width="2" stroke-linecap="round" stroke-linejoin="round" stroke-dashoffset="875.022" stroke-dasharray="875.022"/><path id="eJ6D9dgA1vI34" d="m45.295 290.791 1.526.438 3.054.44 1.527.125 1.527.294 1.527-.06 1.526.396 3.054.456 1.527.36 1.527-.094 3.053.24 1.527.258 1.527-.075 3.054.228 3.053.243 1.527-.245 1.527.233 1.527-.254 6.107-.138 3.054-.102 3.054-.2 1.526-.347 1.527-.07 6.108-.785 1.526-.372 1.527-.197 6.108-1.357 1.526-.518 3.054-.545 1.527-.496 3.054-.825 3.053-.865 1.527-.674 1.527-.348 4.58-1.593 3.054-1.483 3.054-1.014 1.527-.76 1.527-.567 1.526-.934 3.054-1.158 1.527-.924 3.054-1.412 10.687-5.81 7.635-4.675 1.526-1.198 1.527-.608 3.054-2.35 3.054-1.82 3.053-2.287 1.527-.897 6.107-4.666 1.527-1.022 1.527-1.264 3.054-2.112 1.527-1.465 3.053-2.403 7.634-6.201 1.527-1.415 3.054-2.498 4.58-4.066 1.527-1.174 1.527-1.484 1.527-1.2 1.527-1.501 1.527-1.254 3.053-2.895 3.054-2.708 3.054-2.869 3.053-2.828 1.527-1.378 3.054-3.032 3.053-2.733 1.527-1.361 3.054-3.08 10.688-10.176 1.527-1.572 1.527-1.37 3.053-2.984 1.527-1.333 1.527-1.596 3.054-2.794 7.634-7.3 4.58-4.212 1.527-1.54 1.527-1.246 12.215-11.022 4.58-3.886 1.527-1.404 1.527-1.092 1.527-1.472 7.634-5.854 3.053-2.503 1.527-1.056 1.527-1.212 4.58-3.055 1.527-1.267 4.58-2.911 3.055-1.875 1.526-1.185 3.054-1.6 1.527-1.019 1.527-.758 3.053-1.73 3.054-1.59 1.527-.754 1.527-.574 3.053-1.403 4.581-1.883 1.527-.476 4.58-1.712 1.527-.309 3.054-1.009 6.107-1.298 9.161-1.233 1.527.038 1.527-.193 1.527.076 1.527-.094 1.526.207 3.054-.041 4.58.409 3.054.395 6.108 1.016 3.053.887 1.527.318 1.527.565 1.527.22 1.527.627 1.526.394 1.527.65 1.527.402 1.527.673 1.527.546 1.527.747 1.526.44 1.527.94 3.054 1.18 6.107 3.263 1.527.854 1.527 1.012 1.527.613 4.58 2.96 3.054 1.83 1.527 1.228 1.527.822 3.053 2.044 1.527 1.027 1.527 1.171 1.527.936 9.16 6.58 1.528 1.344 3.053 2.282 9.161 7.126 3.054 2.51 1.527 1.05 1.527 1.407 3.053 2.355 1.527 1.346 1.527 1.064 3.054 2.622 1.527 1.063 1.526 1.29 1.527 1.08 1.527 1.323 3.054 2.301 3.053 2.425 1.527 1.126 1.527 1.355 1.527.999 3.054 2.417 1.526 1.136 1.527 1.351 4.58 3.118 10.689 7.452 1.526.782 3.054 2.108 7.634 4.52 3.054 1.61 3.054 1.859 1.526.736 1.527.867 6.108 2.824 1.526.778 3.054 1.107 1.527.751 4.58 1.746 3.054 1.072 9.161 2.624 1.527.178 1.527.418 1.527.295 1.526.123 1.527.347 3.054.347 3.054.349 3.053.277 4.58.166 1.528-.199 1.527-.082 1.526.039 3.054-.241 1.527.043 6.107-1.22 1.527-.022 1.527-.594 1.527-.195 4.58-1.092 1.527-.452 1.527-.655 1.527-.469 1.527-.647 1.526-.46 3.054-1.299 1.527-.743 1.527-.509 1.527-.884 1.526-.628 4.58-2.477 1.528-.803 7.634-5.077 1.527-.869 1.527-1.023 3.053-2.197 1.527-1.138 12.215-10.388 3.053-2.851 3.054-2.729 9.161-9.217 1.527-1.727 4.58-4.755 10.688-11.822 1.527-1.885 1.527-1.638 3.054-3.543 4.58-5.34 3.054-3.566 1.527-1.656 1.527-1.847 1.526-1.648 3.054-3.622 1.527-1.656 1.527-1.938 3.053-3.348 1.527-1.913 12.215-13.235 1.527-1.413 3.053-3.183 1.527-1.46 3.054-3.173 1.527-1.142 3.053-2.992 3.054-2.714 1.527-1.138 3.054-2.724 6.107-4.496 1.527-.973 3.053-2.192 1.527-.815 1.527-.952 1.527-.791 1.527-1.036 1.527-.574 1.526-.846 4.58-1.915 1.528-.46 1.527-.716 1.526-.409v0" fill="none" stroke="#9c27b0" stroke-width="2" stroke-linecap="round" stroke-linejoin="round" stroke-dashoffset="913.191" stroke-dasharray="913.191"/><path id="eJ6D9dgA1vI35" d="m45.295 326.095 1.526-.114 1.527-.445 1.527-.138 1.527-.507 1.527-.273 1.527-.602 1.526-.387 1.527-.59 3.054-.891 1.527-.58 1.527-.808 3.053-1.106 3.054-1.573 4.58-2.05 3.054-1.895 1.527-.705 3.054-1.751 1.526-1.242 3.054-1.693 9.161-6.065 3.054-2.313 3.053-2.038 1.527-1.302 1.527-.962 1.527-1.38 3.054-2.32 3.053-2.523 9.161-7.489 4.58-3.962 1.528-1.318 1.526-1.11 6.108-5.309 1.527-1.39 4.58-3.756 1.527-1.291 3.054-2.748 22.902-19.113 1.527-1.266 3.054-2.362 6.107-4.783 13.742-10.083 1.526-1.216 1.527-.865 7.634-5.33 1.527-.932 1.527-1.168 4.58-2.904 4.581-2.69 1.527-1.205 1.527-.866 1.527-1.108 1.526-.79 6.108-3.764 1.527-.63 3.053-2.069 3.054-1.655 1.527-1.006 9.16-4.941 1.528-1.012 1.527-.62 1.526-1.092 4.58-2.4 4.581-2.604 1.527-.973 4.58-2.48 1.528-1.04 1.526-.609 1.527-1.145 3.054-1.648 4.58-2.558 3.054-1.829 6.107-3.586 6.108-3.614 6.107-3.82 1.527-.812 3.054-2.11 1.526-.85 7.635-5.017 1.526-.776 1.527-1.132 1.527-.78 3.054-2.151 1.527-.829 3.053-2.1 1.527-.892 1.527-1.087 1.527-.885 3.053-2.168 1.527-.704 1.527-1.395 1.527-.762 4.58-2.959 1.527-1.017 1.527-.88 3.054-2.082 1.527-.693 3.053-2.112 1.527-1.001 1.527-.86 1.527-.997 1.527-.632 1.526-1.25 1.527-.687 3.054-1.889 6.107-3.206 1.527-.895 3.054-1.424 1.527-.91 3.053-1.379 1.527-.81 1.527-.625 1.527-.795 1.527-.406 3.053-1.33 1.527-.458 1.527-.688 4.58-1.308 3.054-1.168 3.054-.768 9.16-1.866 1.528-.066 1.527-.239 3.053-.035 1.527-.254 6.107-.177 1.527.251 1.527-.044 1.527.279 3.054.218 9.16 1.785 4.581 1.418 3.054 1.046 4.58 1.813 1.527.818 1.527.491 1.527.81 3.053 1.434 1.527.915 1.527.579 1.527 1.163 1.527.715 3.053 1.988 1.527.834 1.527 1.125 1.527.875 6.107 4.56 1.527 1.043 1.527 1.263 1.527 1.029 9.16 7.536 3.055 2.758 1.526 1.247 3.054 2.77 1.527 1.196 1.527 1.428 3.053 3.128 1.527 1.257 1.527 1.624 1.527 1.298 1.527 1.518 1.527 1.26 1.526 1.765 1.527 1.198 3.054 3.034 4.58 4.338 1.527 1.755 1.527 1.276 4.58 4.388 10.688 9.926 7.635 6.624 1.526 1.364 1.527 1.127 3.054 2.582 1.527 1.302 4.58 3.4L569 198.08l4.58 3.03 3.054 1.979 3.054 1.887 7.634 4.053 1.527.832 1.527.6 1.527.79 1.526.408 1.527.702 1.527.414 1.527.673 1.527.49 3.053.64 3.054.715 1.527.32 1.527.148 3.054.51 1.526.007 1.527.154 1.527-.075 3.054.14 1.527-.086 1.526-.329 1.527-.21 1.527-.065 9.161-2.033 1.527-.595 3.054-1.021 1.526-.662 1.527-.476 1.527-.886 1.527-.689 1.527-.824 1.527-.633 1.526-.955 1.527-.713 1.527-1.092 4.58-2.573 4.581-3.369 1.527-1.005 1.527-1.243 1.527-1.026 3.053-2.438 1.527-.973 3.054-2.754 3.053-2.527 1.527-1.481 1.527-1.206 1.527-1.471 1.527-1.244 1.527-1.395 1.526-1.668 1.527-1.262 1.527-1.65 1.527-1.292 3.054-3.04 4.58-4.44 1.527-1.578 3.054-2.862 9.16-8.877 1.527-1.411 1.527-1.73 1.527-1.345 1.527-1.565 1.527-1.205 3.054-2.963 4.58-4.19 3.054-2.702 1.527-1.196 3.053-2.58 4.58-3.702 4.581-3.293 1.527-1.23 3.054-2.045 1.527-1.248 9.16-4.95 1.527-.687 1.527-.856 7.634-3.002 1.527-.338 1.527-.626 4.58-1.117 6.108-.993 3.054-.03 3.053-.14 3.054.299 1.527-.002 1.527.385 3.053.37 1.527.475 1.527.26 4.58 1.394v0" fill="none" stroke="#9c27b0" stroke-width="2" stroke-linecap="round" stroke-linejoin="round" stroke-dashoffset="904.747" stroke-dasharray="904.747"/><path id="eJ6D9dgA1vI36" d="M45.295 267.728 51.402 271l1.527.688 3.053 1.545 1.527.678 1.527.538 4.58 2.17 3.054 1.138 1.527.71 3.054 1.094 1.527.718 1.526.349 3.054 1.092 1.527.41 1.527.627 7.634 1.938 1.527.434 1.527.193 1.526.422 1.527.158 1.527.41 3.054.34 1.527.34 6.107.424 1.527.276 3.053-.228 3.054.158 4.58-.189 1.527-.34 1.527-.214 3.054-.044 1.527-.372 1.527-.186 9.16-2.058 3.054-1.03 1.527-.396 1.527-.622 1.527-.381 3.054-1.199 3.053-1.258 1.527-.785 1.527-.508 1.527-.9 3.053-1.247 1.527-.96 1.527-.716 1.527-.87 1.527-.73 9.16-5.597 4.581-3.08 3.054-2.018 1.527-1.248 1.527-1.102 1.526-.896 3.054-2.513 1.527-1.011 6.107-4.828 1.527-.974 1.527-1.545 1.527-1.079 1.527-1.402 3.053-2.51 1.527-1.488 1.527-1.007 1.527-1.404 1.527-1.078 1.526-1.5 1.527-1.265 1.527-1.45 4.58-3.861 4.581-4.236 1.527-1.251 3.054-2.865 1.526-1.316 1.527-1.482 3.054-2.599 1.527-1.616 1.527-1.168 1.526-1.371 1.527-1.58 1.527-1.123 3.054-2.836 4.58-4.06 1.527-1.552 1.527-1.194 3.054-2.915 3.053-2.39 3.054-2.876 4.58-3.869 7.635-6.442 13.741-11.359 1.527-1.12 3.054-2.518 4.58-3.409 1.527-1.328 10.688-7.983 1.527-.938 3.053-2.27 1.527-.964 1.527-1.246 7.634-5.138 1.527-.822 1.527-1.13 6.107-3.787 7.634-4.686 3.054-1.59 1.527-.705 4.58-2.597 9.161-4.44 7.635-3.254 3.053-1.289 1.527-.724 10.688-3.358 3.054-.773 3.053-.72 1.527-.515 1.527-.242 1.527-.399 3.054-.417 1.526-.345 1.527-.148 1.527.01 1.527-.271 3.054-.262 1.526-.215 6.108-.094 3.053.012 6.108.447 1.527.031 1.526.593 1.527-.064 3.054.433 1.527.245 1.527.458 3.053.638 4.58 1.235 1.528.327 1.526.592 1.527.14 1.527.775 3.054 1.054 3.053 1.095 1.527.688 1.527.478 4.58 2.264 1.527.532 1.527.859 1.527.518 3.054 1.62 6.107 3.174 3.054 1.818 3.053 1.888 1.527.69 1.527.815 9.161 5.794 3.054 2.026 1.527.771 1.527 1.113 3.053 1.96 1.527 1.068 1.527.854 3.054 2.023 15.268 9.89 3.054 1.984 1.526 1.06 1.527.796 4.58 2.85 3.054 1.696 1.527 1.092 3.054 1.588 4.58 2.727 1.527.52 1.527.93 1.527.594 3.054 1.658 1.526.593 3.054 1.508 4.58 1.896 3.054 1.473 3.054.92 4.58 1.85 1.527.441 1.527.32 1.527.67 1.527.476 3.053.55 3.054 1.008 1.527.35 3.054.355 4.58 1.07 1.527.125 1.527.29 1.527.108 1.526.33 1.527.076 4.58.578 1.528.117 3.053.031 1.527.067 3.054.351 1.527.061 1.527-.286 1.526.108 6.108-.165 1.527.09 3.053-.326 1.527.18 1.527-.108 1.527-.3 1.527.212 1.526-.372 1.527-.045 1.527-.196 1.527.068 1.527-.205 1.527-.062 1.526-.257 6.108-.312 1.527-.229 3.053-.156 1.527-.369 3.054.007 1.527-.333 1.526-.069 1.527.148 1.527-.268 3.054-.026 7.634-.534 1.527.133 1.527-.117 3.053.104 7.634-.031 3.054.216 1.527.169 1.527.01 7.634.71 1.527.057 1.527.347 1.526.085 1.527.196 1.527.34 3.054.38 1.527.413 1.527.094 4.58.922 1.527.436 1.527.176 3.053.668 3.054.908 3.054.572 1.527.64 1.526.285 1.527.534 1.527.063 1.527.649 1.527.315 1.527.487 1.526.336 1.527.598 3.054.876 1.527.513 1.527.205 1.526.639 1.527.267 1.527.64 1.527.32 1.527.656 1.527.338 1.526.478 1.527.265 3.054.953 3.054.875 4.58 1.267 1.527.237 1.527.471 13.741 2.652 1.527.261 1.527.04 3.054.488 1.526.194v0" fill="none" stroke="#5e97f6" stroke-width="2" stroke-linecap="round" stroke-linejoin="round" stroke-dashoffset="844.8" stroke-dasharray="844.8"/><path id="eJ6D9dgA1vI37" d="m45.295 226.426 3.053 1.532 6.108 2.923 4.58 2.427 1.527.62 1.527.85 1.527.704 1.526.902 1.527.564 1.527.891 1.527.74 1.527.901 3.053 1.178 1.527.965 6.108 2.94 3.053 1.423 1.527.629 1.527.761 1.527.637 1.527.438 4.58 2.206 10.688 3.667 4.58 1.21 1.527.636 1.527.21 3.054.794 3.053.498 3.054.593 9.161.689 3.054-.029 3.054-.22 1.526.083 3.054-.457 3.054-.545 1.527-.023 1.526-.48 3.054-.488 3.054-1.089 4.58-1.496 1.527-.7 3.054-1.088 4.58-2.298 1.527-.96 4.58-2.308 1.527-1.11 1.527-.753 1.527-1.143 1.527-.749 1.527-1.27 3.053-2.043 4.58-3.57 1.528-1.112 1.527-1.368 3.053-2.357 3.054-2.915 6.107-5.533 7.634-7.442 13.742-14.142 1.527-1.879 1.527-1.463 6.107-6.657 3.054-3.266 7.634-8.137 1.527-1.5 1.527-1.858 4.58-4.465 1.527-1.742 10.688-10.593 4.58-4.277 3.054-2.614 1.527-1.392 4.58-3.694 6.108-4.87 3.053-2.24 6.108-4.105 3.053-1.643 1.527-1.105 3.054-1.626 1.527-.786 1.526-1.034 3.054-1.183 4.58-1.972 1.527-.353 1.527-.795 3.054-.845 1.527-.232 1.527-.57 4.58-1.314 1.527-.138 3.054-.623 4.58-.478 1.527.105 3.054-.34 1.526.167 1.527-.234 1.527.113 1.527-.005 1.527.193 1.527-.004 1.526.147 1.527.343 1.527.04 1.527.186 3.054.543 1.526.083 6.108 1.532 1.527.23 9.16 2.764 1.528.623 1.526.379 1.527.539 1.527.663 1.527.415 1.527.721 1.527.42 3.053 1.375 3.054 1.155 3.054 1.608 1.526.486 3.054 1.512 3.054 1.212 1.527.857 4.58 2.08 1.527.77 1.527.914 1.527.588 3.053 1.583 1.527.865 1.527.51 3.054 1.856 1.526.474 1.527.984 4.58 2.235 1.528.987 1.526.678 7.635 4.048 1.526.53 3.054 1.798 1.527.603 4.58 2.56 1.527.711 1.527.905 1.527.72 1.527.572 1.527.937 4.58 2.066 1.527.868 1.527.734 3.053 1.336 1.527.855 15.269 6.955 1.527.512 1.526.68 1.527.55 1.527.829 1.527.67 3.054 1.043 1.526.51 1.527.742 1.527.61 1.527.424 1.527.702 6.107 2.017 3.054 1.214 1.527.342 7.634 2.398 1.527.44 1.526.27 1.527.459 1.527.621 3.054.636 1.527.42 1.526.243 1.527.63 3.054.357 1.527.526 4.58.796 1.527.186 3.054.575 1.527.135 3.053.535 1.527.21 1.527.066 1.527.38 1.527.067 3.053.367 1.527.061 4.58.463 1.527-.07 1.527.207 18.322.069 1.527-.096 1.527.064 4.58-.367 1.527.11 4.58-.395 1.528-.252 1.527.05 1.526-.253 1.527.018 3.054-.29 1.527-.082 1.527-.273 1.526-.137 1.527-.26 6.108-.394 1.526-.298 19.85-1.977 9.16-.813 4.58-.394 1.528.09 4.58-.322 9.161-.319 3.054.156 1.527-.154 1.526.277 1.527-.176 3.054.213 4.58.166 1.527.32 1.527-.042 1.527.146 1.527.285 4.58.437 1.527.04 1.527.438 3.054.367 1.526.266 1.527.432 3.054.447 4.58 1.099 1.527.286 1.527.463 1.527.283 3.054.862 12.214 3.79 3.054 1.249 9.161 3.59 3.054 1.437 1.527.672 1.526.858 1.527.62 6.108 3.025 1.526.933 1.527.661 1.527.92 1.527.525 1.527 1.16 1.527.625 1.526 1.073 1.527.793 7.634 4.606 1.527.81 4.58 3.022 4.581 3.013 3.054 2.05 4.58 3.21v0" fill="none" stroke="#5e97f6" stroke-width="2" stroke-linecap="round" stroke-linejoin="round" stroke-dashoffset="844.52" stroke-dasharray="844.52"/><path id="eJ6D9dgA1vI38" d="m45.295 320.507 3.053-2.15 1.527-1.236 1.527-.99 1.527-1.422 3.053-2.282 1.527-1.178 6.108-5.315 4.58-3.779 1.527-1.583 3.054-2.63 3.053-2.83 1.527-1.222 3.054-2.815 1.527-1.264 4.58-4.362 1.527-1.18 3.054-2.887 1.526-1.215 3.054-3.027 1.527-1.099 3.054-2.76 15.268-12.892 3.054-2.469 1.526-1.345 6.108-4.53 1.527-1.302 1.526-.758 3.054-2.298 1.527-1.025 1.527-1.198 1.527-.893 1.527-1.044 1.526-.869 3.054-2.086 3.054-1.934 1.527-.75 4.58-2.645 1.527-.793 1.527-1.041 4.58-2.086 3.054-1.698 4.58-1.896 3.054-1.375 3.054-1.268 3.053-1.224 1.527-.37 1.527-.712 4.58-1.65 3.054-.859 1.527-.701 1.527-.309 1.527-.555 1.527-.24 1.526-.671 1.527-.318 1.527-.529 3.054-.694 1.527-.521 4.58-1.115 3.054-.75 3.053-.72 6.108-1.48 1.527-.216 1.526-.339 3.054-.869 15.268-3.735 1.527-.417 1.527-.296 1.527-.588 3.054-.695 1.527-.409 1.526-.603 1.527-.392 1.527-.536 1.527-.359 1.527-.718 3.053-.825 7.635-2.816 4.58-1.96 4.58-1.653 1.527-.905 1.527-.701 1.527-.488 3.054-1.495 3.053-1.571 4.58-2.43 3.055-1.596 1.526-.932 1.527-.765 1.527-.945 1.527-.708 1.527-.912 1.527-1.073 1.526-.834 3.054-1.94 1.527-.893 3.054-2.16 1.526-.875 1.527-1.153 1.527-.769 1.527-1.214 1.527-1.046 1.527-.902 3.053-2.22 10.688-7.554 1.527-.933 1.527-1.067 1.527-1.31 19.848-13.941 3.054-1.912 3.054-1.94 6.107-3.937 1.527-.74 3.054-1.629 7.634-4.165 1.527-.566 3.053-1.521 1.527-.465 1.527-.804 4.58-1.764 4.581-1.554 3.054-.645 1.527-.483 3.053-.616 1.527-.183 1.527-.343 7.634-.78 1.527.137 1.527-.17 1.527.212 1.526-.106 1.527.236 1.527.05 1.527.302 1.527.066 3.053.483 1.527.332 1.527.176 4.58 1.214 3.054 1.01 10.688 4.255 3.054 1.664 1.527.65 3.053 1.703 1.527.746 3.054 1.984 1.527.785 6.107 4.012 1.527 1.23 3.053 1.893 7.635 5.715 1.527 1.285 1.526.936 1.527 1.33 1.527 1.103 3.054 2.495 1.527 1.262 1.526 1.049 3.054 2.662 1.527 1.096 1.527 1.369 13.741 11.017 1.527 1.34 4.58 3.47 1.527 1.267 1.527 1.077 3.054 2.476 3.054 2.06 1.526 1.371 1.527.917 1.527 1.23 1.527.976 1.527 1.22 3.053 1.763 1.527 1.223 1.527.783 1.527 1.085 1.527.768 1.527 1.01 3.053 1.625 1.527.988 4.58 2.252 1.527 1.044 1.527.299 1.527.915 3.054 1.391 7.634 2.732 1.527.324 3.053 1.14 1.527.092 1.527.555 7.634 1.491 1.527-.062 1.527.335 9.161.373 1.527-.148 1.527.163 1.527-.114 1.526-.255 1.527-.08 3.054-.479 3.054-.558 1.526-.28 1.527-.156 1.527-.51 3.054-.727 1.527-.543 1.526-.358 3.054-1.04 1.527-.456 1.527-.73 1.527-.398 1.526-.683 1.527-.45 3.054-1.422 6.107-2.996 1.527-.69 1.527-.91 3.054-1.414 1.526-1.126 3.054-1.703 3.054-1.887 6.107-3.83 3.054-2.03 1.527-.878 4.58-3.402 4.58-3.192 4.581-3.389 3.054-2.168 1.527-1.249 3.053-2.205 1.527-1.236 1.527-1.038 4.58-3.68 1.527-.996 4.58-3.531 1.528-1.256 1.526-1.047 1.527-1.3 1.527-.97 1.527-1.365 1.527-1.011 1.527-1.29 1.527-1.073 1.526-1.235 6.108-4.476 9.16-6.797 1.528-.891 6.107-4.44 6.107-3.821 3.054-2.117 1.527-.842 4.58-2.984 1.527-.711 1.527-1.051 4.58-2.614 1.527-.657 1.527-1.1 6.107-3.16 4.58-2.484 6.108-2.678 1.527-.835 6.107-2.448 3.054-1.388 6.107-2.082v0" fill="none" stroke="#5e97f6" stroke-width="2" stroke-linecap="round" stroke-linejoin="round" stroke-dashoffset="879.425" stroke-dasharray="879.425"/><path id="eJ6D9dgA1vI39" d="m45.295 257.396 3.053 1.735 1.527 1.007 1.527.586 1.527 1.041 1.527.68 4.58 2.482 3.054 1.411 3.053 1.588 1.527.446 1.527.834 4.58 1.843 1.527.731 1.527.455 1.527.653 4.58 1.43 4.581 1.569 4.58 1.13 1.527.234 3.054.695 7.634 1.264 1.527.143 1.527.375 1.527-.055 4.58.503 3.054-.089 1.527.176 1.527-.164h1.526l1.527.142 1.527-.294 3.054-.068 4.58-.8 1.527-.054 3.054-.521 1.527-.192 1.527-.348 1.526-.177 1.527-.587 3.054-.804 1.527-.293 3.053-1.009 3.054-1.085 1.527-.296 1.527-.805 1.527-.462 1.526-.6 1.527-.815 4.58-1.897 3.054-1.463 4.58-2.47 4.581-2.616 1.527-.826 1.527-1.18 1.527-.83 7.634-5.055 1.527-1.144 1.527-.988 1.527-1.133 3.053-2.629 3.054-2.24 1.527-1.328 3.053-2.24 1.527-1.353 1.527-1.513 1.527-1.002 3.054-2.875 3.053-2.65 3.054-3.013 1.527-1.188 13.741-13.307 1.527-1.83 6.107-5.98 3.054-3.312 4.58-4.64 6.108-6.691 1.527-1.327 3.054-3.605 3.053-2.967 1.527-1.699 1.527-1.37 1.527-1.828 3.053-3.02 1.527-1.737 3.054-3.083 1.527-1.728 9.16-9.25 3.054-2.887 1.527-1.552 1.527-1.176 3.054-3.25 1.527-1.244 6.107-5.624 7.634-6.511 1.527-1.163 1.527-1.54 1.527-.868 3.053-2.319 3.054-2.305 3.054-2.071 3.053-2.124 1.527-1.118 3.054-1.673 3.053-1.909 1.527-.84 1.527-.687 1.527-.948 1.527-.704 1.527-.885 3.053-1.237 1.527-.752 1.527-.406 3.054-1.282 4.58-1.599 1.527-.454 1.527-.295 1.527-.532 4.58-1.014 3.054-.348 1.527-.464 1.527-.093 1.526-.258 1.527-.146 12.215.124 1.527.144 1.527-.043 1.526.325 4.58.6 1.528.384 3.053.485 1.527.479 4.58 1.006 1.528.562 1.526.269 4.58 1.657 1.528.437 3.053 1.22 1.527.758 6.108 2.42 6.107 2.954 1.527.528 1.527.946 1.526.634 6.108 3.578 1.527.507 3.053 1.854 1.527.965 1.527.718 4.58 2.692 3.054 2.088 1.527.751 1.527.97 1.527.835 4.58 3.051 1.527.824 7.634 5.157 3.054 1.764 3.053 2.193 1.527.816 1.527 1.114 3.054 1.855 10.688 7.105 1.527.854 1.526 1.169 1.527.976 1.527.8 1.527 1.034 1.527.868 1.527 1.105 4.58 2.9 4.58 2.686 1.527.88 1.527 1.21 1.527.576 3.054 1.965 1.527.914 1.526.753 3.054 1.817 1.527.77 1.527.958 1.527.657 6.107 3.473 1.527.554 3.053 1.581 1.527.65 1.527.917 1.527.498 3.054 1.544 7.634 3.339 1.527.41 1.526.794 3.054 1.103 1.527.374 1.527.76 1.527.47 1.526.315 1.527.639 1.527.422 3.054 1.01 3.053.753 1.527.496 3.054.645 3.054.692 3.053.449 1.527.293 1.527.429 1.527.252 1.527.08 1.526.268 3.054.125 1.527.329 3.054.093 3.053.16 4.58-.05 1.528-.158 3.053.097 1.527-.205 1.527-.06 1.527-.224 1.527-.059 3.053-.573 3.054-.248 7.634-1.563 1.527-.566 3.054-.622 1.527-.559 1.526-.276 3.054-1.02 1.527-.419 1.527-.751 3.053-1.067 3.054-.957 1.527-.84 3.054-1.135 1.526-.859 1.527-.502 1.527-.638 3.054-1.533 4.58-2.351 7.634-4.13 3.054-1.82 4.58-2.628 1.527-1.098 3.054-1.758 6.107-4.182 1.527-.848 3.054-1.972 1.527-1.211 3.053-1.911 1.527-1.333 3.054-1.858 1.527-1.294 3.054-2.22 1.526-.928 4.58-3.641 1.528-1.04 1.527-1.398 1.526-.958 9.161-7.075 3.054-2.348 4.58-3.704 1.527-1.147 1.527-1.34 3.054-2.476 6.107-4.869 1.527-1.394 1.527-1.145 1.527-1.41 4.58-3.759 1.527-1.437 3.054-2.477 6.107-5.333 1.527-1.228 4.58-4.178 1.527-1.151 1.527-1.542 1.527-1.23 13.741-12.746v0" fill="none" stroke="#5e97f6" stroke-width="2" stroke-linecap="round" stroke-linejoin="round" stroke-dashoffset="888.392" stroke-dasharray="888.392"/><path id="eJ6D9dgA1vI40" d="m45.295 310.47 1.526.71 1.527.54 1.527.737 3.054.951 1.527.287 1.526.564 1.527.272 1.527.47 6.107.994 1.527.01 1.527.314 4.58.091 3.054-.07 1.527-.013 1.527-.186 1.527-.364 1.527.174 3.053-.938 1.527-.313 1.527-.119 1.527-.594 1.527-.325 1.526-.675 3.054-.938 1.527-.822 1.527-.413 1.527-.707 1.526-.933 1.527-.64 1.527-.886 1.527-.657 3.054-1.664 1.526-1.19 1.527-.847 1.527-1.069 1.527-.89 1.527-1.046 1.527-1.197 1.526-1.022 3.054-2.353 1.527-1.084 1.527-1.452 3.053-2.284 7.635-6.984 1.527-1.248 1.526-1.64 4.58-4.305 1.528-1.485 1.527-1.666 4.58-4.455 3.054-3.297 1.527-1.767 1.526-1.376 21.376-23.007 1.527-1.724 1.527-1.552 1.527-1.812 3.053-2.993 1.527-1.789 6.107-6.07 1.527-1.887 1.527-1.364 4.58-4.705 4.581-4.266 4.58-4.392 4.581-4.333 1.527-1.132 3.054-2.929 1.526-1.173 1.527-1.35 1.527-1.057 1.527-1.572 3.054-2.305 1.526-1.362 6.108-4.59 1.527-1.273 1.526-.94 4.581-3.242 3.054-1.942 1.527-1.244 1.526-.696 4.58-3.045 1.528-.779 1.527-1.012 1.526-.821 3.054-1.845 1.527-.702 1.527-1.116 1.527-.587 4.58-2.35 1.527-.598 1.527-1.037 1.527-.606 1.526-.78 6.108-2.654 7.634-3.514 1.527-.414 1.527-.554 1.526-.703 13.742-4.898 4.58-1.323 1.527-.85 1.527-.203 6.107-2.024 1.527-.41 3.054-1.007 1.527-.336 3.053-1.01 1.527-.132 1.527-.364 1.527-.627 1.527-.219 1.527-.587 3.053-.74 7.634-1.688 1.527-.48 3.054-.555 3.054-.604 7.634-1.21 9.16-1.36 1.528-.147 1.527-.001 4.58-.623 4.58-.126 6.108-.185 1.527.065 1.527-.17 1.526.129 1.527-.028 1.527.1 1.527-.02 1.527.183 1.527.01 1.526.236 9.161.73 1.527.45 3.054.181 1.527.526 1.527.049 1.526.432 1.527.196 10.688 2.497 7.634 2.156 1.527.325 3.054 1.165 1.527.37 3.053 1.07 4.58 1.736 1.528.69 1.526.335 9.161 3.635 1.527.73 1.527.463 1.527.86 1.527.34 3.053 1.564 1.527.357 1.527.793 12.215 5.09 1.527.513 1.527.935 1.526.674 3.054 1.103 1.527.86 1.527.596 1.527.453 3.053 1.463 1.527.514 9.161 3.866 1.527.458 1.527.593 1.527.466 6.107 2.463 1.527.433 4.58 1.658 1.527.25 7.634 2.616 1.527.367 1.527.638 1.527.163 6.107 1.82 4.58 1.229 1.527.168 1.527.49 1.527.292 1.527.043 1.527.518 4.58 1.118 1.527.177 1.527.34h1.527l3.053.78 1.527.215 1.527.048 1.527.213 1.527.375 3.053.25 1.527.328 1.527.01 7.634.924 1.527-.093 1.527.074 3.054.382 3.053.012 3.054.282 6.107-.081 3.054.225 1.527-.16 3.054.135 1.526-.201 1.527.07 1.527-.302 3.054-.023 1.527-.125 1.526.07 1.527-.345 3.054-.08 1.527-.177 1.527.026 4.58-.753 1.527-.03 1.527-.395 1.527-.031 1.526-.363 1.527-.167 1.527-.332 3.054-.527 3.053-.578 3.054-.719 1.527-.15 12.215-2.993 3.053-1.107 1.527-.261 3.054-1.02 1.527-.655 3.053-.89 6.108-2.165 1.526-.745 1.527-.495 3.054-1.244 1.527-.8 1.527-.393 1.526-.893 3.054-1.152 1.527-.875 6.107-2.888 1.527-.828 1.527-.626 1.527-.879 1.527-.533 1.527-.988 1.526-.847 1.527-.713 1.527-.913 1.527-.72 1.527-.923 1.527-.738 1.526-1.009 1.527-.746 9.161-5.483 1.527-.632 1.527-1.156 1.527-.797 1.527-1.106 4.58-2.723 3.054-2.2 3.053-1.825 3.054-1.916 3.054-2.16 1.527-.822 1.526-1.2 1.527-.825 7.634-5.287 1.527-.818 7.634-5.093 1.527-1.187 1.527-1.044 3.054-1.888 1.527-1.25 1.526-.858v0" fill="none" stroke="#25a69a" stroke-width="2" stroke-linecap="round" stroke-linejoin="round" stroke-dashoffset="853.01" stroke-dasharray="853.01"/><clipPath id="eJ6D9dgA1vI41"><path d="M7.2 7.2h838.08v334.08H7.2Z" stroke-linejoin="round"/></clipPath></g><script><![CDATA[
!function(t,e){"object"==typeof exports&&"undefined"!=typeof module?module.exports=e():"function"==typeof define&&define.amd?define(e):((t="undefined"!=typeof globalThis?globalThis:t||self).__SVGATOR_PLAYER__=t.__SVGATOR_PLAYER__||{},t.__SVGATOR_PLAYER__["91c80d77"]=e())}(this,(function(){"use strict";function t(t,e){var n=Object.keys(t);if(Object.getOwnPropertySymbols){var r=Object.getOwnPropertySymbols(t);e&&(r=r.filter((function(e){return Object.getOwnPropertyDescriptor(t,e).enumerable}))),n.push.apply(n,r)}return n}function e(e){for(var n=1;n<arguments.length;n++){var r=null!=arguments[n]?arguments[n]:{};n%2?t(Object(r),!0).forEach((function(t){u(e,t,r[t])})):Object.getOwnPropertyDescriptors?Object.defineProperties(e,Object.getOwnPropertyDescriptors(r)):t(Object(r)).forEach((function(t){Object.defineProperty(e,t,Object.getOwnPropertyDescriptor(r,t))}))}return e}function n(t){return(n="function"==typeof Symbol&&"symbol"==typeof Symbol.iterator?function(t){return typeof t}:function(t){return t&&"function"==typeof Symbol&&t.constructor===Symbol&&t!==Symbol.prototype?"symbol":typeof t})(t)}function r(t,e){if(!(t instanceof e))throw new TypeError("Cannot call a class as a function")}function i(t,e){for(var n=0;n<e.length;n++){var r=e[n];r.enumerable=r.enumerable||!1,r.configurable=!0,"value"in r&&(r.writable=!0),Object.defineProperty(t,r.key,r)}}function o(t,e,n){return e&&i(t.prototype,e),n&&i(t,n),t}function u(t,e,n){return e in t?Object.defineProperty(t,e,{value:n,enumerable:!0,configurable:!0,writable:!0}):t[e]=n,t}function a(t){return(a=Object.setPrototypeOf?Object.getPrototypeOf:function(t){return t.__proto__||Object.getPrototypeOf(t)})(t)}function s(t,e){return(s=Object.setPrototypeOf||function(t,e){return t.__proto__=e,t})(t,e)}function l(){if("undefined"==typeof Reflect||!Reflect.construct)return!1;if(Reflect.construct.sham)return!1;if("function"==typeof Proxy)return!0;try{return Boolean.prototype.valueOf.call(Reflect.construct(Boolean,[],(function(){}))),!0}catch(t){return!1}}function f(t,e,n){return(f=l()?Reflect.construct:function(t,e,n){var r=[null];r.push.apply(r,e);var i=new(Function.bind.apply(t,r));return n&&s(i,n.prototype),i}).apply(null,arguments)}function c(t,e){if(e&&("object"==typeof e||"function"==typeof e))return e;if(void 0!==e)throw new TypeError("Derived constructors may only return object or undefined");return function(t){if(void 0===t)throw new ReferenceError("this hasn't been initialised - super() hasn't been called");return t}(t)}function h(t,e,n){return(h="undefined"!=typeof Reflect&&Reflect.get?Reflect.get:function(t,e,n){var r=function(t,e){for(;!Object.prototype.hasOwnProperty.call(t,e)&&null!==(t=a(t)););return t}(t,e);if(r){var i=Object.getOwnPropertyDescriptor(r,e);return i.get?i.get.call(n):i.value}})(t,e,n||t)}function v(t){return function(t){if(Array.isArray(t))return y(t)}(t)||function(t){if("undefined"!=typeof Symbol&&null!=t[Symbol.iterator]||null!=t["@@iterator"])return Array.from(t)}(t)||function(t,e){if(!t)return;if("string"==typeof t)return y(t,e);var n=Object.prototype.toString.call(t).slice(8,-1);"Object"===n&&t.constructor&&(n=t.constructor.name);if("Map"===n||"Set"===n)return Array.from(t);if("Arguments"===n||/^(?:Ui|I)nt(?:8|16|32)(?:Clamped)?Array$/.test(n))return y(t,e)}(t)||function(){throw new TypeError("Invalid attempt to spread non-iterable instance.\nIn order to be iterable, non-array objects must have a [Symbol.iterator]() method.")}()}function y(t,e){(null==e||e>t.length)&&(e=t.length);for(var n=0,r=new Array(e);n<e;n++)r[n]=t[n];return r}Number.isInteger||(Number.isInteger=function(t){return"number"==typeof t&&isFinite(t)&&Math.floor(t)===t}),Number.EPSILON||(Number.EPSILON=2220446049250313e-31);var d=g(Math.pow(10,-6));function g(t){var e=arguments.length>1&&void 0!==arguments[1]?arguments[1]:6;if(Number.isInteger(t))return t;var n=Math.pow(10,e);return Math.round((+t+Number.EPSILON)*n)/n}function p(t,e){var n=arguments.length>2&&void 0!==arguments[2]?arguments[2]:d;return Math.abs(t-e)<n}var m=Math.PI/180;function b(t){return t}function k(t,e,n){var r=1-n;return 3*n*r*(t*r+e*n)+n*n*n}function w(){var t=arguments.length>0&&void 0!==arguments[0]?arguments[0]:0,e=arguments.length>1&&void 0!==arguments[1]?arguments[1]:0,n=arguments.length>2&&void 0!==arguments[2]?arguments[2]:1,r=arguments.length>3&&void 0!==arguments[3]?arguments[3]:1;return t<0||t>1||n<0||n>1?null:p(t,e)&&p(n,r)?b:function(i){if(i<=0)return t>0?i*e/t:0===e&&n>0?i*r/n:0;if(i>=1)return n<1?1+(i-1)*(r-1)/(n-1):1===n&&t<1?1+(i-1)*(e-1)/(t-1):1;for(var o,u=0,a=1;u<a;){var s=k(t,n,o=(u+a)/2);if(p(i,s))break;s<i?u=o:a=o}return k(e,r,o)}}function x(){return 1}function A(t){return 1===t?1:0}function _(){var t=arguments.length>0&&void 0!==arguments[0]?arguments[0]:1,e=arguments.length>1&&void 0!==arguments[1]?arguments[1]:0;if(1===t){if(0===e)return A;if(1===e)return x}var n=1/t;return function(t){return t>=1?1:(t+=e*n)-t%n}}var O=Math.sin,S=Math.cos,E=Math.acos,P=Math.asin,M=Math.tan,j=Math.atan2,B=Math.PI/180,T=180/Math.PI,I=Math.sqrt,R=function(){function t(){var e=arguments.length>0&&void 0!==arguments[0]?arguments[0]:1,n=arguments.length>1&&void 0!==arguments[1]?arguments[1]:0,i=arguments.length>2&&void 0!==arguments[2]?arguments[2]:0,o=arguments.length>3&&void 0!==arguments[3]?arguments[3]:1,u=arguments.length>4&&void 0!==arguments[4]?arguments[4]:0,a=arguments.length>5&&void 0!==arguments[5]?arguments[5]:0;r(this,t),this.m=[e,n,i,o,u,a],this.i=null,this.w=null,this.s=null}return o(t,[{key:"determinant",get:function(){var t=this.m;return t[0]*t[3]-t[1]*t[2]}},{key:"isIdentity",get:function(){if(null===this.i){var t=this.m;this.i=1===t[0]&&0===t[1]&&0===t[2]&&1===t[3]&&0===t[4]&&0===t[5]}return this.i}},{key:"point",value:function(t,e){var n=this.m;return{x:n[0]*t+n[2]*e+n[4],y:n[1]*t+n[3]*e+n[5]}}},{key:"translateSelf",value:function(){var t=arguments.length>0&&void 0!==arguments[0]?arguments[0]:0,e=arguments.length>1&&void 0!==arguments[1]?arguments[1]:0;if(!t&&!e)return this;var n=this.m;return n[4]+=n[0]*t+n[2]*e,n[5]+=n[1]*t+n[3]*e,this.w=this.s=this.i=null,this}},{key:"rotateSelf",value:function(){var t=arguments.length>0&&void 0!==arguments[0]?arguments[0]:0;if(t%=360){var e=O(t*=B),n=S(t),r=this.m,i=r[0],o=r[1];r[0]=i*n+r[2]*e,r[1]=o*n+r[3]*e,r[2]=r[2]*n-i*e,r[3]=r[3]*n-o*e,this.w=this.s=this.i=null}return this}},{key:"scaleSelf",value:function(){var t=arguments.length>0&&void 0!==arguments[0]?arguments[0]:1,e=arguments.length>1&&void 0!==arguments[1]?arguments[1]:1;if(1!==t||1!==e){var n=this.m;n[0]*=t,n[1]*=t,n[2]*=e,n[3]*=e,this.w=this.s=this.i=null}return this}},{key:"skewSelf",value:function(t,e){if(e%=360,(t%=360)||e){var n=this.m,r=n[0],i=n[1],o=n[2],u=n[3];t&&(t=M(t*B),n[2]+=r*t,n[3]+=i*t),e&&(e=M(e*B),n[0]+=o*e,n[1]+=u*e),this.w=this.s=this.i=null}return this}},{key:"resetSelf",value:function(){var t=arguments.length>0&&void 0!==arguments[0]?arguments[0]:1,e=arguments.length>1&&void 0!==arguments[1]?arguments[1]:0,n=arguments.length>2&&void 0!==arguments[2]?arguments[2]:0,r=arguments.length>3&&void 0!==arguments[3]?arguments[3]:1,i=arguments.length>4&&void 0!==arguments[4]?arguments[4]:0,o=arguments.length>5&&void 0!==arguments[5]?arguments[5]:0,u=this.m;return u[0]=t,u[1]=e,u[2]=n,u[3]=r,u[4]=i,u[5]=o,this.w=this.s=this.i=null,this}},{key:"recomposeSelf",value:function(){var t=arguments.length>0&&void 0!==arguments[0]?arguments[0]:null,e=arguments.length>1&&void 0!==arguments[1]?arguments[1]:null,n=arguments.length>2&&void 0!==arguments[2]?arguments[2]:null,r=arguments.length>3&&void 0!==arguments[3]?arguments[3]:null,i=arguments.length>4&&void 0!==arguments[4]?arguments[4]:null;return this.isIdentity||this.resetSelf(),t&&(t.x||t.y)&&this.translateSelf(t.x,t.y),e&&this.rotateSelf(e),n&&(n.x&&this.skewSelf(n.x,0),n.y&&this.skewSelf(0,n.y)),!r||1===r.x&&1===r.y||this.scaleSelf(r.x,r.y),i&&(i.x||i.y)&&this.translateSelf(i.x,i.y),this}},{key:"decompose",value:function(){var t=arguments.length>0&&void 0!==arguments[0]?arguments[0]:0,e=arguments.length>1&&void 0!==arguments[1]?arguments[1]:0,n=this.m,r=n[0]*n[0]+n[1]*n[1],i=[[n[0],n[1]],[n[2],n[3]]],o=I(r);if(0===o)return{origin:{x:g(n[4]),y:g(n[5])},translate:{x:g(t),y:g(e)},scale:{x:0,y:0},skew:{x:0,y:0},rotate:0};i[0][0]/=o,i[0][1]/=o;var u=n[0]*n[3]-n[1]*n[2]<0;u&&(o=-o);var a=i[0][0]*i[1][0]+i[0][1]*i[1][1];i[1][0]-=i[0][0]*a,i[1][1]-=i[0][1]*a;var s=I(i[1][0]*i[1][0]+i[1][1]*i[1][1]);if(0===s)return{origin:{x:g(n[4]),y:g(n[5])},translate:{x:g(t),y:g(e)},scale:{x:g(o),y:0},skew:{x:0,y:0},rotate:0};i[1][0]/=s,i[1][1]/=s,a/=s;var l=0;return i[1][1]<0?(l=E(i[1][1])*T,i[0][1]<0&&(l=360-l)):l=P(i[0][1])*T,u&&(l=-l),a=j(a,I(i[0][0]*i[0][0]+i[0][1]*i[0][1]))*T,u&&(a=-a),{origin:{x:g(n[4]),y:g(n[5])},translate:{x:g(t),y:g(e)},scale:{x:g(o),y:g(s)},skew:{x:g(a),y:0},rotate:g(l)}}},{key:"clone",value:function(){var t=this.m;return new this.constructor(t[0],t[1],t[2],t[3],t[4],t[5])}},{key:"toString",value:function(){var t=arguments.length>0&&void 0!==arguments[0]?arguments[0]:" ";if(null===this.s){var e=this.m.map((function(t){return g(t)}));1===e[0]&&0===e[1]&&0===e[2]&&1===e[3]?this.s="translate("+e[4]+t+e[5]+")":this.s="matrix("+e.join(t)+")"}return this.s}}],[{key:"create",value:function(t){return t?Array.isArray(t)?f(this,v(t)):t instanceof this?t.clone():(new this).recomposeSelf(t.origin,t.rotate,t.skew,t.scale,t.translate):new this}}]),t}();function N(t,e,n){return t>=.5?n:e}function F(t,e,n){return 0===t||e===n?e:t*(n-e)+e}function C(t,e,n){var r=F(t,e,n);return r<=0?0:r}function L(t,e,n){var r=F(t,e,n);return r<=0?0:r>=1?1:r}function D(t,e,n){return 0===t?e:1===t?n:{x:F(t,e.x,n.x),y:F(t,e.y,n.y)}}function q(t,e,n){return 0===t?e:1===t?n:{x:C(t,e.x,n.x),y:C(t,e.y,n.y)}}function V(t,e,n){var r=function(t,e,n){return Math.round(F(t,e,n))}(t,e,n);return r<=0?0:r>=255?255:r}function z(t,e,n){return 0===t?e:1===t?n:{r:V(t,e.r,n.r),g:V(t,e.g,n.g),b:V(t,e.b,n.b),a:F(t,null==e.a?1:e.a,null==n.a?1:n.a)}}function Y(t,e,n){var r=e.length;if(r!==n.length)return N(t,e,n);for(var i=new Array(r),o=0;o<r;o++)i[o]=F(t,e[o],n[o]);return i}function G(t,e){for(var n=[],r=0;r<t;r++)n.push(e);return n}function U(t,e){if(--e<=0)return t;var n=(t=Object.assign([],t)).length;do{for(var r=0;r<n;r++)t.push(t[r])}while(--e>0);return t}var $,W=function(){function t(e){r(this,t),this.list=e,this.length=e.length}return o(t,[{key:"setAttribute",value:function(t,e){for(var n=this.list,r=0;r<this.length;r++)n[r].setAttribute(t,e)}},{key:"removeAttribute",value:function(t){for(var e=this.list,n=0;n<this.length;n++)e[n].removeAttribute(t)}},{key:"style",value:function(t,e){for(var n=this.list,r=0;r<this.length;r++)n[r].style[t]=e}}]),t}(),H=/-./g,Q=function(t,e){return e.toUpperCase()};function X(t){return"function"==typeof t?t:N}function J(t){return t?"function"==typeof t?t:Array.isArray(t)?function(t){var e=arguments.length>1&&void 0!==arguments[1]?arguments[1]:b;if(!Array.isArray(t))return e;switch(t.length){case 1:return _(t[0])||e;case 2:return _(t[0],t[1])||e;case 4:return w(t[0],t[1],t[2],t[3])||e}return e}(t,null):function(t,e){var n=arguments.length>2&&void 0!==arguments[2]?arguments[2]:b;switch(t){case"linear":return b;case"steps":return _(e.steps||1,e.jump||0)||n;case"bezier":case"cubic-bezier":return w(e.x1||0,e.y1||0,e.x2||0,e.y2||0)||n}return n}(t.type,t.value,null):null}function K(t,e,n){var r=arguments.length>3&&void 0!==arguments[3]&&arguments[3],i=e.length-1;if(t<=e[0].t)return r?[0,0,e[0].v]:e[0].v;if(t>=e[i].t)return r?[i,1,e[i].v]:e[i].v;var o,u=e[0],a=null;for(o=1;o<=i;o++){if(!(t>e[o].t)){a=e[o];break}u=e[o]}return null==a?r?[i,1,e[i].v]:e[i].v:u.t===a.t?r?[o,1,a.v]:a.v:(t=(t-u.t)/(a.t-u.t),u.e&&(t=u.e(t)),r?[o,t,n(t,u.v,a.v)]:n(t,u.v,a.v))}function Z(t,e){var n=arguments.length>2&&void 0!==arguments[2]?arguments[2]:null;return t&&t.length?"function"!=typeof e?null:("function"!=typeof n&&(n=null),function(r){var i=K(r,t,e);return null!=i&&n&&(i=n(i)),i}):null}function tt(t,e){return t.t-e.t}function et(t,e,r,i,o){var u,a="@"===r[0],s="#"===r[0],l=$[r],f=N;switch(a?(u=r.substr(1),r=u.replace(H,Q)):s&&(r=r.substr(1)),n(l)){case"function":if(f=l(i,o,K,J,r,a,e,t),s)return f;break;case"string":f=Z(i,X(l));break;case"object":if((f=Z(i,X(l.i),l.f))&&"function"==typeof l.u)return l.u(e,f,r,a,t)}return f?function(t,e,n){if(arguments.length>3&&void 0!==arguments[3]&&arguments[3])return t instanceof W?function(r){return t.style(e,n(r))}:function(r){return t.style[e]=n(r)};if(Array.isArray(e)){var r=e.length;return function(i){var o=n(i);if(null==o)for(var u=0;u<r;u++)t[u].removeAttribute(e);else for(var a=0;a<r;a++)t[a].setAttribute(e,o)}}return function(r){var i=n(r);null==i?t.removeAttribute(e):t.setAttribute(e,i)}}(e,r,f,a):null}function nt(t,e,r,i){if(!i||"object"!==n(i))return null;var o=null,u=null;return Array.isArray(i)?u=function(t){if(!t||!t.length)return null;for(var e=0;e<t.length;e++)t[e].e&&(t[e].e=J(t[e].e));return t.sort(tt)}(i):(u=i.keys,o=i.data||null),u?et(t,e,r,u,o):null}function rt(t,e,n){if(!n)return null;var r=[];for(var i in n)if(n.hasOwnProperty(i)){var o=nt(t,e,i,n[i]);o&&r.push(o)}return r.length?r:null}function it(t,e){if(!e.settings.duration||e.settings.duration<0)return null;var n,r,i,o,u,a=function(t,e){if(!e)return null;var n=[];if(Array.isArray(e))for(var r=e.length,i=0;i<r;i++){var o=e[i];if(2===o.length){var u=null;if("string"==typeof o[0])u=t.getElementById(o[0]);else if(Array.isArray(o[0])){u=[];for(var a=0;a<o[0].length;a++)if("string"==typeof o[0][a]){var s=t.getElementById(o[0][a]);s&&u.push(s)}u=u.length?1===u.length?u[0]:new W(u):null}if(u){var l=rt(t,u,o[1]);l&&(n=n.concat(l))}}}else for(var f in e)if(e.hasOwnProperty(f)){var c=t.getElementById(f);if(c){var h=rt(t,c,e[f]);h&&(n=n.concat(h))}}return n.length?n:null}(t,e.elements);return a?(n=a,r=e.settings,i=r.duration,o=n.length,u=null,function(t,e){var a=r.iterations||1/0,s=(r.alternate&&a%2==0)^r.direction>0?i:0,l=t%i,f=1+(t-l)/i;e*=r.direction,r.alternate&&f%2==0&&(e=-e);var c=!1;if(f>a)l=s,c=!0,-1===r.fill&&(l=r.direction>0?0:i);else if(e<0&&(l=i-l),l===u)return!1;u=l;for(var h=0;h<o;h++)n[h](l);return c}):null}function ot(t,e){if($=e,!t||!t.root||!Array.isArray(t.animations))return null;var n=function(t){for(var e=document.getElementsByTagName("svg"),n=0;n<e.length;n++)if(e[n].id===t.root&&!e[n].svgatorAnimation)return e[n].svgatorAnimation=!0,e[n];return null}(t);if(!n)return null;var r=t.animations.map((function(t){return it(n,t)})).filter((function(t){return!!t}));return r.length?{svg:n,animations:r,animationSettings:t.animationSettings,options:t.options||void 0}:null}function ut(t){return+("0x"+(t.replace(/[^0-9a-fA-F]+/g,"")||27))}function at(t,e,n){return!t||!n||e>t.length?t:t.substring(0,e)+at(t.substring(e+1),n,n)}function st(t){var e=arguments.length>1&&void 0!==arguments[1]?arguments[1]:27;return!t||t%e?t%e:st(t/e,e)}function lt(t,e,n){if(t&&t.length){var r=ut(n),i=ut(e),o=st(r)+5,u=at(t,st(r,5),o);return u=u.replace(/\x7c$/g,"==").replace(/\x2f$/g,"="),u=function(t,e,n){var r=+("0x"+t.substring(0,4));t=t.substring(4);for(var i=e%r+n%27,o=[],u=0;u<t.length;u+=2)if("|"!==t[u]){var a=+("0x"+t[u]+t[u+1])-i;o.push(a)}else{var s=+("0x"+t.substring(u+1,u+1+4))-i;u+=3,o.push(s)}return String.fromCharCode.apply(String,o)}(u=(u=atob(u)).replace(/[\x41-\x5A]/g,""),i,r),u=JSON.parse(u)}}var ft=[{key:"alternate",def:!1},{key:"fill",def:1},{key:"iterations",def:0},{key:"direction",def:1},{key:"speed",def:1},{key:"fps",def:100}],ct=function(){function t(e,n){var i=this,o=arguments.length>2&&void 0!==arguments[2]?arguments[2]:null;r(this,t),this._id=0,this._running=!1,this._rollingBack=!1,this._animations=e,this._settings=n,(!o||o<"2022-05-02")&&delete this._settings.speed,ft.forEach((function(t){i._settings[t.key]=i._settings[t.key]||t.def})),this.duration=n.duration,this.offset=n.offset||0,this.rollbackStartOffset=0}return o(t,[{key:"alternate",get:function(){return this._settings.alternate}},{key:"fill",get:function(){return this._settings.fill}},{key:"iterations",get:function(){return this._settings.iterations}},{key:"direction",get:function(){return this._settings.direction}},{key:"speed",get:function(){return this._settings.speed}},{key:"fps",get:function(){return this._settings.fps}},{key:"maxFiniteDuration",get:function(){return this.iterations>0?this.iterations*this.duration:this.duration}},{key:"_apply",value:function(t){for(var e=arguments.length>1&&void 0!==arguments[1]?arguments[1]:{},n=this._animations,r=n.length,i=0,o=0;o<r;o++)e[o]?i++:(e[o]=n[o](t,1),e[o]&&i++);return i}},{key:"_rollback",value:function(t){var e=this,n=1/0,r=null;this.rollbackStartOffset=t,this._rollingBack=!0,this._running=!0;this._id=window.requestAnimationFrame((function i(o){if(e._rollingBack){null==r&&(r=o);var u=Math.round(t-(o-r)*e.speed);if(u>e.duration&&n!==1/0){var a=!!e.alternate&&u/e.duration%2>1,s=u%e.duration;u=(s+=a?e.duration:0)||e.duration}var l=(e.fps?1e3/e.fps:0)*e.speed,f=Math.max(0,u);f<=n-l&&(e.offset=f,n=f,e._apply(f));var c=e.iterations>0&&-1===e.fill&&u>=e.maxFiniteDuration;(u<=0||e.offset<u||c)&&e.stop(),e._id=window.requestAnimationFrame(i)}}))}},{key:"_start",value:function(){var t=this,e=arguments.length>0&&void 0!==arguments[0]?arguments[0]:0,n=-1/0,r=null,i={};this._running=!0;var o=function o(u){null==r&&(r=u);var a=Math.round((u-r)*t.speed+e),s=(t.fps?1e3/t.fps:0)*t.speed;if(a>=n+s&&!t._rollingBack&&(t.offset=a,n=a,t._apply(a,i)===t._animations.length))return void t.pause(!0);t._id=window.requestAnimationFrame(o)};this._id=window.requestAnimationFrame(o)}},{key:"_pause",value:function(){this._id&&window.cancelAnimationFrame(this._id),this._running=!1}},{key:"play",value:function(){if(!this._running)return this._rollingBack?this._rollback(this.offset):this._start(this.offset)}},{key:"stop",value:function(){this._pause(),this.offset=0,this.rollbackStartOffset=0,this._rollingBack=!1,this._apply(0)}},{key:"reachedToEnd",value:function(){return this.iterations>0&&this.offset>=this.iterations*this.duration}},{key:"restart",value:function(){var t=arguments.length>0&&void 0!==arguments[0]&&arguments[0];this.stop(t),this.play(t)}},{key:"pause",value:function(){this._pause()}},{key:"reverse",value:function(){this.direction=-this.direction}}],[{key:"build",value:function(t,e){delete t.animationSettings,t.options=lt(t.options,t.root,"91c80d77"),t.animations.map((function(e){e.settings=lt(e.s,t.root,"91c80d77"),delete e.s,t.animationSettings||(t.animationSettings=e.settings)}));var n=t.version;if(!(t=ot(t,e)))return null;var r=t.options||{},i=new this(t.animations,t.animationSettings,n);return{el:t.svg,options:r,player:i}}},{key:"push",value:function(t){return this.build(t)}},{key:"init",value:function(){var t=this,e=window.__SVGATOR_PLAYER__&&window.__SVGATOR_PLAYER__["91c80d77"];Array.isArray(e)&&e.splice(0).forEach((function(e){return t.build(e)}))}}]),t}();!function(){for(var t=0,e=["ms","moz","webkit","o"],n=0;n<e.length&&!window.requestAnimationFrame;++n)window.requestAnimationFrame=window[e[n]+"RequestAnimationFrame"],window.cancelAnimationFrame=window[e[n]+"CancelAnimationFrame"]||window[e[n]+"CancelRequestAnimationFrame"];window.requestAnimationFrame||(window.requestAnimationFrame=function(e){var n=Date.now(),r=Math.max(0,16-(n-t)),i=window.setTimeout((function(){e(n+r)}),r);return t=n+r,i},window.cancelAnimationFrame=window.clearTimeout)}();var ht=function(t,e){var n=!1,r=null;return function(i){n&&clearTimeout(n),n=setTimeout((function(){return function(){for(var i=0,o=window.innerHeight,u=0,a=window.innerWidth,s=t.parentNode;s instanceof Element;){var l=window.getComputedStyle(s);if("visible"!==l.overflowY||"visible"!==l.overflowX){var f=s.getBoundingClientRect();"visible"!==l.overflowY&&(i=Math.max(i,f.top),o=Math.min(o,f.bottom)),"visible"!==l.overflowX&&(u=Math.max(u,f.left),a=Math.min(a,f.right))}if(s===s.parentNode)break;s=s.parentNode}n=!1;var c=t.getBoundingClientRect(),h=Math.min(c.height,Math.max(0,i-c.top)),v=Math.min(c.height,Math.max(0,c.bottom-o)),y=Math.min(c.width,Math.max(0,u-c.left)),d=Math.min(c.width,Math.max(0,c.right-a)),g=(c.height-h-v)/c.height,p=(c.width-y-d)/c.width,m=Math.round(g*p*100);null!==r&&r===m||(r=m,e(m))}()}),100)}},vt=function(){function t(e,n,i){r(this,t),n=Math.max(1,n||1),n=Math.min(n,100),this.el=e,this._handlers=[],this.onThresholdChange=i&&i.call?i:function(){},this.thresholdPercent=n||1,this.currentVisibility=null,this.visibilityCalculator=ht(e,this.onVisibilityUpdate.bind(this)),this.bindScrollWatchers(),this.visibilityCalculator()}return o(t,[{key:"bindScrollWatchers",value:function(){for(var t=this.el.parentNode;t&&(this._handlers.push({element:t,event:"scroll",handler:this.visibilityCalculator}),t.addEventListener("scroll",this.visibilityCalculator),t!==t.parentNode&&t!==document);)t=t.parentNode}},{key:"onVisibilityUpdate",value:function(t){var e=this.currentVisibility>=this.thresholdPercent,n=t>=this.thresholdPercent;if(null===this.currentVisibility||e!==n)return this.currentVisibility=t,void this.onThresholdChange(n);this.currentVisibility=t}},{key:"destruct",value:function(){this._handlers.forEach((function(t){t.element.removeEventListener(t.event,t.handler)}))}}]),t}();function yt(t){return g(t)+""}function dt(t){var e=arguments.length>1&&void 0!==arguments[1]?arguments[1]:" ";return t&&t.length?t.map(yt).join(e):""}function gt(t){return yt(t.x)+","+yt(t.y)}function pt(t){if(!t)return"transparent";if(null==t.a||t.a>=1){var e=function(t){return 1===(t=parseInt(t).toString(16)).length?"0"+t:t},n=function(t){return t.charAt(0)===t.charAt(1)},r=e(t.r),i=e(t.g),o=e(t.b);return n(r)&&n(i)&&n(o)&&(r=r.charAt(0),i=i.charAt(0),o=o.charAt(0)),"#"+r+i+o}return"rgba("+t.r+","+t.g+","+t.b+","+t.a+")"}function mt(t){return t?"url(#"+t+")":"none"}var bt={f:null,i:q,u:function(t,e){return function(n){var r=e(n);t.setAttribute("rx",yt(r.x)),t.setAttribute("ry",yt(r.y))}}},kt={f:null,i:function(t,e,n){return 0===t?e:1===t?n:{width:C(t,e.width,n.width),height:C(t,e.height,n.height)}},u:function(t,e){return function(n){var r=e(n);t.setAttribute("width",yt(r.width)),t.setAttribute("height",yt(r.height))}}};Object.freeze({M:2,L:2,Z:0,H:1,V:1,C:6,Q:4,T:2,S:4,A:7});var wt={},xt=null;function At(t){var e=function(){if(xt)return xt;if("object"!==("undefined"==typeof document?"undefined":n(document))||!document.createElementNS)return{};var t=document.createElementNS("http://www.w3.org/2000/svg","svg");return t&&t.style?(t.style.position="absolute",t.style.opacity="0.01",t.style.zIndex="-9999",t.style.left="-9999px",t.style.width="1px",t.style.height="1px",xt={svg:t}):{}}().svg;if(!e)return function(t){return null};var r=document.createElementNS(e.namespaceURI,"path");r.setAttributeNS(null,"d",t),r.setAttributeNS(null,"fill","none"),r.setAttributeNS(null,"stroke","none"),e.appendChild(r);var i=r.getTotalLength();return function(t){var e=r.getPointAtLength(i*t);return{x:e.x,y:e.y}}}function _t(t){return wt[t]?wt[t]:wt[t]=At(t)}function Ot(t,e,n,r){if(!t||!r)return!1;var i=["M",t.x,t.y];if(e&&n&&(i.push("C"),i.push(e.x),i.push(e.y),i.push(n.x),i.push(n.y)),e?!n:n){var o=e||n;i.push("Q"),i.push(o.x),i.push(o.y)}return e||n||i.push("L"),i.push(r.x),i.push(r.y),i.join(" ")}function St(t,e,n,r){var i=arguments.length>4&&void 0!==arguments[4]?arguments[4]:1,o=Ot(t,e,n,r),u=_t(o);try{return u(i)}catch(t){return null}}function Et(t,e,n){return t+(e-t)*n}function Pt(t,e,n){var r=arguments.length>3&&void 0!==arguments[3]&&arguments[3],i={x:Et(t.x,e.x,n),y:Et(t.y,e.y,n)};return r&&(i.a=Mt(t,e)),i}function Mt(t,e){return Math.atan2(e.y-t.y,e.x-t.x)}function jt(t,e,n,r){var i=1-r;return i*i*t+2*i*r*e+r*r*n}function Bt(t,e,n,r){return 2*(1-r)*(e-t)+2*r*(n-e)}function Tt(t,e,n,r){var i=arguments.length>4&&void 0!==arguments[4]&&arguments[4],o=St(t,e,null,n,r);return o||(o={x:jt(t.x,e.x,n.x,r),y:jt(t.y,e.y,n.y,r)}),i&&(o.a=It(t,e,n,r)),o}function It(t,e,n,r){return Math.atan2(Bt(t.y,e.y,n.y,r),Bt(t.x,e.x,n.x,r))}function Rt(t,e,n,r,i){var o=i*i;return i*o*(r-t+3*(e-n))+3*o*(t+n-2*e)+3*i*(e-t)+t}function Nt(t,e,n,r,i){var o=1-i;return 3*(o*o*(e-t)+2*o*i*(n-e)+i*i*(r-n))}function Ft(t,e,n,r,i){var o=arguments.length>5&&void 0!==arguments[5]&&arguments[5],u=St(t,e,n,r,i);return u||(u={x:Rt(t.x,e.x,n.x,r.x,i),y:Rt(t.y,e.y,n.y,r.y,i)}),o&&(u.a=Ct(t,e,n,r,i)),u}function Ct(t,e,n,r,i){return Math.atan2(Nt(t.y,e.y,n.y,r.y,i),Nt(t.x,e.x,n.x,r.x,i))}function Lt(t,e,n){var r=arguments.length>3&&void 0!==arguments[3]&&arguments[3];if(qt(e)){if(Vt(n))return Tt(e,n.start,n,t,r)}else if(qt(n)){if(zt(e))return Tt(e,e.end,n,t,r)}else{if(zt(e))return Vt(n)?Ft(e,e.end,n.start,n,t,r):Tt(e,e.end,n,t,r);if(Vt(n))return Tt(e,n.start,n,t,r)}return Pt(e,n,t,r)}function Dt(t,e,n){var r=Lt(t,e,n,!0);return r.a=function(t){return arguments.length>1&&void 0!==arguments[1]&&arguments[1]?t+Math.PI:t}(r.a)/m,r}function qt(t){return!t.type||"corner"===t.type}function Vt(t){return null!=t.start&&!qt(t)}function zt(t){return null!=t.end&&!qt(t)}var Yt=new R;var Gt={f:function(t){return t?t.join(" "):""},i:function(t,e,r){if(0===t)return e;if(1===t)return r;var i=e.length;if(i!==r.length)return N(t,e,r);for(var o,u=new Array(i),a=0;a<i;a++){if((o=n(e[a]))!==n(r[a]))return N(t,e,r);if("number"===o)u[a]=F(t,e[a],r[a]);else{if(e[a]!==r[a])return N(t,e,r);u[a]=e[a]}}return u}},Ut={f:null,i:Y,u:function(t,e){return function(n){var r=e(n);t.setAttribute("x1",yt(r[0])),t.setAttribute("y1",yt(r[1])),t.setAttribute("x2",yt(r[2])),t.setAttribute("y2",yt(r[3]))}}},$t={f:yt,i:F},Wt={f:yt,i:L},Ht={f:function(t){var e=arguments.length>1&&void 0!==arguments[1]?arguments[1]:" ";return t&&t.length>0&&(t=t.map((function(t){return g(t,4)}))),dt(t,e)},i:function(t,e,n){var r,i,o,u=e.length,a=n.length;if(u!==a)if(0===u)e=G(u=a,0);else if(0===a)a=u,n=G(u,0);else{var s=(o=(r=u)*(i=a)/function(t,e){for(var n;e;)n=e,e=t%e,t=n;return t||1}(r,i))<0?-o:o;e=U(e,Math.floor(s/u)),n=U(n,Math.floor(s/a)),u=a=s}for(var l=[],f=0;f<u;f++)l.push(g(C(t,e[f],n[f])));return l}};function Qt(t,e,n){return t.map((function(t){return function(t,e,n){var r=t.v;if(!r||"g"!==r.t||r.s||!r.v||!r.r)return t;var i=n.getElementById(r.r),o=i&&i.querySelectorAll("stop")||[];return r.s=r.v.map((function(t,e){var n=o[e]&&o[e].getAttribute("offset");return{c:t,o:n=g(parseInt(n)/100)}})),delete r.v,t}(t,0,n)}))}var Xt={gt:"gradientTransform",c:{x:"cx",y:"cy"},rd:"r",f:{x:"x1",y:"y1"},to:{x:"x2",y:"y2"}};function Jt(t,e,r,i,o,u,a,s){return Qt(t,0,s),e=function(t,e,n){for(var r,i,o,u=t.length-1,a={},s=0;s<=u;s++)(r=t[s]).e&&(r.e=e(r.e)),r.v&&"g"===(i=r.v).t&&i.r&&(o=n.getElementById(i.r))&&(a[i.r]={e:o,s:o.querySelectorAll("stop")});return a}(t,i,s),function(i){var o=r(i,t,Kt);if(!o)return"none";if("c"===o.t)return pt(o.v);if("g"===o.t){if(!e[o.r])return mt(o.r);var u=e[o.r];return function(t,e){for(var n=t.s,r=n.length;r<e.length;r++){var i=n[n.length-1].cloneNode();i.id=ee(i.id),t.e.appendChild(i),n=t.s=t.e.querySelectorAll("stop")}for(var o=0,u=n.length,a=e.length-1;o<u;o++)n[o].setAttribute("stop-color",pt(e[Math.min(o,a)].c)),n[o].setAttribute("offset",e[Math.min(o,a)].o)}(u,o.s),Object.keys(Xt).forEach((function(t){if(void 0!==o[t])if("object"!==n(Xt[t])){var e,r="gt"===t?(e=o[t],Array.isArray(e)?"matrix("+e.join(" ")+")":""):o[t],i=Xt[t];u.e.setAttribute(i,r)}else Object.keys(Xt[t]).forEach((function(e){if(void 0!==o[t][e]){var n=o[t][e],r=Xt[t][e];u.e.setAttribute(r,n)}}))})),mt(o.r)}return"none"}}function Kt(t,n,r){if(0===t)return n;if(1===t)return r;if(n&&r){var i=n.t;if(i===r.t)switch(n.t){case"c":return{t:i,v:z(t,n.v,r.v)};case"g":if(n.r===r.r){var o={t:i,s:Zt(t,n.s,r.s),r:n.r};return n.gt&&r.gt&&(o.gt=Y(t,n.gt,r.gt)),n.c?(o.c=D(t,n.c,r.c),o.rd=C(t,n.rd,r.rd)):n.f&&(o.f=D(t,n.f,r.f),o.to=D(t,n.to,r.to)),o}}if("c"===n.t&&"g"===r.t||"c"===r.t&&"g"===n.t){var u="c"===n.t?n:r,a="g"===n.t?e({},n):e({},r),s=a.s.map((function(t){return{c:u.v,o:t.o}}));return a.s="c"===n.t?Zt(t,s,a.s):Zt(t,a.s,s),a}}return N(t,n,r)}function Zt(t,e,n){if(e.length===n.length)return e.map((function(e,r){return te(t,e,n[r])}));for(var r=Math.max(e.length,n.length),i=[],o=0;o<r;o++){var u=te(t,e[Math.min(o,e.length-1)],n[Math.min(o,n.length-1)]);i.push(u)}return i}function te(t,e,n){return{o:L(t,e.o,n.o||0),c:z(t,e.c,n.c||{})}}function ee(t){return t.replace(/-fill-([0-9]+)$/,(function(t,e){return"-fill-"+(+e+1)}))}var ne={blur:q,brightness:C,contrast:C,"drop-shadow":function(t,e,n){return 0===t?e:1===t?n:{blur:q(t,e.blur,n.blur),offset:D(t,e.offset,n.offset),color:z(t,e.color,n.color)}},grayscale:C,"hue-rotate":F,invert:C,opacity:C,saturate:C,sepia:C};function re(t,e,n){if(0===t)return e;if(1===t)return n;var r=e.length;if(r!==n.length)return N(t,e,n);for(var i,o=[],u=0;u<r;u++){if(e[u].type!==n[u].type)return e;if(!(i=ne[e[u].type]))return N(t,e,n);o.push({type:e.type,value:i(t,e[u].value,n[u].value)})}return o}var ie={blur:function(t){return t?function(e){t.setAttribute("stdDeviation",gt(e))}:null},brightness:function(t,e,n){return(t=ue(n,e))?function(e){e=yt(e),t.map((function(t){return t.setAttribute("slope",e)}))}:null},contrast:function(t,e,n){return(t=ue(n,e))?function(e){var n=yt((1-e)/2);e=yt(e),t.map((function(t){t.setAttribute("slope",e),t.setAttribute("intercept",n)}))}:null},"drop-shadow":function(t,e,n){var r=n.getElementById(e+"-blur");if(!r)return null;var i=n.getElementById(e+"-offset");if(!i)return null;var o=n.getElementById(e+"-flood");return o?function(t){r.setAttribute("stdDeviation",gt(t.blur)),i.setAttribute("dx",yt(t.offset.x)),i.setAttribute("dy",yt(t.offset.y)),o.setAttribute("flood-color",pt(t.color))}:null},grayscale:function(t){return t?function(e){t.setAttribute("values",dt(function(t){return[.2126+.7874*(t=1-t),.7152-.7152*t,.0722-.0722*t,0,0,.2126-.2126*t,.7152+.2848*t,.0722-.0722*t,0,0,.2126-.2126*t,.7152-.7152*t,.0722+.9278*t,0,0,0,0,0,1,0]}(e)))}:null},"hue-rotate":function(t){return t?function(e){return t.setAttribute("values",yt(e))}:null},invert:function(t,e,n){return(t=ue(n,e))?function(e){e=yt(e)+" "+yt(1-e),t.map((function(t){return t.setAttribute("tableValues",e)}))}:null},opacity:function(t,e,n){return(t=n.getElementById(e+"-A"))?function(e){return t.setAttribute("tableValues","0 "+yt(e))}:null},saturate:function(t){return t?function(e){return t.setAttribute("values",yt(e))}:null},sepia:function(t){return t?function(e){return t.setAttribute("values",dt(function(t){return[.393+.607*(t=1-t),.769-.769*t,.189-.189*t,0,0,.349-.349*t,.686+.314*t,.168-.168*t,0,0,.272-.272*t,.534-.534*t,.131+.869*t,0,0,0,0,0,1,0]}(e)))}:null}};var oe=["R","G","B"];function ue(t,e){var n=oe.map((function(n){return t.getElementById(e+"-"+n)||null}));return-1!==n.indexOf(null)?null:n}var ae={fill:Jt,"fill-opacity":Wt,stroke:Jt,"stroke-opacity":Wt,"stroke-width":$t,"stroke-dashoffset":{f:yt,i:F},"stroke-dasharray":Ht,opacity:Wt,transform:function(t,e,r,i){if(!(t=function(t,e){if(!t||"object"!==n(t))return null;var r=!1;for(var i in t)t.hasOwnProperty(i)&&(t[i]&&t[i].length?(t[i].forEach((function(t){t.e&&(t.e=e(t.e))})),r=!0):delete t[i]);return r?t:null}(t,i)))return null;var o=function(n,i,o){var u=arguments.length>3&&void 0!==arguments[3]?arguments[3]:null;return t[n]?r(i,t[n],o):e&&e[n]?e[n]:u};return e&&e.a&&t.o?function(e){var n=r(e,t.o,Dt);return Yt.recomposeSelf(n,o("r",e,F,0)+n.a,o("k",e,D),o("s",e,D),o("t",e,D)).toString()}:function(t){return Yt.recomposeSelf(o("o",t,Lt,null),o("r",t,F,0),o("k",t,D),o("s",t,D),o("t",t,D)).toString()}},"#filter":function(t,e,n,r,i,o,u,a){if(!e.items||!t||!t.length)return null;var s=function(t,e){var n=(t=t.map((function(t){return t&&ie[t[0]]?(e.getElementById(t[1]),ie[t[0]](e.getElementById(t[1]),t[1],e)):null}))).length;return function(e){for(var r=0;r<n;r++)t[r]&&t[r](e[r].value)}}(e.items,a);return s?(t=function(t,e){return t.map((function(t){return t.e=e(t.e),t}))}(t,r),function(e){s(n(e,t,re))}):null},"#line":Ut,points:{f:dt,i:Y},d:Gt,r:$t,"#size":kt,"#radius":bt,_:function(t,e){if(Array.isArray(t))for(var n=0;n<t.length;n++)this[t[n]]=e;else this[t]=e}},se={currentTime:"offset",duration:"duration",hasEnded:function(){return this.reachedToEnd()},isAlternate:"alternate",isPlaying:"_running",isRollingBack:"_rollingBack",state:function(t,e){return e.isPlaying?e.isRollingBack?"rollback":"playing":e.hasEnded?"ended":"paused"},totalTime:"maxFiniteDuration",iterations:"iterations",direction:"direction",fill:"fill",isReversed:function(t,e){return-1===e.direction},isBackwards:function(t,e){return-1===e.fill},isInfinite:function(t,e){return 0===e.iterations},speed:"speed",fps:"fps"},le={destruct:"destruct",pause:"pause",play:function(t,e){return fe(t,e.hasEnded?"restart":"play",e)},restart:"restart",reverse:function(t,e){return fe(t,"reverse",e,[!0])},seek:"seek",seekBy:"seekBy",seekTo:"seekTo",stop:"stop",toggle:"toggle",togglePlay:"toggle",set:"set"};function fe(t,e,n){var r=arguments.length>3&&void 0!==arguments[3]?arguments[3]:[];return function(){var i,o=Array.prototype.slice.call(arguments);return o.unshift.apply(o,v(r)),(i=t[e]).call.apply(i,[t].concat(v(o))),n}}var ce=function t(e){r(this,t);var n={},i=["on","off"],o={get:function(t,e,r){return se[e]?"function"==typeof se[e]?se[e].call(t,t,r):t[se[e]]:le[e]?"function"==typeof le[e]?le[e].call(t,t,r):fe(t,le[e],r):-1!==i.indexOf(e)?n[e]:"ready"===e?function(t){return t&&t.call(r,r),r}:void 0},set:function(t,e,r){return-1!==i.indexOf(e)&&(n[e]=r)},ownKeys:function(t){return Object.keys(se)},has:function(t,e){return void 0!==se[e]}};if("function"==typeof Proxy)return new Proxy(e,o);var u=Object.keys(se).concat(Object.keys(le)).concat(i),a={};return u.forEach((function(t){var n={enumerable:!1,configurable:!1,get:function(){return o.get(e,t,a)}};-1!==i.indexOf(t)&&(n.set=function(n){return o.set(e,t,n)}),Object.defineProperty(a,t,n)})),a};function he(t){t||(t=this);var e={};this.on=function(t,n){var r=arguments.length>2&&void 0!==arguments[2]&&arguments[2];return"function"==typeof n&&(t.split(/[, ]+/g).forEach((function(t){return e[t]=e[t]||[],r?e[t].unshift(n):e[t].push(n)})),!0)},this.off=function(t,n){for(var r in e)if(e.hasOwnProperty(r)&&r.substr(0,t.length)===t)if(n)for(var i=0;i<e[r].length;i++)e[r][i]===n&&(e[r][i]=null);else e[r]=null},this.trigger=function(){var n,r=Array.prototype.slice.call(arguments),i=r[0],o=r.slice(1);t:for(var u in e)if(e.hasOwnProperty(u)&&e[u]&&(u===i||u.substr(0,i.length+1)===i+"."))for(var a=0;a<(e[u]||[]).length;a++)if(e[u][a]&&!1===(n=e[u][a].apply(t,o)))break t;return n}}var ve=!0,ye=["iterations","speed","fps","direction","fill","alternate"],de=function(t){!function(t,e){if("function"!=typeof e&&null!==e)throw new TypeError("Super expression must either be null or a function");t.prototype=Object.create(e&&e.prototype,{constructor:{value:t,writable:!0,configurable:!0}}),e&&s(t,e)}(u,t);var e,n,i=(e=u,n=l(),function(){var t,r=a(e);if(n){var i=a(this).constructor;t=Reflect.construct(r,arguments,i)}else t=r.apply(this,arguments);return c(this,t)});function u(t,e){var n,o=arguments.length>2&&void 0!==arguments[2]?arguments[2]:null;return r(this,u),(n=i.call(this,t,e,o))._handlers=[],n}return o(u,[{key:"_adjustOffset",value:function(){var t=arguments.length>0&&void 0!==arguments[0]&&arguments[0],e=this.alternate?2*this.duration:this.duration;if(t){if(!this._rollingBack&&0===this.offset)return void(this.offset=e);this._rollingBack&&(this.offset,this.maxFiniteDuration)}!this._rollingBack||this.rollbackStartOffset<=this.duration?0!==this.iterations&&(this.offset=Math.min(this.offset,this.maxFiniteDuration)):(this.offset=this.rollbackStartOffset-(this.rollbackStartOffset-this.offset)%e,this.rollbackStartOffset=0)}},{key:"reverse",value:function(){var t=arguments.length>0&&void 0!==arguments[0]&&arguments[0];if(!this._running)return this._adjustOffset(t),this._rollingBack=!this._rollingBack,t&&this.play(!1),void this.trigger("reverse",this.offset);this.pause(!1,!1),this._adjustOffset(),this._rollingBack=!this._rollingBack,this.play(!1),this.trigger("reverse",this.offset)}},{key:"play",value:function(){var t=arguments.length>0&&void 0!==arguments[0]?arguments[0]:ve,e=h(a(u.prototype),"play",this).call(this);return t===ve&&this.trigger("play",this.offset),e}},{key:"pause",value:function(){var t=arguments.length>0&&void 0!==arguments[0]&&arguments[0],e=arguments.length>1&&void 0!==arguments[1]?arguments[1]:ve,n=h(a(u.prototype),"pause",this).call(this);return e===ve&&this.trigger(t?"end":"pause",this.offset),n}},{key:"restart",value:function(){var t=h(a(u.prototype),"restart",this).call(this,!1);return this.trigger("restart",this.offset),t}},{key:"stop",value:function(){var t=arguments.length>0&&void 0!==arguments[0]?arguments[0]:ve,e=h(a(u.prototype),"stop",this).call(this);return t===ve&&this.trigger("stop",this.offset),e}},{key:"_apply",value:function(t){var e=this,n=arguments.length>2&&void 0!==arguments[2]?arguments[2]:ve,r=h(a(u.prototype),"_apply",this).call(this,t);if(n===ve){var i=function(){return e.trigger("keyframe",t)};window.requestAnimationFrame(i)}return r}},{key:"seekTo",value:function(t){var e,n,r,i=this._running;i&&this.pause(!1,!1),this.offset=this.iterations>0?(e=t,n=0,r=this.maxFiniteDuration,e<n?n:e>r?r:e):Math.max(t,0),this._apply(this.offset),i&&this.play(!1)}},{key:"seek",value:function(t){return this.seekTo(Math.round(t/100*this.maxFiniteDuration))}},{key:"seekBy",value:function(t){return this.seekTo(this.offset+t)}},{key:"toggle",value:function(){return this._running?this.pause():this.reachedToEnd()?this.restart():this.play()}},{key:"set",value:function(t,e){if(ye.includes(t)){var n=this._running;n&&this.pause(!1,!1),this._settings[t]=e,n?this.play(!1):this._apply(this.offset,{},!1)}}},{key:"destruct",value:function(){var t=this;this.stop(),this._handlers.forEach((function(t){t.element?t.element.removeEventListener(t.event,t.handler):t.callback&&t.callback.call&&t.callback.call()}));var e=function(){},n=Object.getOwnPropertyNames(Object.getPrototypeOf(this));n.push.apply(n,v(Object.getOwnPropertyNames(this))),n.forEach((function(n){"function"==typeof t[n]?t[n]=e:delete t[n]}))}}],[{key:"build",value:function(t){var e=h(a(u),"build",this).call(this,t,ae);if(!e)return null;var n=e.el,r=e.options,i=e.player,o=new ce(i),s=new he(o);o.on=s.on,o.off=s.off,i.trigger=s.trigger;var l=n.svgatorPlayer&&n.svgatorPlayer.ready&&n.svgatorPlayer.ready.call&&n.svgatorPlayer.ready.call();n.svgatorPlayer=o,function(t,e,n){if("click"===n.start){var r=function(){switch(n.click){case"freeze":return!t._running&&t.reachedToEnd()?t.restart():t.toggle();case"restart":return t.offset>0?t.restart():t.play();case"reverse":return t._running?t.reverse():t.reachedToEnd()?1===t.fill?t.reverse(!0):t.restart():t.play();case"none":default:if(t._running)return;return t.reachedToEnd()?t.restart():t.play()}};return t._handlers.push({element:e,event:"click",handler:r}),void e.addEventListener("click",r)}if("hover"===n.start){var i=function(){return t.reachedToEnd()?t.restart():t._rollingBack?t.reverse():t.play()};t._handlers.push({element:e,event:"mouseenter",handler:i}),e.addEventListener("mouseenter",i);var o=function(){switch(n.hover){case"freeze":return t.pause();case"reset":return t.stop();case"reverse":if(t.reverse(),t._running)return;return t.play();case"none":default:return}};return t._handlers.push({element:e,event:"mouseleave",handler:o}),void e.addEventListener("mouseleave",o)}if("scroll"===n.start){var u=new vt(e,n.scroll||25,(function(e){e?t.reachedToEnd()?t.restart():t.play():t.pause()}));return void t._handlers.push({callback:function(){return u.destruct()}})}if("programmatic"===n.start)return;t.play()}(i,n,r),function(t,e,n){var r;"function"==typeof Event?r=new Event("ready"):(r=document.createEvent("Event")).initEvent("ready",!0,!0);if(t.dispatchEvent(r),!n||!n.length)return;n.forEach((function(t){return e.ready(t)}))}(n,n.svgatorPlayer,l)}}]),u}(ct);return de.init(),de}));
(function(s,i,o,w,a,b){(a=document.getElementById(i.root)).svgatorPlayer={ready:(function(a){b=[];return function(c){return c?(b.push(c),a.svgatorPlayer):b}})(a)};w[o]=w[o]||{};w[o][s]=w[o][s]||[];w[o][s].push(i);})('91c80d77',{"root":"eJ6D9dgA1vI1","version":"2022-05-04","animations":[{"elements":{"eJ6D9dgA1vI29":{"stroke-dashoffset":[{"t":600,"v":941.705738,"e":[0.575,-0.01,1,1]},{"t":5600,"v":0}]},"eJ6D9dgA1vI30":{"stroke-dashoffset":[{"t":800,"v":897.070958,"e":[0.575,-0.01,1,1]},{"t":5800,"v":0}]},"eJ6D9dgA1vI31":{"stroke-dashoffset":[{"t":600,"v":908.910416,"e":[0.575,-0.01,1,1]},{"t":5600,"v":0}]},"eJ6D9dgA1vI32":{"stroke-dashoffset":[{"t":400,"v":883.075254,"e":[0.575,-0.01,1,1]},{"t":5400,"v":0}]},"eJ6D9dgA1vI33":{"stroke-dashoffset":[{"t":1000,"v":875.021901,"e":[0.575,-0.01,1,1]},{"t":6000,"v":0}]},"eJ6D9dgA1vI34":{"stroke-dashoffset":[{"t":600,"v":913.191176,"e":[0.575,-0.01,1,1]},{"t":5600,"v":0}]},"eJ6D9dgA1vI35":{"stroke-dashoffset":[{"t":0,"v":904.746577,"e":[0.575,-0.01,1,1]},{"t":5000,"v":0}]},"eJ6D9dgA1vI36":{"stroke-dashoffset":[{"t":800,"v":844.799909,"e":[0.575,-0.01,1,1]},{"t":5800,"v":0}]},"eJ6D9dgA1vI37":{"stroke-dashoffset":[{"t":800,"v":844.519886,"e":[0.575,-0.01,1,1]},{"t":5800,"v":0}]},"eJ6D9dgA1vI38":{"stroke-dashoffset":[{"t":400,"v":879.4254,"e":[0.575,-0.01,1,1]},{"t":6200,"v":0}]},"eJ6D9dgA1vI39":{"stroke-dashoffset":[{"t":0,"v":888.391602,"e":[0.575,-0.01,1,1]},{"t":5000,"v":0}]},"eJ6D9dgA1vI40":{"stroke-dashoffset":[{"t":1200,"v":853.009763,"e":[0.575,-0.01,1,1]},{"t":6200,"v":0}]}},"s":"MDNA1ZDkxMzg3YRThiODg3NzhhRN2Y4NTg0SDML4NTA0ZDQ2NDOZDNDY0MjM4NQ2E3Zjg4N2I3VOThhN2Y4NTgL0Mzg1MFY0NzQQyVzM4N2Y4YVTdiODhZNzc4QYTdmUjg1VjgI0ODkzODUwUDCQ3NDIzODdjNF2Y4MjgyMzg1CMDQ3NDIzODcU3ODI4YTdiRzIg4ODQ3NzhhNL2IzODUwN2M3CNzgyODk3YjQNyMzg4OTg2RDJdiN2JMSjdhMQzg1MFY0NzQyLMzg3Yzg2ODkKzODUwNDc0NjXQ2OTM/"}],"options":"MDMAxMDgyMjk3YNTdiRzY4Nzk3WYjI5UzQxMjlSKNzM3NjY4NmAIyOTg0"},'__SVGATOR_PLAYER__',window)
]]></script></svg>